<mxfile host="app.diagrams.net" modified="2020-04-02T10:41:53.721Z" agent="5.0 (Macintosh; Intel Mac OS X 10_15_4) AppleWebKit/537.36 (KHTML, like Gecko) Chrome/81.0.4044.83 Safari/537.36 Edg/81.0.416.41" etag="4GmHPdGGXlEqyv_v7ZTU" version="12.9.5" type="github" pages="6">
  <diagram id="o6DXPlxMXwV910LR9hnJ" name="Epic Context Toets">
    <mxGraphModel dx="3061" dy="2009" grid="0" gridSize="10" guides="1" tooltips="1" connect="1" arrows="1" fold="1" page="1" pageScale="1" pageWidth="1169" pageHeight="827" math="0" shadow="0">
      <root>
        <mxCell id="0" />
        <mxCell id="1" parent="0" />
        <mxCell id="xtY8qUKaFHS1ZsebeAdu-27" value="" style="rounded=0;whiteSpace=wrap;html=1;" vertex="1" parent="1">
          <mxGeometry x="-40" y="-29" width="1262" height="894" as="geometry" />
        </mxCell>
        <mxCell id="xtY8qUKaFHS1ZsebeAdu-8" value="" style="whiteSpace=wrap;html=1;strokeColor=none;fillColor=#ffe6cc;" vertex="1" parent="1">
          <mxGeometry x="230" y="632" width="541" height="133" as="geometry" />
        </mxCell>
        <mxCell id="PGqh1YuijZFweoPhQiLg-2" value="&lt;h1 style=&quot;white-space: nowrap&quot;&gt;&lt;font color=&quot;#0077c8&quot; style=&quot;font-weight: normal ; font-size: 48px&quot;&gt;Epic context&lt;/font&gt;&lt;/h1&gt;&lt;h1&gt;AIP OHA BeheerToets for Agents&lt;/h1&gt;&lt;p&gt;An Agent (intermediairy) will be able on the Aegon Intermediairy Portal to check (&#39;toets&#39;) a proposed &#39;divorce&#39; mutation of a Aegon Mortgage Mortgage Contract to see if the (new) loan is acceptable in the new (financial) situation of the Mortgagor after the (leaving) partner is removed from the contract. This determines if the staying Mortgagor will be able to &#39;keep the house&#39;.&lt;/p&gt;" style="text;html=1;strokeColor=none;fillColor=none;spacing=5;spacingTop=-20;whiteSpace=wrap;overflow=hidden;rounded=0;" parent="1" vertex="1">
          <mxGeometry x="30" y="25" width="713" height="181" as="geometry" />
        </mxCell>
        <mxCell id="P5jHssNGDo8xFewVTdFS-1" value="&lt;p&gt;&lt;/p&gt;&lt;h2&gt;&lt;font color=&quot;#0077c8&quot;&gt;OHA BeheerToets (AIP UI) Flow scenario:&lt;/font&gt;&lt;/h2&gt;&amp;nbsp;1.&amp;nbsp; &amp;nbsp;Agent logs in on AIP with the TP number of the Intermediairy Office he/she works for&lt;br&gt;&amp;nbsp;2.&amp;nbsp; &amp;nbsp;System shows a page with an ability to search the Mortgage portfolio for a specific Mortgage Contract&lt;br&gt;&amp;nbsp;3.&amp;nbsp; &amp;nbsp;Agent searches/selects an existing contract from portfolio search results&lt;br&gt;&amp;nbsp;4.&amp;nbsp; &amp;nbsp;System calls &#39;Contract Details&#39; Api and returns the retrieved Mortgage info presented in a dashboard with navigation options&lt;br&gt;&amp;nbsp;5.&amp;nbsp; &amp;nbsp;Agent chooses to do a &#39;Toets&#39; and selects option from navigation menu&lt;br&gt;&amp;nbsp;6.&amp;nbsp; &amp;nbsp;System starts the Toets wizard on first step and shows summary of selected Mortgage contract next to the form:&lt;br&gt;&lt;span style=&quot;white-space: pre&quot;&gt;	&lt;/span&gt;- Contract Id&lt;br&gt;&lt;span style=&quot;white-space: pre&quot;&gt;	&lt;/span&gt;- Collateral address&lt;br&gt;&lt;span style=&quot;white-space: pre&quot;&gt;	&lt;/span&gt;- Mortgagors list&lt;br&gt;&amp;nbsp;7.&amp;nbsp; &amp;nbsp;Agent has to fill out necessary/mandatory information for this &#39;Toets&#39; and clicks &#39;next&#39; after each step&lt;br&gt;&lt;span style=&quot;white-space: pre&quot;&gt;	&lt;/span&gt;- Step 1:&lt;br&gt;&lt;span style=&quot;white-space: pre&quot;&gt;		&lt;/span&gt;Mortgagor Mutation(s) (leaver, comer)&lt;br&gt;&lt;span style=&quot;white-space: pre&quot;&gt;		&lt;/span&gt;Collateral Market Value (current)&lt;br&gt;&lt;span style=&quot;white-space: pre&quot;&gt;	&lt;/span&gt;- Step 2:&lt;br&gt;&lt;span style=&quot;white-space: pre&quot;&gt;		&lt;/span&gt;Mortgagor (financial) details (stayer)&lt;br&gt;&lt;span style=&quot;white-space: pre&quot;&gt;		&lt;/span&gt;Mortgagor (financial) details (comer)&lt;br&gt;&lt;span style=&quot;white-space: pre&quot;&gt;	&lt;/span&gt;- Step 3:&lt;br&gt;&lt;span style=&quot;white-space: pre&quot;&gt;		&lt;/span&gt;Mortgage/loan/loanpart mutations&lt;br&gt;&lt;span style=&quot;white-space: pre&quot;&gt;		&lt;/span&gt;Extra loan(-part) if needed&lt;br&gt;&amp;nbsp;8.&amp;nbsp; &amp;nbsp;After step 3 the system will call the &#39;Enterprise BeheerToets Wrapper Api&#39; and displays the respons in step 4 and possibility to download a PDF of the toets Summary.&lt;br&gt;&lt;span style=&quot;white-space: pre&quot;&gt;	&lt;/span&gt;- Step 4:&lt;br&gt;&lt;span style=&quot;white-space: pre&quot;&gt;		&lt;/span&gt;Toets result (if requested OHA mutation is allowed)&lt;br&gt;&lt;span style=&quot;white-space: pre&quot;&gt;		&lt;/span&gt;Feedback (written feedback on conditions)&lt;br&gt;&amp;nbsp;9.&amp;nbsp; &amp;nbsp;Agent downloads a PDF of the summary of the toets and clicks &#39;next&#39;&lt;br&gt;10.&amp;nbsp; System returns to the Contract Dashboard. Flow ends.&lt;p&gt;&lt;/p&gt;" style="text;html=1;strokeColor=none;fillColor=none;spacing=5;spacingTop=-20;whiteSpace=wrap;overflow=hidden;rounded=0;" vertex="1" parent="1">
          <mxGeometry x="30" y="204" width="994" height="428" as="geometry" />
        </mxCell>
        <mxCell id="xtY8qUKaFHS1ZsebeAdu-5" style="edgeStyle=orthogonalEdgeStyle;rounded=0;orthogonalLoop=1;jettySize=auto;html=1;exitX=1;exitY=0.5;exitDx=0;exitDy=0;entryX=0;entryY=0.5;entryDx=0;entryDy=0;" edge="1" parent="1" source="xtY8qUKaFHS1ZsebeAdu-1" target="xtY8qUKaFHS1ZsebeAdu-2">
          <mxGeometry relative="1" as="geometry" />
        </mxCell>
        <mxCell id="xtY8qUKaFHS1ZsebeAdu-1" value="Step 1&lt;br&gt;&quot;Situation&quot;" style="whiteSpace=wrap;html=1;aspect=fixed;" vertex="1" parent="1">
          <mxGeometry x="245" y="665" width="80" height="80" as="geometry" />
        </mxCell>
        <mxCell id="xtY8qUKaFHS1ZsebeAdu-6" style="edgeStyle=orthogonalEdgeStyle;rounded=0;orthogonalLoop=1;jettySize=auto;html=1;exitX=1;exitY=0.5;exitDx=0;exitDy=0;entryX=0;entryY=0.5;entryDx=0;entryDy=0;" edge="1" parent="1" source="xtY8qUKaFHS1ZsebeAdu-2" target="xtY8qUKaFHS1ZsebeAdu-3">
          <mxGeometry relative="1" as="geometry" />
        </mxCell>
        <mxCell id="xtY8qUKaFHS1ZsebeAdu-2" value="Step 2&lt;br&gt;&quot;Mortgagor(s)&quot;" style="whiteSpace=wrap;html=1;aspect=fixed;" vertex="1" parent="1">
          <mxGeometry x="384" y="665" width="80" height="80" as="geometry" />
        </mxCell>
        <mxCell id="xtY8qUKaFHS1ZsebeAdu-7" style="edgeStyle=orthogonalEdgeStyle;rounded=0;orthogonalLoop=1;jettySize=auto;html=1;exitX=1;exitY=0.5;exitDx=0;exitDy=0;entryX=0;entryY=0.5;entryDx=0;entryDy=0;" edge="1" parent="1" source="xtY8qUKaFHS1ZsebeAdu-3" target="xtY8qUKaFHS1ZsebeAdu-4">
          <mxGeometry relative="1" as="geometry" />
        </mxCell>
        <mxCell id="xtY8qUKaFHS1ZsebeAdu-3" value="Step 3&lt;br&gt;&quot;Loan&quot;" style="whiteSpace=wrap;html=1;aspect=fixed;" vertex="1" parent="1">
          <mxGeometry x="523" y="665" width="80" height="80" as="geometry" />
        </mxCell>
        <mxCell id="xtY8qUKaFHS1ZsebeAdu-13" style="edgeStyle=none;rounded=0;orthogonalLoop=1;jettySize=auto;html=1;exitX=0.25;exitY=1;exitDx=0;exitDy=0;entryX=0.5;entryY=0;entryDx=0;entryDy=0;startArrow=classic;startFill=1;" edge="1" parent="1" source="xtY8qUKaFHS1ZsebeAdu-4" target="xtY8qUKaFHS1ZsebeAdu-10">
          <mxGeometry relative="1" as="geometry" />
        </mxCell>
        <mxCell id="xtY8qUKaFHS1ZsebeAdu-18" style="edgeStyle=none;rounded=0;orthogonalLoop=1;jettySize=auto;html=1;exitX=1;exitY=0.5;exitDx=0;exitDy=0;startArrow=none;startFill=0;" edge="1" parent="1" source="xtY8qUKaFHS1ZsebeAdu-4" target="xtY8qUKaFHS1ZsebeAdu-16">
          <mxGeometry relative="1" as="geometry" />
        </mxCell>
        <mxCell id="xtY8qUKaFHS1ZsebeAdu-4" value="Step 4&lt;br&gt;&quot;Result&quot;" style="whiteSpace=wrap;html=1;aspect=fixed;" vertex="1" parent="1">
          <mxGeometry x="669" y="665" width="80" height="80" as="geometry" />
        </mxCell>
        <mxCell id="xtY8qUKaFHS1ZsebeAdu-10" value="Submit&lt;br&gt;Toets&lt;br&gt;Request&lt;br&gt;api" style="ellipse;whiteSpace=wrap;html=1;aspect=fixed;" vertex="1" parent="1">
          <mxGeometry x="651" y="775.9999999999998" width="56" height="56" as="geometry" />
        </mxCell>
        <mxCell id="xtY8qUKaFHS1ZsebeAdu-14" style="edgeStyle=none;rounded=0;orthogonalLoop=1;jettySize=auto;html=1;exitX=0.5;exitY=0;exitDx=0;exitDy=0;startArrow=classic;startFill=1;" edge="1" parent="1" source="xtY8qUKaFHS1ZsebeAdu-12" target="xtY8qUKaFHS1ZsebeAdu-4">
          <mxGeometry relative="1" as="geometry" />
        </mxCell>
        <mxCell id="xtY8qUKaFHS1ZsebeAdu-12" value="Create&lt;br&gt;Summary&lt;br&gt;PDF&lt;br&gt;api" style="ellipse;whiteSpace=wrap;html=1;aspect=fixed;" vertex="1" parent="1">
          <mxGeometry x="714" y="775.9999999999998" width="56" height="56" as="geometry" />
        </mxCell>
        <mxCell id="xtY8qUKaFHS1ZsebeAdu-17" style="edgeStyle=none;rounded=0;orthogonalLoop=1;jettySize=auto;html=1;exitX=1;exitY=0.5;exitDx=0;exitDy=0;startArrow=none;startFill=0;" edge="1" parent="1" source="xtY8qUKaFHS1ZsebeAdu-15" target="xtY8qUKaFHS1ZsebeAdu-1">
          <mxGeometry relative="1" as="geometry" />
        </mxCell>
        <mxCell id="xtY8qUKaFHS1ZsebeAdu-20" style="edgeStyle=none;rounded=0;orthogonalLoop=1;jettySize=auto;html=1;exitX=0.5;exitY=1;exitDx=0;exitDy=0;entryX=0.5;entryY=0;entryDx=0;entryDy=0;startArrow=classic;startFill=1;" edge="1" parent="1" source="xtY8qUKaFHS1ZsebeAdu-15" target="xtY8qUKaFHS1ZsebeAdu-19">
          <mxGeometry relative="1" as="geometry" />
        </mxCell>
        <mxCell id="xtY8qUKaFHS1ZsebeAdu-15" value="contract&lt;br&gt;dashboard&lt;br&gt;(AIP)" style="whiteSpace=wrap;html=1;aspect=fixed;dashed=1;" vertex="1" parent="1">
          <mxGeometry x="125" y="665" width="80" height="80" as="geometry" />
        </mxCell>
        <mxCell id="xtY8qUKaFHS1ZsebeAdu-16" value="contract&lt;br&gt;dashboard&lt;br&gt;(AIP)" style="whiteSpace=wrap;html=1;aspect=fixed;dashed=1;" vertex="1" parent="1">
          <mxGeometry x="790" y="665" width="80" height="80" as="geometry" />
        </mxCell>
        <mxCell id="xtY8qUKaFHS1ZsebeAdu-19" value="Get&lt;br&gt;Contract&lt;br&gt;Details&lt;br&gt;api" style="ellipse;whiteSpace=wrap;html=1;aspect=fixed;" vertex="1" parent="1">
          <mxGeometry x="137" y="776" width="56" height="56" as="geometry" />
        </mxCell>
        <mxCell id="xtY8qUKaFHS1ZsebeAdu-22" value="&lt;b&gt;OHA BeheerToets (AIP UI) Flow scenario:&lt;/b&gt;" style="text;html=1;" vertex="1" parent="1">
          <mxGeometry x="373.9982352941176" y="632.0023529411766" width="243" height="28" as="geometry" />
        </mxCell>
        <mxCell id="xtY8qUKaFHS1ZsebeAdu-25" style="edgeStyle=none;rounded=0;orthogonalLoop=1;jettySize=auto;html=1;exitX=0.5;exitY=0.5;exitDx=0;exitDy=0;exitPerimeter=0;entryX=0;entryY=0.5;entryDx=0;entryDy=0;startArrow=none;startFill=0;" edge="1" parent="1" source="xtY8qUKaFHS1ZsebeAdu-24" target="xtY8qUKaFHS1ZsebeAdu-15">
          <mxGeometry relative="1" as="geometry" />
        </mxCell>
        <mxCell id="xtY8qUKaFHS1ZsebeAdu-24" value="Agent" style="shape=umlActor;verticalLabelPosition=bottom;labelBackgroundColor=#ffffff;verticalAlign=top;html=1;outlineConnect=0;" vertex="1" parent="1">
          <mxGeometry x="40" y="675" width="30" height="60" as="geometry" />
        </mxCell>
        <mxCell id="xtY8qUKaFHS1ZsebeAdu-26" value="" style="shape=image;verticalLabelPosition=bottom;labelBackgroundColor=#ffffff;verticalAlign=top;aspect=fixed;imageAspect=0;image=data:image/png,iVBORw0KGgoAAAANSUhEUgAAAggAAAHECAYAAABcPtIxAAAgAElEQVR4XuydCZjN1RvHX/su+05MlojKUtJOWVKUUlH/RDsRbVJRtNqiIpJWLbIUUqmIJCRLimwtiOyFsW8z/+fz6kx3rjtz74x7527veZ55Zube8zvL95zfeb/nPe9532yJiYnJYskQMAQMAUPAEDAEDAEPBLIZQbD5YAgYAoaAIWAIGALeCBhBsDlhCBgChoAhYAgYAicgYATBJoUhYAgYAoaAIWAIGEGwOWAIGAKGgCFgCBgC/hEwDYJ/jCyHIWAIGAKGgCEQdwgYQYi7IbcOGwKGgCFgCBgC/hEwguAfI8thCBgChoAhYAjEHQJGEOJuyK3DhoAhYAgYAoaAfwSMIPjHyHIYAoaAIWAIGAJxh4ARhLgbcuuwIWAIGAKGgCHgH4GQEwRffpyz+W+X5TAEDAFDwBAwBAyBMCIQUoKwMfGITP9jT6ruQQ5uPauYZDOWEMZht6oNAUPAEDAEDIH0EThpgnDoaJJ8uXKHtK5T6oSajiUly8Fjx3UIQ+ZvlwcaldS/C+TKbuNiCBgChoAhYAgYAhGMwEkRhD0Hj8rDk9bI0eRkef2mM9Lt5vPfbZNHL/yPRCQlJ8vPWw/KoWPJUr1YHimaL4ckJYus23VISubPKVv3HpWyhXNJcrJIwdzHCcWGxCNSsXAu/fvP3UdkY+JhyZYtm1QonCvl8wjG2ppmCBgChoAhYAhEDQKZJgjb9x6WByauksL5csrTrapJsfzHBXdayZsgDF2wQ84pl08K5souczfsl7vrF5Mjx5Ll/q82yYUVC0jdMvm0qCQRqVMqr/790g/bpfu5JWXngWMyefVuObd8fn1myZYDctvZxaIGdGuoIWAIGAKGgCEQ6QhkmiB0fGeZHElKlpHta0nhvDn99tObIAz7YYd0O7eEPoewr1s6n5QskFMe+GqzjGhZTrJnyyY/bz0gnFA4sjBg3jZ55PxSMmX1bmmaUEjy/3tU8caP/8jtdY0g+B0Ey2AIGAKGgCFgCASIQKYJwoeLt8ioORukT8sEaVK9uN/qvAnCk99slVol8+hzW/YelSurFZZyhXJKr6+3yMstyunnaRGEVxbtkLvqFZdc2Y9bOhpB8Au/ZTAEDAFDwBAwBDKEQKYJArV8umy7DJy+Vh5uVkVa1T5ugJhW8iYIby/9R26uUzQle84c2eTAkaR0CUL/uduk1wWlZNSSv/VIwQhChsbaMhsChoAhYAgYAgEjcFIEgVrm/L5TXv5mvUy4/ewMEYTes7ZIj4YlJE/O7HLwaJIaJu73IggYIS7fdkhtDVbuOCifrtkjz19WRr7feEBy5RBJKJJb/tx9WOZt3C+dG/jXYgSMimU0BAwBQ8AQMATiHIGTJgiB4jdvw345v2L+lOyb9x6V7/7cJ0eTkiVXjmxy7emF1d7gm7X7pOlpBVPyTfhltyRnS5aaJfLIwaPJck65/HIsOVk+XZ0oew4nSdlCueTXfw7JPfWNIAQ6FpbPEDAEDAFDwBDwh0CWEQRfDVEPCcmSrtMk8qTlU4nvjh5LlveW7ZROdovB31jb94aAIWAIGAKGQMAIhJUgBNxKr4yr/z4kK7cfFBwxJR5OkksrF5QqRXJntjh7zhAwBAwBQ8AQMAS8EIhKgoDzJBwsHT6WLHlyiNoxWDIEDAFDwBAwBAyB4CEQlQQheN23kgwBQ8AQMAQMAUPAFwJGEGxeGAKGgCFgCBgChsAJCBhBsElhCBgChoAhYAgYAkYQbA4YAoaAIWAIGAKGgH8ETIPgHyPLYQgYAoaAIWAIxB0CRhDibsitw4aAIWAIGAKGgH8EjCD4x8hyGAKGgCFgCBgCcYeAEYS4G3LrsCFgCBgChoAh4B8BIwj+MbIchoAhYAgYAoZA3CFgBCHuhtw6bAgYAoaAIWAI+EfACIJ/jCyHIWAIGAKGgCEQdwgYQYi7IbcOGwKGgCFgCBgC/hEwguAfI8thCBgChoAhYAjEHQJGEOJuyK3DhoAhYAgYAoaAfwSMIPjHyHIYAoaAIWAIGAJxh4ARhLgbcuuwIWAIGAKGgCHgHwEjCP4xshyGgCFgCBgChkDcIWAEIe6G3DpsCBgChoAhYAj4R8AIgn+MLIchYAgYAoaAIRB3CEQVQdh76JjsOXRUsmfLJqUK5ZZsPoYrKVlk14EjUix/roAG88ixJDmWJJI3V/YA8yfLoaNJUjBPjoDyhyvTsaRkAa9T8uUMVxOsXkPAEDAEDIEoRiDTBGH0dxulTd3SUqJAakF85FiyDJ25Tno2rRJUWNb+fUCe++IPyZkTQZ4sL7etKblynEgRtu89LN3GrZQPbz8roPqnrdwh2ZJFWtQqkZL/9+375bSS+VP+/2PHAUkokU////a3nbJs816596KKAZUfrkzg9eLMdfLS9TXD1QSr1xAwBAwBQyCKEcg0QWj+8iIZ3q6WVCv1nyAFhwNHkuTsZ+fK6r4XBRWW/l/+IWWK5JGODcunW+6GXQelzcglsujR8wOq/80Ff0nBnDnkhvplUvI3GrxA5j/UMOX/S15cKLN7nKP/T/5pmyzdtEf6XnFaQOUHKxNEpmmN4pIzuy+9yYm1QGL6TF4jkzvXC1YTrBxDwBAwBAyBOEIgagjCfRNWyj0XVZRaZQqGnCBs3HVQKhTJm1LPX7sPSvlTjv8fLoLQ4Pn5MuehhpIvwKMQIwhx9BZbVw0BQ8AQCAECWUIQ9h0+Jos3JErigaN6Jn5BQhG1I/BMHA0s/WuPHDqaLGUL55K6FU4Rt1netf+IPDJljdzWqIJUL5Vfd9GF8h4/Wz+SlCw/bdwj/+w/IgVy55DDx5Lk4YmrUmkQsDNYtmmvbNp9SArnzSnnVSkiuf89nvClQVizbb/W49Jv2/dL1X+PHHwRhBVb9kpCifySV48/Tkzb9x6RnzclysEjSVKmcB6pV6GQZPPo/587D0qlonkFYvLr9v2SJ0d2Oa8K/c8mx5KTFbfGQ3+QaV0bqK1EwTw5U45Xtuw5JD//tVcOHjmmmNQpV0iPfXwRhP1Hjgl925J4SO0uKhfPK2d4Ea7k5GR9FqySk0WK5Mspp5XIrzYflgwBQ8AQMATiB4GQEwSEUa8pa6TcKXmlZKHcsnX3IVn39wF545baKtBJSzYkSv8v10qtsgWlUL4csuHvg3JK/pzSu0WC5MqRXXpOWi1zf9spNcoUVILR6LSickPd0vrs7e8ul5KFc0vFYvnk6LEkWbfjgMz59Z8UggA56Dp+pRTNl0uPKDbtPCRbEw/JO7fW0ed9EYSrXv1RPr2nbsosaPvGTzLxX5sGT4KQLCIDv1orR5OT5ZGmVXyq/1dt2yePTV4jtcsXlkJ5c8i6HfulUJ6c0v+a6inlXzt6qVQpkU+yJYmULpJbft26XyoXzyePNU+QzbsPyQsz1smUn7bKVXVKSY7s2eT+yypL+SJ5BGLyxNTf5JLqxSRnjmyy+8BRaVGzhJxdoZBPgvDZL9vl61V/S7ECubUtqzbvk9PLFJDujU9NaUv3iauUPFUpkV8gC9hfFMybQ/q1rBo/b4X11BAwBAwBQ0BOiiBcW7e0lD0lTyoYDx9NlkenrJFf+x23QRg4fa3kyJFN7m98asqO+Pkv/5AzyhaUNmcdF/K3jlkmd1xQQS46raj+zy2BZsMWyeibz5DqpQrInoNH5eFJazQPO3t20blzZJd1/xyUR6eslrdvqSN5/t29sxu/9tX/bBDGLt4sv23bL480q6LPYET55Ge/yXV1S0v9ioV9EoSLXlwoc/61OaA9TV9ZLNPvra9tcwShT/MEGT77T8Hm4amrqkr+XCfeamAHfsWIxfJ4iwS5MKGooDRAm9Jt3AoV8uz2SecM/F5Gta+lwppyVmzZJw9/tEo+u7e+JCUny/7DSXLR4AXyVfdz9IihQO7sqoHo/9VauaR6UWlUucgJU9mXBuHg0SRBx5H7X6y27jksV72yWBb2aqTPz127S8Yt2iIDr6mecqtjyZ+J8t7izTKkTQ17XQwBQ8AQMATiCIGTIgjnJRSR4gVTq56PHkuWkd+ul1/7Xaww3vTmT9Kn5WlS00OVzVXFuz9cIR/ceqbmufjFhfJN9wapjh1env2nnFo0r1x9ZinN0238SulySSWpWbpAyvB8sGiz/LPviHS9pFLKZ95Gije/9bN0bVwplRBdtH63fLH6b+ndLCFTBGHRxkSpeEoe+WXzXhnUpkYKOfGeNxx31Or7nfz4+PkpRyLkmbBki/z+9wHp9e9Nj6tH/yhT7vxPY8ENhC4f/CLTujVIKbLec/Nk7sPnpbJBGDB9rR5ttDmr1Anai0BsEGjfOc/Pl596X6D1dP9olbQ6o6RcfnrxlHqNIMTRamBdNQQMAUPAA4GTIgiB3GK4asRiefOWOiecYTd+eZHMuq+BoKZv8tJCmdX9+C0Blz5dvl027Dwonf+9TuiLIIyY86cUyZNLbjq3bJoEodWIJVK/yilStvB/mo4dew/Ljv1HZGibGpkiCO/8sEk27zwocx9uKDm8bCk8+8CO/Yy+38mKvhemIhFfrfxbUPe/1PZ0zZ5ZgsBRzQMfrZZTi+WV2uUKyUVVi6i9AMcQvgjCgSPHZNaaf2TN9v1y+FiyHD6aJBMWbk4hCG1HL5VHmleRcyqdYgTBlglDwBAwBOIcgSwhCG91qCMlvTQNjiCgQr8MsuBNEH7ZLn/+fVC6XHzc34AvgvDKnA1SPF9OadcgbYLQesQSaVGnpFQs+t+tBMqrUDSv1C1fKFMEYd66XWpL0bZeabnqjFJ6dOArhZogUCdHOks2Jsri9btl2oodct+llaRZzRI+CcLjU9aoUWfzWiXV1gNDxXveW55CEFqNXCL9rqoq9SoWNoIQ5wuDdd8QMAQMgZAThPZv/CRPXHWa1Cz93/VEzuFv/+AX+bDj8SOGi4b+IN/2ODeVoB02+0+pcEoeaXP2cTsFXwRhzA+b5PCRJLVNcMn7iOHG15fKQ81S74o9h92XkWIgNggPNqksV7yySF5sW1MaVPpPoHqWnXLE0Pt8NUx0iSOGX//eL481TTgpDYL39F22aY+88u0GebVdLZ8E4dwB82VG93P0JoeSC68jhvZv/SzdLqkk5yf8Z9NgRwy2SBgChoAhEJ8IhJwgcE6OAWGPfy3lMdx74vPf5JxKhaV1neP2BRgp3n1RBTm/ynEjRfJc+MICeadjHala4vh1Q18EARuAITPXyRs319Y8XAkcPXejvD5nQ8othpHfbVBPifhQ8JXeWbiJB+XW8/5zwBQIQcBRUuLBo3Lp0IUy/o6zUq5BetbB8UnTlxdJ/6urSYNTj6vtjyYlS4cxy6TPFQkppCmQI4b6z8+T2Q80TNfFM1dJxy7cLIOvraH2Eb0mrZapXY4bV5LwpTDrgXOl0L9uon/cmCgd316WokFAI7P/0DF5+PLKKc9wJDH1l+1mpBif64P12hAwBOIYgZATBPwbcE5eME92qVQkr9484Pz7lRtrSv5/rzni/6Dvp79J1RL5pGj+XPLz5r16P//R5lxzPK6/90UQIBKtRy1RElH+lDzy644DcmrxvPLx4i0pBGHPoWPSeewvej2ySrF8gtp//c6D8mzr6lKqYC5BSD708RppXK2o/K9hOalcLJ8EShBo16qt++TeD1fKWx1qqy8D7/T7jv3S5cMV6uCpWP6csmzzPjmjTAF54sqqKbEkAiEI141eqkabPHRu5VOkXf2yMnXZNvl02XZt87GkJJm3LlH6tExQg0xuKLQYtkjaNSgjF1crJo2qFJG+n/8ua3fsl2ol88v6nYek3Cm5ZfKPW1MIAoTnlneWqb3IKXlyyo4DR+TgoWNSrlheIwhxvEhY1w0BQyA+Ecg0QdiaeFiKFch1QjwEhPYmPA96eCJESP+2bZ86MypeILfUKJ1f8nldC8Rw8Ndt++TA0ST1YuiM7dyw/L3viKrGveMvcIsBq3925vgOKF4gl2zbc1jKeVy/RPD9vuOA/LPvsPpewCcDfgQw5sMG4seNe3TnzNl7gTw5ZHPioVRGjc1eWSxf/XvNcf/hY6qaL5LvvxgU+CooWiBXmo6S6BvOlvYfSZJyhfNIQsl8euXSJdrr6YiIvvy994iULvzfDRH6v3rrXn2uaqkC6sCI2yBrdxyQHXuP6O2GSsXzSdnCufU2COOwZts+wQvkmThPKphbr4+u2bpPcJhUsWg+tQvZDlZF/jPg3LX/qGzde0iSkkSK5s+pfhAm/rTVCEJ8rg/Wa0PAEIhjBDJNEOIFMzwKPjb1V3n7f8ePMeItfbVyhyzckCiPNztuL2HJEDAEDAFDID4QMIKQxjhjP4D3wvFLtqr9wsVVj9tHxHL69vedsmXXIdWu5MyRXV0yv7Ngk9pQ4LDKkiFgCBgChkD8IGAEIR2CMGL2n3Jh1aKqok/H3UHMzBaOQZZuSJSNuw9J4qGjUjRvTjk/oajUT+OWRsx03DpiCBgChoAhcAICRhBsUhgChoAhYAgYAoaAEQSbA4aAIWAIGAKGgCHgHwHTIPjHyHIYAoaAIWAIGAJxh4ARhLgbcuuwIWAIGAKGgCHgHwEjCP4xshyGgCFgCBgChkDcIWAEIe6G3DpsCBgChoAhYAj4R8AIgn+MLIchYAgYAoaAIRB3CBhBiLshtw4bAoaAIWAIGAL+ETCC4B8jy2EIGAKGgCFgCMQdAkYQ4m7IrcOGgCFgCBgChoB/BIwg+MfIchgChoAhYAgYAnGHgBGEuBty67AhYAgYAoaAIeAfASMI/jGyHIaAIWAIGAKGQNwhYAQh7obcOmwIGAKGgCFgCPhHwAiCf4wshyFgCBgChoAhEHcIGEGIuyG3DhsChoAhYAgYAv4RMILgHyPLYQgYAoaAIWAIxB0CmSIIefPmjTugrMOGgCFgCASKwJEjR+TYsWMBZU9KShJ+LBkCWY1Azpw5060yUwShUKFCWd0Pq88QMAQMgahB4MCBA3L06NGA2ku+IkWKSLZs2QLKb5kMgWAgAInds2eP5MqVK83ijCAEA2krwxAwBAwBDwQyQhDQHpxyyimGnyGQ5Qj8/fffkjt3biMIWY68VWgIGAJxi4ARhLgd+qjquBGEqBoua6whYAjEAgJGEGJhFGO/D0YQYn+MrYeGgCEQYQgYQYiwAbHm+ETACIJNDEPAEDAEshgBIwhZDLhVlykEjCBkCjZ7yBAwBAyBzCNgBCHz2NmTWYdARBGEvYeOyu4DR+Xw0STJni2b5M2dXYrnzy05c9j1HqYE152waE5OTtYrT9mzZxd/91SzbipFR03gB45gSALDHDly6G9LGUfAe06CJT+W0kfACILNkGhAICIIwo69h2XsD3/J7FU7ZO2OA7LnwBHJlTO7FCuQS86qWFhuOLe8NKxSVPLkjM9F/NChQ7J9+3bZvXu38DeLMosw10+4/lSqVCnJkyeP3ZNO543DKQ2TfdeuXbJv3z7hji8kizu++O0oVqyYYmlEwf+yBblCwLk56Zz+QFZxkgaOJUuWTPd6lP9aYjuHEYTYHt9Y6V1YCQJ7uBkrdkjP8cvl1OL5pN15FeWCqkWldKE8sv/wMflt+z75+pft8vbcP+XC6sVlyI11pFDe+NmdsBBv27ZN/vzzz3Q9qSHoypcvL+XKlTOS4OPNhBD88ccfsn///nTfWwRb1apVTSuTDkpoYDZu3ChbtmxJ0cL4yg5ZqFSpkhIFSyciYATBZkU0IBBWgvDBgr+k7+RV8mzbWnLN2WUkl4+jBDTB2/celp4TfpHftu6Vrx68QPLnjn1NAuRgw4YNsnnz5oDnEYtxlSpVjCR4IJaYmChr1qwJ2K0tGoU6deqk6z0s4AGJsYyQg99//13++eefgHrmiCvk1VJqBIwg2IyIBgTCRhB+/muPXDd8gbzW8Wy5tHoJ8edF9MCRY9Jj7HLZlnhIJnU9NxqwPak27tixQxfjjKaKFSuqJsGS6HHMihUr5PDhwxmCI3/+/FKrVi07S/dCDU1WRggrj0MSqlevrq6CLf2HQCgIwqpVq2TevHmqdeTI7Prrr5eiRYsa7IZAphEIG0FoMmieXFu/rNzbmB1vYO3/e98RueC5b2V0p7pyUdViPh/ifB5VMufK0eq7nDPdn3/+2aevdvrET1rBW7BNqF27tp4Fp5UoPz3DPBavfPnypXrcBZaJJgM0jhU4J/dO/jAkP5oYbDuyOjF3ISgZTZAh1PqhGh/a9csvv2QqaBBambPOOitkbXNY0UbmbTS898EmCMz122+/XW655RYpUaKEbN26Va655poMH/GgcXv00UfllVdeyegUPCH/2rVrZc6cOdKhQ4eTLssKCA8CYSEI2/Yclvr9vpGfn2osRfP/Fwjin/2H5b35G+STHzfJc21ry7mVT2S/k5ZslienrJKlfS/Vmw6eadq0aTJr1ixVDyNAn376aRk+fLhOUIzP9u7dKxUqVMgQ0itXrpSaNWvqM6+++qrcc889GXo+M5nT0h5wplu4cGFdAAmisW7dOp/Fo0FAk+CdNm3apMcWYMERRoMGDXwa5c2fP18aNWqU6nHqYhcYLTtBCM2PP/54wtECO6uyZcsqhgcPHpT169erwaJ3Yg6dffbZJ+DDfGBH7ATxggULpGHDhpkZZn2GeYpgK1iwoBLCb7/9Vpo0aZLh8pYuXSoJCQk6P0KR0iJb1AVWp512muKYltbr9NNPPyGeAKSG/ro4A+x2q1Wrlunm8+5fcMEFahyJQW9G4xfs3Lkzy3bcwSYIo0aNUs1Bnz59TsCPd553H+LJ5oG5Dz7Mf7RrfAcZ5iho7ty50qlTJ/nkk0/UHod1giMlngWfypUrC+8ARIJNCOVhIE2inr/++kvfDdaW999/X77++mu5//77tSzKgLiwlvB+FihQQI/zWI9oO59TFmW698uVyXvC2oNmjzb9+uuvSv4hQ7yPCDIwdeseayjziz7xjqP5YtPIWk59q1ev1k0Av3n/ILD0h3WV/jGXqe+MM87I9HyMhQfDQhD6fbZGNu88KK/+78xUGC5ct0u6vPej/Lplr0y8t6FcXvPEHRw3Hmr0miHrX2gmBfOkDkXZqlUref3113WxZQKXKVNGvvzySzn//PPlo48+0oly66236iTipUDgko8Jx2LCWTUGbfzNYsv/vXr1kmeffVZq1KghM2fOlMsvv1wnDxOUxOQM9lVDJi3W9t6J/iBEeLFKly6tAtCXcON7XjLv9MUXX+gCyi6L55yWAAwoF9xYXOmnE1J8R14M08CNl4aFhRecz1nUWXC8y+Cl4yXntwv2wQvL87ygvMz8sCDQXspjHMDfkaCTecFYPBBq3olFgoWABQehxi7Hl5aB51i8vHfzixYtUuLgxvyrr76Sxo0bKxbkpQ8sMnwPLvSR+tx3njjRdxZM2slCxHgwRmAPxsxDymERh9zytyMALPBg5sYMosIcpX8Ow5PBz/vZn376SdvkKyH8aRd9XbZsmc88xYsXVyHhmchPf6+44grtyzfffCPNmzfXeUP/XJAi/icvcwlMmXP0kb6DN3mZV5999pm+n5T1/fffS7169bRdjA35SWDqymfOMzfBjPdt4cKFcs4552ieUGshgk0QHnzwQe07WHomNJHPP/+8Yo+ghxz37t1b3/ERI0bohgk8eA/efPNN6devn3z88cfyv//9T7p27aqC+4knntDnEKLt2rVTEsJ4sibUr19funTpIsuXL5e+ffuqAOc9p84777xTCSNrTo8ePXT8Hn74Yalbt67mgYSgYeDv7t27p7SRdQ4tBmNyxx13aB3MPTYuvG+M7Ysvvihnnnmm8D5SL3PlhRdekHfffVe7/9BDD8nVV1+thJOyeZd5z5hfN954o/7mecaZY8j77rtPmjVrpvUyp5gXvJ+PP/54MF+jqCsrLATh4kHz5MGmCXL12WVSLxhHjsmm3QelQb+ZMqGLb4KAj4TS3afJbwObSvECqaNMMZkY5PPOO0+ZIxMfNswEZ/LQ2WuvvVYXYAT/6NGjdYFigjKZBgwYoJPihx9+0In2xhtvyNtvvy3t27eXzp07S7du3WTkyJECW8eKm8nFosyEC2ZC8Kd3bg7bP/XUU/XlcPf5PetHkPBSeafp06dL06ZNU32MwGIRYSHlb15mdmJghFBC8KCRQJDxQiHsvvvuOyUoCEIWHgQ8AsSzDPrAAgyeLCSMBzjTbhYXXnIWYhYB6mSR5wzVtf1kVeXsRmizr0S97HohgRA9dkZpCT7vXShChOdc++gH2hYE44UXXqgY/vbbbzo3GEMwoR0XXXSRLtDUx2csvBdffLH2mV0XOEJYp0yZosSF5yEVEFDGANwRcix4LF7U54k3c5a81OXmZTDnJHPNHTN5lsvcYC44gpcWQWAeQKx8EQTePeYxZJ6Fm10j/aCfCPdzzz1XZsyYoYQfQQCZYqcLfmD86aef6nvtCALv+eLFi3WceD8hgPxQFqSCz5ivjCGfX3LJJbprZNwYB7fLDCZ+3mUFmyDcddddcvPNN2tfPBPCnHeOtZFdNfMQYQ6eEydOVEELMYUYgRnrGvMZwkDis8cee0yPHDwJHu828/mmm27Sslg7eXchKi5hD0EdQ4YM0Y/ee+89nbfk5XnGkfInTZqkmzGICxs3SAhz/uWXX9b14+6779b8rBN8zpqOQIeMoDVesmSJPPnkk3LZZZfJ2LFjdT0CB8qG8JCP4xbGHDkwbtw41fq98847ArkdP368vpeQAdY9tM70Nb0ohqGcG5FUdlgIwum9Z8pbnepKo9NOPELYfeCIVO75RZoEISk5WYrd+7n8OqCplCyUmiDwArBYsFiiSmZyMNmYoAhBJgFMlnxMsA8++ECmTp2qgqtt27Ypd+QhDrBiBDGfM8lJHFWMGTNGBQGTnQQ7ZVEPZkIIpWVjwMvMpEawupfYu2526Lzw3gl1Hy8Rgh0tBQIFQYpmgJd79uzZ+j1MnRcFtRz1sGDyAqPO44XlJYeEIWS0048AACAASURBVNjcThYCgNBlR3DppZfqeTULNAIWjNu0aaP1QhacgOQlhNUjZJya0R3nnCyeLPZMbl+J3QT9pb0IaIS6rwQ+3kZejA1tdTtMFrSrrrpKd2QsSixWECnmG/13ZAihRF+dSpbdMiSOchBOjBcCjAWvdevW2hwWWLRflM33zFt+WLggE55jRn2QCASmr7E/WTx5p7zJKHMRLNklQhIQuOzGfBEJp3b2JgjMDXBymhbazjxkt0pC+Fx33XU6h/iO95o56LRc9JcdL++5Iwie31MG7xLvOO1ifCAWzp8I89QRX+piF54VKdgEgfWMecgGyTMhXCFPEC924YwXYwR+vKvPPPOMZudIABLoiyAMGzZMN0oktABskHi3wJUy+HnggQd0/kP2XPImCAMHDtT3Cc2CJ0GApFA37z6f847xfkBqsKuAsHgSBMaP94J3x2mGIBNsBDkCgRAMHjxY120MNZkz/DDmkM8JEybo+gW5J6HJ4IiO5zlG/vzzz3VthFSw1sdzCgtBaPHSArm1UQVpf27q60/4Rdi577Cc1utL+bBzQ2lWs9QJBowHjyRJ2R7T5PeBzdSRkq/EQuB2GdgMBEIQmHRMciYpiwbPsGPxJgi8KLxkTFwSOxLYezATk5XJ7J0QDJADXhYEW1okAsGHetU7oZ5jAQEfdhH0jxfGnSGSH0GGhgCCAAFgQWDX6kkQWGBYrB1BYLGjTic03Q6N58AH0sbL5ggCO2OEJYSDxA4H4YjGgr+DkdKyuHdt5DeCAQKUli0Hc8H7TN/XEQOYQkjAFWFPX1nkIEAsiE7rAEFl50LdLJ6QBciGJ0FAo8VRGYk8LI4sWBACEoQL7YP3mKGxcSp5FshgJ3ZjzDvPhKYDAsTYuSMVBAzYeyfIBHh7JuYNhKhly5YquBl7iCbCy/lPgFjQHxYq5ioEiZ2kI7GBEATKZmzADG0Rc5edKMcSlOuO3aKZILAr51279957U2GM1hOtIaSTdxktDu8vm4XMEASeYw1EM0F9aE8pB40shBeB7BLzF2E8dOhQ/QihzRoGmfEkCBAOxpHjXxLvBGsTazflsWnxJAgtWrRQjYY7ImVcmYfMCY5NeFd4JyEsaBtoo5t7rFPMrbQIAvWzYWAOssHkvYrnFBaC8Oqc9fLFz9tk8r2pd7mbEw/KYx/9IpMWb5KLa5SU7k1Pk8tOT+1oZUviIan92Nfy55Dmkj93aqdJLATsRmHKTCoE7W233abCnh0zakleIBZoVGNoCphoLBicxaFRQM0Fk+Rci0l65ZVX6gvBQk9ZaBAgDZyxURcCJtj3vNmRsRB6JxZKzktZ5HhhENC+iARCzddOHBUuOzMWRgQ+uz5nK0Bf3O0PXg60AEwO2sLuggWV+nkZvQkCKj0SOLgyEKRpEQRwheBAYli42fnSp2ASBMqjj96JNlIf+KEhQqOR1tU9Z7jkWUZaBIGdDIIccsRiBCmgLupgR8xOBCJC3WANEWC3ylxE+LK4Igy9CQI7JRZliALfs4unvfztOWbuiIE+U29GjXH9LYJojbwdTbFAOzUsWijaRP0Ifu/EmHuTP/IxJyFUzAMENPYcLMrsBFn0qZP57GxZIK/gy7sNJhAS5iYaBPBHhc47wjEZ2EFcUGFDulCJ0z7mJe8OBA3cOMKgLzxP/YxRtNkgoEFix92/f38l3hyd8N6iXUFQYyjIGvjcc89pn9ks+CIIrDs8B6lnDvH+e2oQJk+erDtujhIog/IpB4NEyB5EgfWX+YzNF/kgEwhtDFI5tmV9ZT5h24Xanw3ZoEGD9H8SBJhxhFwwdpAc8rBeM9YQDeYLY44wZ+wg43wGMYCwUheJfjDH0PRCQmgb605aBIF3kfnD/MCOgf/jOYWFIKAFSOg5XRY+cYmUL/rfdbxtew7J4C/+W9Rb1y0nF1Ytnmp8Xpz+h0z5abPMfOgC8b4d+dprr+kug0UL9sgke+utt1S9ze4KVRbqTAxwuOHAwsPEYuFCoKJeIh+LHSo5vufMiokFseAogWtE7AQ5t0LIsCOE0QYzpSXcEAgwYJdYHH0RBF5GjIq8E0KMYwleElg6wgyBz8vnDLbQvLCQsECCDZoGEgQJ5s2Ci4ACM8gRZfE5+TzLYBz4nMWW71jUaSvPIDTZcfNyu2uZfMcPqsBgJASpLyNOduDO+A+hw2LkSxPj1OfegoLdMQunc8kM0UGrQ2IhQvPCGLljIv6mTwg85hH5+c0izmckhB24MgfRJjgDU8YKS2tIDO2kLYwt7fceM9oF4aNdCEG0XMFM/nwguLrTIlvMK3acnomFHLLpjhOoA7LJnOEdc0aYzFP6C6FA+wTeYIIwAwuOuVj0mbfMcYzgEE4QAp7le94VxoEymbvgTGKc+Z9xYhxItNXzPQsmjq6sYB8xMIcRight5hdYc0zKZgB7Kt43BB/rF+sb/Uf4cyxBQkBjQMiYsDby/rCjZ32A4LJmknhnOSrgczYRCHiMGXl32TyhGeQ7bAJIbLSYtxzPsiaxHjNuzBfqBHPGFDLg7FdYdzp27KjrCdoFZ1zpCAJtYK2mHMYP7YizuYJQkN9peBlvnmM+8I6xXtNn1nVnL0G9EALWcerjvSMvmhdvm45QzIVILjMsBAFAbh69WEoWyiMv3HCG5MgemCOEP3bsl8b9v5NvH7tITi2W+p6+A5kJ7gLweAPPZHHnx7xQ7j68y+fOWD2FghMe3j76yUt5wb7BQFso1y2IGZ08kCN3xp7Ws776zmeuj544+MIkvXIzEsvAVzsy2t/08iNEePF9JcbYl4Gny+vrWl56dUGU2Ek5I1AIAip4d2vD81lPrPk8EIzTmpsZwftksOW9YiH1dWvGX7kIAIRuRtvqjZMv3LwJnAtk5nB133t+nhbmgYyDv74G+n2wCYKr1wXPYl3yxNvzGMhfG11AuLQMhdNaEynXe/319J+ChhCMIYHOcJfNg/PZ4o6w3JrKZoK/mT8QGjQJaDddgggFGhzMxV7xt17TPtcHf3n94RgL34eNIHBU0HLofLnt4lOl8yWV/ZKEv3YdlI5vLJFzE4rJs22O79hiOXFen56dQVpCD/YdrF14tOPLgsOukoUpIwnVtrtJEOhz7FwZM1TpJIgJ5aTnsCrQsiMln7urnh6x8m4rQgqNiLfjrUjpU7jaESqCEK7+BFIvRxtcN0fbgBDmaBctRVrHOZABtHLkBy+OjW+44YZAqrI8QUIgbASB9s//fac88OFyaVKzhNx9aWWp5EMrwLXGeb//I09PXSPVyxSUl9vX8RmzIUh4RFQxqNCcUxF/DWMhRnWI6i7U56f+2hJJ37OwoEp11s7+2saOH5J1stcs/dUTjd9DDLi1wU9aBrKe/UJNzxGJufs9cbTjkSAwZyDr/KDpdEbKab0L5Id0kx+CaRufrF81wkoQ6O6qLXvl6U9Wy1+7DkjDhGJyUfXiUrZwHtl3+Jj8unWvzFq5QzhaaNewvNxzaRXJ7SOgU9bDlnU1ct7GeT7n5b4WZcgALw+Gac5pUda1LjpqQhXJcYMz7vTVardggWNGVeHRgUJwWglJYNGAJHCs4kubAH6cgWOrwbm3JSMINgeiE4GwEwRgO5qULLPX/C0zV2yXRet3y47Eg5I3d06pUCyvXHZ6CWlWu7RULu7b5iA6Yc9YqyEGnMfx43YenI9hDAQpYNdrO17/mLIbwWCN3+5MEmKAMSoYmhrcP4YuB8c3zEdIl/MxgMYADMES40EjWmnjGWwNAmTNHWdBiD1tEBgrfpwHUXfLhPFi/rO+uPZgH8Cznho31hk+c6p+nnEeRnmOd4myzbFQ4O9PtOSMCIIQLWBZOw0BQ8AQCAYCwSYI3GDAlwuJ2zsck6G9QcPD9W8IBP4eIHQcWzp/ABxJcsMB4oyQR4MGwcMoEANDbqVwuwbbGq6Y8psbIVzbdYar1IOm82RikgQDUysj+AgYQQg+plaiIWAIGALpIpBVBIHjSQQ6WgUIArcH0Dp67vadx05fDXY+PCAY3MzhaiPXUbEfoFzIAdeZISXc/DEtXGxNfCMIsTWe1htDwBCIAgSCTRBwpuWM+LhtgpMojh25Lo3bYK4TQhCwHXExSripw/EavhPQHNAmhLzzV4E/ARwu4UsCTQQEgaMGPuM6L1oH52YbLQS+KDIaQTMKhiqum2gEIa6H3zpvCBgC4UAg2ASBnb6LwQEpQNC7+BwIdYgBjuNcJFfnbp1jAZ7lN3YHOK4iH8mVib0Bdjs4NYIEYPCL1gBC4hyNoanA06rzqhoOTK3O4CNgBCH4mFqJhoAhYAiE/YiBG04QAQQ/3jXRIJCcwSEEAjfTHDHwm5tSeEaEIHAkAdHAKyUJrQHeCHHDjB0DNgd4oMT4Ee0CLsghGWaYGlsT3whCbI2n9cYQMASiAIFgaxDwcunca6Puxy27u2mA4Md9MN4sMTpk149gd/Eu0C7wGQlX9Bw7YGeAsaILVkZ+jikc6cD5FXYMLpgR2oRgBVqLguGLmyYaQYibobaOGgKGQKQgEGyCkJF+Bepm3leZnu7q+T7U7tIz0i/LG3wEjCAEH1Mr0RAwBAyBLD1iMLgNgVAgYAQhFKhamYaAIWAIpINAODUINjCGQKAIGEEIFCnLZwgYAoZAkBAwghAkIK2YkCJgBCGk8FrhhoAhYAiciIARBJsV0YCAEYRoGCVroyFgCMQUAkYQYmo4Y7YzRhBidmitY4aAIRCpCBhBiNSRsXZ5IhB2goBDDgKHcL820ESQEBx14FM8Uh1zsACYX/JAR9TynQwCnpH8TqYcezbrEMgIQcAHgfNpkHUttJoMAZG9e/emG6UzW2JiYnJGgQokBjyOO3DuATlA4Ldu3TqganhZRo8eLeedd546/ghXiNEdO3ZowJK00htvvCG33357QH1ymfB1jrtUz/CsgRaAMxTCsuJ/HacnYIp/9bTSH3/8oU5RojlBLvHiRr8DTUx4FltfxNKFvQ2Fu9hQEsbJkyfLNddcEygEli8CEMgoQQjFnIwAGKwJEY4ALrbTk7EhIwhDhw6VLl266OLOwhyoJoAFftq0aXL99deHDVqEUt++faVfv35ptuGZZ56R3r17Z6iNkKYqVaqoFzMCpZx99tkBP0+wlrPOOktJC9oVHJqgYUkr4ToVf+rRnPDsxvypVq1awN34+OOP5YorrvCp3WFu4RnO+aIPuNAAMhIqlxC5oUiZIaOhaIeVGTgCGSEIrI8WBClwbC1n8BAI2xHDZ599JldeeWWqnrArnz9/vn5GWFE0EatWrZJff/1VY5U3btxY5syZo36/iVbmfIuTHx/iRBZDI3HVVVfpkQVCk4hjCErKw5f4oUOHtDy+96zf01UpBIDvaQ8CiEAkq1ev1s8uu+wyDXzy/PPPy2233aaLviM3hD+lbTxPfPZBgwZpHPZZs2apVgCBX7FixZQ+05ddu3bprr9ly5Yat51gKBMmTNDgKPg2hzBQL8cVtBFhyIIxY8YMJQGVKlXSZ4YMGaJR29CskKgP96dgwN+4RvXUGIAFrlHRPEC4wA3B6EgFWPI9fts9CRyfQyzoE/UTFIYgLfSFyURfmjVrpgSHHzAkTv3333+v/tzZCV1yySUaKpbvwJKxbdKkSaq5AI7kYbwojwhz+IynDtrI+I8ZM0bHhz6DE3OHMslLnW4c8EXP9+AzYMAAadSokT5Dv+gH44fmhjmEm1rKBlOX+AyNDH2HgKG5wB898xFXtIwbAWyol88Yr+nTp2t0PDBHk/P+++/LmWeeqXPAua9dt26durPlx8056qEfjP3MmTNTxo72k598EEnKIR99WLlypfTs2VOJJX1gzC6//HIdUwLsMMfADYzTI43BW1asJH8IGEHwh5B9HwkIhI0gECkMQcECx4LLQv/KK6+oVoHPJk2apFqCt956Szp27Kh+wBH2hChlUW/VqpUSCJfcOSyLJ4soC7NT61IWAoPFs3jx4rpQs6Ai5FlMSePGjdP6WEznzp2r5b/55pv6GXloHwIOQYgwf/DBB2XgwIGp2vDhhx9KmzZtVCXz1FNPyZNPPimjRo2Sa6+9VoU1QqJDhw5aH+1FqD/22GMpwoG+durUSaOwIVwRYhAFhC7Pjx07VutGECH0qefpp5+Wxx9/XCZOnKhCDsIAAaJ8cAUvhNrDDz+swtGRGfoBIfjhhx9U2HirkcCbOsAKHGgXmgmEEEc7YExZI0eOlK5du2o7GQ+EKQKZMSTYC0dH/P3NN9+oGhySgwAlD3jSHwS/5+6anTz5IXrs6EuXLq19/uKLL+SGG25QAgU2jDXHBbSRZ+jT1VdfrfghHPE7D258z7HUXXfdJa+99pq2A5LDvKBeyqc/kBWEPcLV035k6tSpSjBq1qyp4zds2DAlNfQVf/aff/65tGvXTvtL32grxAYy9+KLL8o999yjIXUhDxAkNwbMNYQ++H/66aeKBQQHMorQp6/sHF999VXp3Lmzkj3qZZwhn4wp40bf7rzzTp1r/OaIieMq5jBtveWWWxQfyiRMr6XwI2AEIfxjYC3wj0DYCAICgF09DXj33XeVBCDoEAokBBQLIEKUhRmBwo6VXT+7MwSxZ2JHjDBhB8YuHQHCIomQQJAgFFiMISUkyAFC3glGBCWLMe3hGYT6I488oiSA/ymLxZ+/WYS7desmw4cPT9UGBJc7+nBHDAgHFmqEAhHVunfvnrLDR1ghnNCElClTRskQgpidKu0gwhpC1JsgIGQgWCwykBnICEKKnXGpUqVUEEAQ0L6wOyWB2XPPPacChuQIAgKfnSjBXXjeESYEnCNICFyEGFoLNCjsgCFpYI3A79WrlwpLF8yFNlAPQhrNBZoAhKaLMw8hoE+0jVjzjA/9d0KZ9kNOCD7jCAJl0VeIGvHsXfQ5sGB+/PXXXzp+ro4FCxZo6FrIEX2iDsgnGN94441KLBDoEAKEPEQBksM8gCB4JjQsHEtAIu6++24lGSR257QZQc+OH60CRIA20X7ayrzp0aOH0B5fwvmTTz5Rovbee+8p/sxHMGPeQAyYNxAA5gXHFLwzJP5nfJiT7oihT58+qv1gXLAxoV7mBcSDtjHO/G0p/AgYQQj/GFgL/CMQNoIwfvx43SGREDYIoJdeekl39iQWRoQMC67bXbLQsyv2RRBYJNnFsfNGWEAQUPPXr19fd6iol9MjCKjap0yZokICgc4LTH7Usq+//rq2lZ0w7U6LIHj2yREECAGCmYXcHRW4YUGIUC8kCCGLhiAQgoDgZ2eMUEfgIbR8EQRwcKp7hBtC0d0WcQSBttBX8oIdgtcl2oOwh1SxOwUbSBNGcajg2YWjNfnf//4nL7zwgpImiAVEyJMgINCpl7IgeY5sOYKAxoMduiMnEATGGZsKRxAQnJAEfkgIX75zBIHdP9/RJupA8LMTR6MAGSHRf0+C4PpOexGokJ+MEgTIEnUzR9n9I8RpE/OZ3w53yJUvggAJKFu2rGLM/CPdeuutSiSZF7SdPIwxpNARhDvuuEOJgydB4B1o3759qvfHCIL/RTAcOYwghAN1qzOjCISNICB82DUiJBYvXixt27bVM1d37s3Oj7NbBBDn3Ahnjg0QIr4IAoslZIAdPscIEAR2Zyy+nGezc0qPIAAcCzILMDtXDBARhqjNESqoqVGxI8xQVd9///1y8803qxBzQosFnjaze+dv1MBffvmlCiZ2twhNiAoJIcauku/I88ADD+guEoLAjhuVM7HY2U0idMiHihkhjIYBYU15qL85ykAgcgSDPQDf0QZ20wgvyAQCF3xccgQBDQXn5yxYtJHjA5doH7YDCCvO+xkTcGRHjWCExFEOWIAdAhAhCWaeBAEShJaIMQE/fkNI+KlatapqIcDSJfJ/9NFH+h1koUWLFjpPOEYBE9rKeNBuxpa/mTcc4bCTR+CjlWFyoyHh2AUyxrNOTc+cohzU8eRjDCFHECF28pTjyFR6GgTwol7mAbYq7OCZo2AHgXO4Q1bBhPnoaYcCcUD7xY0X8kB6wBtcmfOQDDBD8DutGzi9/fbbOk8hZGhW0LahweJIiXZXqFBByZI3QXDHVhaaN6NLZXDzG0EILp5WWmgQCBtBYMFGmPOisDiziKMaZbfJb3abCCFUo/yw6LG4spNEAHpb9SKYEOBOlY1ARQBRD2pgBAyLtVNBUw91ePpfQFgiTNm1IXxY4BGCgETZLNZ8BwGhbHec4XaonPMi3Kmbzzg+YJEnLws5bXBXI9lZQlhoE4ZjtIUdPPVDHiAB1AfhcEaa7Jqp25XpdtQIAtqCoKEc8lE+WLm6aZPntUfaChYc3dBXhBpj4MgO0w2SwfjQPoS224XTF4gH9VAHfeJ/+sKY8Tm4ga070gBvMKQd4MpOnfwIMj4DK88EjtSNsEf4Qiapg/ZSp+sLO39wpd/edTi7AsoBS+ql7ZAGnmduUA9jhcDkN/UxXxDibm7QbmdYCAlwAt7ZuDA/OGbgOeogOdLFZ/QR/PiMfriyvDGmPDAHb9pOXcwFxpexcmPmnqM88OWHMeC94D1gflAPfXZtpxywY2yYK+49CM2yYqX6Q8AIgj+E7PtIQCBsBCESOm9tCB8CaDwQ7L58MSDEsR+AtPDbGX6Gr7VWsyEQXASMIAQXTystNAgYQQgNrlaqHwTYUUMAfDnhYAfstEtoVPixZAjEEgJGEGJpNGO3L0YQYndsrWeGgCEQoQgEmyBwJAWp5piN4yaOutzRZ3oQYP/laZsUSrhoH9pBbg1Zig4EjCBExzhZKw0BQyCGEAg2QcCmh1tg3J7Btomrs9zq8pe4DcMtraxIGBljC8M1Y0vRgYARhOgYJ2ulIWAIxBACwSYIONLCfb0zCsYxHLfCuBmDoSxO4rhKi88QDKC5Po5xMFdn8aeB5gHvthix3nTTTWrQipEsRruQDTQN3JLCUBbHW2gnuO5MHgx8uRqOkTdXsPlNedzMoTxuaWFMjK8UbgoZQYieiWwEIXrGylpqCBgCMYJAsAkCjt2IM+IS13zxPIow5oebMVyj/uCDD/RWEH/TBrQHEAQ0CVylRbgj9NE+4O8FHyf4UuH/Z599Vo8xuFWFUzuu3WJojMM48mJT9Oijj8pDDz2kxAN/HtwEwkMu30MouLpsBCF6JrERhOgZK2upIWAIxAgCwSYI1113nfoO8SYICH58yXDdmb9xL47vDrQICG8+wzMo/jtwxoXmAB8uON2iPHyccHUWr7PvvPOOloMfGLQN+N/AQynaCAgEV40hIPhE4TgBnxxcveY6M47m7Igh+iavEYToGzNrsSFgCEQ5AsEmCBwxIJidu3KOE3AKhgYAgoDPjLQIAk7mcC+ON1QSN4vwk4GjOeKsQBDQCuCcC+0CLrxxyoVTN0gFhIL6IAg4wKMcRxDwOcKNJbQTRhCib9IaQYi+MbMWGwKGQJQjEGyCgL0BAh2X39gNcDWYeB7s7D0JAh5asSkgSBzCHn8kHDPgydWFi8cJHU7TPAkC5dx3332qecDxF55v8X7Kb442sFvwRRAoC1fzuDynbo4r7IgheiavEYToGStrqSFgCMQIAsEmCNwOwE03mgIENRE/XbhvbjbgoROX5nyOISE/zu077tmxPcAQES+bHEHgtRY35BggokEgtD3aAheuneMJbk7gvRNPn87LLTYKuDF3HmXxGorbcI4uIB3YQpDXUnQgYAQhOsbJWmkIGAIxhECwCUIooUFIPPHEE2psaCm+EDCCEF/jbb01BAyBCEAgmggCRobYEnADwVJ8IWAEIb7G23prCBgCEYBANBGECIDLmhAmBIwghAl4q9YQMATiFwEjCPE79tHUcyMI0TRa1lZDwBCICQSCSRAwAOR2wZlnnqnYjBs3Tq6//noNuY5TI2IzcNUQ40D8FHD1kVDnhE/HcDC9xC2HevXq+cWcslyoc7+ZfWT47rvv9AaGr4QBJdcu3RXOtMqnDAQawd6uueYa9fOAR8f58+crFuCAvweXMOzkWiZ4WPKNgBEEmxmGgCFgCGQxAsEkCNgI4Nlw0KBBGusAnwRcUeSqI74RuH2waNEiwbsi3g3ff/99DZqE+2VcH6eXyMt1Rn+Jmwpcn8xsevnll/Uapa+0dOlSJR/czkgvcYMCUgBZglRAEvD2yM0JyAFun/nt0owZM9Snw/LlyzPb7Jh/zghCzA+xddAQMAQiDYFgEgT69uKLL6qwo1yEYkJCgtSoUUPjM+ANEeHJdURPgsDOGj8F7LiJ6Ai5QBhz1bF27dq6a3cEgRgMLj4Du3GENV4VuSqJAOZaY+nSpVVjwfO7du1S8sFVS65UImgKFSqkWg7aSJ7Vq1cricHjoidB+Oeff9SXAwKdK5o8S1sgQmhCqJfolQ0aNPA5rDyPd8hevXqp74WGDRtq3z0TeOC/4a233lLyZCmCNAg46GCAPBP3c2F/wUwny2qD2RYryxAwBAwBh0CwCcL06dOlcePGqk6vW7eusDu+6qqrNOZCx44d1RkSvz0JAtoFHBctWLBA1ey4TUa4Fi9eXJ0rDRgwQI8k0CCgbZg2bZo0bdpUPSo2a9ZMHSYRgInjDARthw4d1KUyRIWgUXhkxPkSz0II8MPArh6/CvhsgFwgpJ0bZzQI5Ovdu7c6U8KnA8QF/wx16tTR4wLcO6MhWbhwoeA90jNBHohkSZvoAxoT+lG+fHnBHwNhpiFEEI2RI0dKly5d9MiBsixFEEFAcDNB8PWNWgo22q1bt4AIAo45mLSozfwlAoc8//zzJ2SDKT/11FM6EWG4lgwBQ8AQyEoEgk0Q2I2zaydeArvxPn36qHvjnTt3qkAdMWKExlDwdcSA4K9WrZrMmjVLCQCpe/fu6k6ZHwgC6zVrL1EicaWMMGftJGYDURvZsfMboTtq1CgtgxgNEAlIB+1YsWKFlClTRgM8UR9p6tSpqukgsBRlYsvggjvxPaQAjQFEAy0FdaKZQKizqfRM1IE24JdfkTr5vQAAIABJREFUflHy0bJlS40FAWlA4wBGyA36y2YUbQYkCpfUaEEsnYhAWI8YYLQPP/yweu7CaAaf3rBYzolgtIQU5TNChaIya926tarMCDgCW2VCQjKYBKi3CEMKc+ZMiVCmlNW/f38tA9UXairqxJgFz2CooJj8hCO94oorVAXmmDAqOyYuk+3SSy9VVsoLiPtS2mXJEDAEDIHMIhBsgoD6/8knn9SQzMRW6Nu3rwpT1it20+kRBIQzPg5YB513RWwUWBPZgZ8sQUDgs3tHI4DBoydBQFhXqVJFyQQEAX8LkA1IDQnNwbx5804gCBCBtI4YODKBHGGs6ZkgNmgrqAstAgmX02hEAjHEzOxYR/NzEUMQsJZlIrGrZ4Lj2xsVFaogmC/E4Omnn9azKYQ+Bjm4CGUi4OubSQELhBHCelFjMbnRIKDawgKWcKO4DoWBornAkIcyCDoyePBgtfKFQROpDHIASeAcjPb07NlTNRdoOsxhSDRPeWu7IRB+BIJNEOgR2gHWSlTr7PhZv9AokCAI7J45AsBynx21M1J0BIFN0HnnnadrHt+zyWLDxGaNTVdmNQgI6latWikB4VgCgoDRIbYMCG3a5bTCCG7WdgQ3beCognXbW4PgiyBAkigTjQVy45lnnlG7CXd0zWcQBM+EFsKOGNJ+HyKGICCUYb8Qg5UrV+oEZ7Adq2UyO+HM7/Hjx2uvmLxMNs620CLAQimL5I4YOLfinA0VExON2OQYxqBV4GWAIXsTBLQaqMSwlYBoQBAgIldeeaWWYckQMAQMgcwiEAqC4K12//bbb/VIgOS+Y7ODloArhajsOZ+HGGAsyFrI5ipnzpz6N7YFrH0cB7DGIrzZYLGjx/APTaq7BomdALtwjAIhAyRuE7DO8hnaVzTDaAQweCQ/grtixYralu+//16PF6699lqN8cDaDEFAa8wRA2u7E/aQDD6j7Z6JthJzAu0HZAlywbEJGmYSxMkdbbjn0FZAqiz5RiBiCAJEAPUSwpvJQqAQEpPYTTgmMRPNkyAwIZiIXPNBy4DhCozYEYRnn31WtQxoH7DQRbOQHkEg7Onnn3+uxx5GEOy1MQQMgVAgEAqCEEg7Ebqk9AzC0cayOSMFkj/Qel2dCH8EtWc9lOH5P3+TP6OG676ey2xZgfQr1vNEDEHgZgP2CBi1IOCHDRumZ2iEIYX5wQqxG4DFIsSxJUDQYyQD2yXcKWywTZs2aouA/QHkAYKAWo1n0EJwfYdzOVRL2DAQrhTtAVHKeClmz55tBCHWZ731zxAIMwLhIghh7rZWj6aY2wSWIh+BsBIESAH3U1EFwVTRIGDIgi0AhiuwRz5D9YQAx16Az7ApQL3F//zN9RY8gqFyQp3EsQBGjTBHrGYpg3MpVxdGO1i28hlloPLif/JiLIkaDVsHVHFcu2FC8yxaDa7L0F5LhoAhYAhkFoF4JgiZxcyey3oEwkoQsr67VqMhYAgYAuFHwAhC+MfAWuAfASMI/jGyHIaAIWAIBBUBIwhBhdMKCxECRhBCBKwVawgYAoZAWggEmyBwXMpRq0sct2K35e84lHYkJiaqszpcItesWdMGzRBIQSBsBAGbA2cha+MReQhkxoI48nphLTIEIhOBYBMEvCd6XvvjeiAOgbiWnV7CCR12XPiP4Yo4vmgsGQIOgbAQBG4iYPiHEaGlyEQAI1Asjc0VdWSOj7UquhEINkFwLo89UXHXBvntNmS815B/3M3zGbe9uM7tCAJEg8/xhUDiWXdNkGd5znmS9Szf/c1NMLeue34W3aMVv60PC0HAFwFujfGUaCkyEcApCYuBXUeKzPGxVkU3AllBEHBDf91116m3Qo4QOILgNhbOiPAwi5MiYh3gGRaCgNahXbt2Gm2ROAY4JOK6OTe38D+Dx0NcOOPJlsS1cq6ak4d1Ak+LXbt2leHDh+szEA02g+SxFJ0IhIUgcF0Qp0eOpUYndLHdahYTXm7coloyBAyB4CIQbIKAW2VH5jlqwJ8MMQbwF4NWAOGOwOYYAcGOd1n8y+BkDjfKEASczOGS2fmDwXshxMBFPOQ6OIQCEsEmj+vnlIkzu+bNm6v/Glw1E6wJosDVdOLdOEIRXASttKxAwAhCVqAchXUYQYjCQbMmRw0CwSYIHDEQU4bk7IccQUDoE2URo8V7771XQz9jkHj66adrIDxvGwSOBnA8x/EiPmNwLof3Q9zfQwAgBnibxbEdbpGJi4C2AQ0C7plpC9/RjkceeUTDRluKTgSMIETnuIW81UYQQg6xVRDHCISCIOAZ1jOlRxCIp4BmgBg1aAA8jRQdQcBhHE7niOdAfrQFBLrjyABndi4QHmGWXcwH6h84cKARhBiZ20YQYmQgg90NIwjBRtTKMwT+QyDYBIFoiLiWd4kgdtOnT9dbDB9//LHaHXBkiFt5IiVil4ANAp5iXcCkIUOGyEMPPaREgGBK9evXlzfffFPtxbgK2aFDB7UbI0Ik4ZgJ4YznWf4nki5/49b+vffe0wB4aBCc9sLGPjoRMIIQneMW8lYbQQg5xFZBHCMQbIKQUSjREkAOiGPjL9HWfPnypZsNo2bKMrsyf2hG1/cRQxCwmKcxTDTCgsJaSXyOCgtjubQmH05CmMCekxg2vX37dn2G8jyv67n4CnzuKxG7gdgOLvEyURb1YFyJ8Q7JVx2waJeXfJzhwaQx8KF/OC6hXndVKFKnixGESB0Za1csIBBughALGFofQo9AxBCETz75RFViCFXCMr/77rsq8DGo4e9XX301TS9fhHLmWg4qMUcqMMbhag9qNVRo/E9C2JOfOOHffPPNCQgj9K+55pqUkNFkgBgMGjRISQrxz3meOOdEhSROOsY/nNdhBUxsddRyqNww5KFfBQsW1O+wLoY80E7ilUdyMoIQyaNjbYt2BIwgRPsIxkf7I4YgcGYFEWC3jTDGGpaIjghnzs0I4ezLDSg7dq7wQCRc7HB264SGHjdunI4iZfE3u3au4syfP1/DOvsiCAsXLpQZM2bIo48+mmoGOGchlMM53GWXXabGOq4O7htPmDAhJY46beGsj+s+WPd+9tlncv/99yuZ4DwQ8hDJyQhCJI+OtS3aETCCEO0jGB/tjxiC0KpVK5k6daqijlENu/5zzjlH/3/88ccFoxtfBAGhjJYAguESXhqfe+65lOs1N954oxIIrHWxsMX6tm3btj4JAkIcDQG7fu+EcIeMvPTSS2qQA5Fxd3whIc6gh+cQsBjyfPvtt3rnGM1B+/bttUgshj/99NOInmFGECJ6eKxxUY6AEYQoH8A4aX5EEoRJkyapOp4rNf4IApa1Q4cO1bP+tAgCjj1wFoKTEIgGRxeQjokTJ+r9XZfWr18v/fr1U0HvK40cOVK1B1wnAri0CAJ2ExCRBg0aSNOmTfXoBMcijiB4kqFInWdGECJ1ZKxdsYCAEYRYGMXY70PEEASE59ixYxVxvIKxy8YFaHoEAWNCrtSgyvdMHDGw03///ff1Y7QFaBAoH80Awg9vXxCBs88+O+VRCMCZZ56pHsa8E0cTaAL69OmjJAEPY9g1uDo4Nhg/frwaReLidOXKldK7d28t5pdffpGvv/5aCQoGktg4cOQQyckIQiSPjrUt2hEwghDtIxgf7Y8YgoCwRihh7IcwR/BzkwF7AXb/OPXAbai73cDwcGeXz/D05ZlQ/3OsgOYAo0O8hT355JMpWbgV0aZNm1RHDM7LGG5IcTXqmf766y/VPHCMgaEi9WGkyJ1fPqPdaB8gD3glwyARz2UQicsvv1zbjEEjd5I3btyoNxpwQRrJyQhCJI+OtS3aETCCEO0jGB/tjxiCgCDHqxf2AwjghIQEHQFuDXB+T2Jn72kbwE0A3Hr6uv7IMzj74HojtgwED3GJXTx1XXjhhSmfYbDITt/ddvAcfo4HKMul6tWrqwEldeBmFCLAcQhEADuHn376KSVvo0aNtO5169Zp+bQfd6WB3D8O5xQ0ghBO9K3uWEfACEKsj3Bs9C9iCEJm4MQ/eLVq1TLz6AnPEPaUYCf4ObB03MjSgjXZTDAEQoOAEYTQ4GqlBheBqCYIwYXCSvNEwAiCzQdDIHQIGEEIHbZWcvAQMIIQPCxjqiQjCDE1nNaZCEPACEKEDYg1xycCRhBsYvhEwAiCTQxDIHQIGEEIHbZWcvAQCAtBwLiP836M+yxFJgLExMCYk1sblgwBQyC4CEQTQXCxaFwMmowggdE2Pmo8Y+Fk5PmM5MU4HM+7jRs3TvUY1+YxaMf9vaWMIRAWgsDLgQByrpEz1mTLnRUIEPKVWxmRftsiK7CwOgyBYCMQbIKA91euWbvEVWv8umQ20T6ELQ7r+E35OKTLaMLlPZ5rM0MuMloX7vEfeOABKVmyZKpHie3z888/a7hqSxlDICwEgSbiqwBmaikyEcAXhIVujcyxsVZFPwLBJgjehOCKK66Qd955R326ED2WDdnWrVv1f0g/flsqV64sZcqU0bV4xYoV6jOGW2HstHHkhmDF1wv/44IeXzJc+a5Xr55qf9EOUA7fc/UbD7Jc5aYcrqrnz59fWrdurYH22Gxs27ZN/cds2LBB/cHQljp16mg+/sffDAH2CICH7xrnWn/16tVSo0YN2bRpkz5LfyiHurl1tnnzZv0Mfzl9+/YVsMUfDe0566yztHz82IwZM+YEHzfRP5NC24OwEYTQdstKNwQMAUMgchEINkHAEdtdd92V0mEcsRGP5quvvlJPswSHgyD8+OOPUrZsWdUM4B327bfflilTpugOG8H8ww8/qIdZXMVzjRwPsfh4QdATkC4xMVGj0fI/2gF8zOCrBgKBkMdjLGWj7h89erR6jUVw4/gO1/OQi+7duwvu5olTQzA74u707NlThTntw909ju4IqIf2YsiQIRo878EHH1TPtxAXjg0gA2wyIRkQBurHOR59wtMtxID2Qx4IrAce3tqFyJ0hkdEyIwiRMQ7WCkPAEIgjBEJBEDx9whAMDmGNoCVKLqr3AQMGqJAdNmyYahGuvvpqeeWVV1QzgMBll49bemLUrFq1Sl3LE3cGrUGPHj1UyBPOHvfyTzzxhLqzhxhAPrAzQHBz1o/mEQKAu3nqr1WrlgpwhLRntFw85kI+IC7URV4C9eF99oUXXpC33npLRowYoY7lOPKEyNxxxx1KeiAbH374oTq2O/3005UUQARw0c+z/H3ppZcq+UBTQb/xuguZsBQ4AkYQAsfKchoChoAhEBQEgk0QfB0xTJs2TZ599lmpVKmS8PcHH3ygWobhw4frEQG7a+wK0DBwHIFgR8DztzdBwK09QtgRBJ5ht04wOlLDhg31KIEdvrMtg1ygdSAg3kUXXaT5cZ2PlgDB7ggCTuo++eSTlOi9HI9wfIFGgLZOnjxZPd9S/8UXX6z1NWvWTNsOUUErwJEIWgNc3+ONl/LwjksbcNPfqVMn1Tjgyt9S4AgYQQgcK8tpCBgChkBQEMgqgsD5PaHoEaRoByAI7KYxGuR/duUcJ+B2njN/zuoRrJzrc9SAYIVMeBMEtA4E2GO3TiJCLjv+M844Q3AvTyA9/nZaimeeeUaNBNFSUN9TTz2l2gsICdoMNAWQDmLicASCXQQkAGLB0cDvv/8u/fv3V2NJvqP9aEUcQYBkoPl4+OGH1dYBsrN8+XK1ZUBzAFFB45AVtymCMkEipBAjCBEyENYMQ8AQiB8Egk0Q2GVz3u8Swh0bAVTzCOkJEyaoIEZFj0Eh9SOAEeYIAbQGBJG77LLLUqLZujP7m266SY8RIBrkRQPAMcDUqVM1Rk3evHlTjBmplx08Qp4jCI43CIyH4OfYAwJCXez2MTikjUTQJQIuAr1AgQKqXYBwvPTSS1onNg30A60AdWNbQJ4ZM2ZoO3gGWwQ+g3RAcLBfoAwi6JLQpPBjKWMIGEHIGF6W2xAwBAyBk0Yg2AQhrQax80b1P2jQIM3ijhhy5Mgh/LiEAObHM5ItQpfjgvSuo3NTgGdcHsrgOc+yPdsGMcCAkaB1aB8wSHS2E95l+epTennGjRunfluaN2+uNxhcu5y2A1sFSxlDwAhCxvCy3IaAIWAInDQCWUUQOGJAYLsrg19++aXaDXiHtD/pDgVYANoFbi9AFLiiiBYjWGp/rlfy4+3cDVsGbmiEq88BQhOR2YwgROSwWKMMAUMglhHIKoIQyxha30KPgBGE0GNsNRgChoAhkAoBIwg2IaIBASMI0TBK1kZDwBCIKQSCTRCIm4LRHyp2jBHxO+CdsOgncT6PjQDxcPBf4J0QCjgo4mgC1Tw3D7wT1xUxcEwv0Sb6Wbhw4Zgau3jqjBGEeBpt66shYAhEBALBJgjcKMBAEKGPYyOu9Xkn8nBFEEdHXC+sUqWKukT2TNw24CohAY8gCLg4xo+Cd8KOYfr06eliCcng/J9bCjhDon24drYUPQgYQYiesbKWGgKGQIwgEGyCgD8AfAv4S+zqcWucVuAlIu2uW7cuxWmRKw9iwbMkrg9CEHBOxOdoLNBIuDzcaODqoydBwKsj1xNxzYyPAjQdEAZ8LLhnKZs6+D5Yhov+8LDv00fACILNEEPAEDAEshiBYBMErjHecsstfnfo/ggCtwwoi+uH7qoighyfBARlQvDjEpnjBeI/QAoIsIRrZfJwg2DPnj3q3wASgAYB98aQF8hAixYtVCOB22byorHg6iWOkiAQJG5eEAHSUvgRiBqCwGRj8uJBi0YzudK6a+sJK2oyVG5MYpd4OTmH4y7uySTKIHiJZ5zxnTt36ksEy/aV6ANexlDd8cJ4MnS8l8HGPdt6Mu2zZw0BQyAyEQg2QWAdmjlzpq51xD7AvbCv5I8gQAYI0oSjIdZOvC1SNjYHOExyCYdKBHtip48LZK4r4sgI0sAah+MmSIM7YnCOi9AgEG8B501oCnDchHMjfrp06aJr5+OPP25OjSJk2oaFIBCYA0FKYI01a9ZopC48aZFwx8mE876zygT97rvv1JUmKjImEedt/hJCFxeguPF0CU9beN9isgaaiFhGJDLPhHvPRYsWqbcvl2DCvDxVq1bVcz7qxlEH7aa9vEBEQ4OF8/JwPxmig19yzukIadqkSROfZ4iBttXyGQKGQGQjEGyC4HqLN0S8ByJwfW1S/BEEVw7kAJfFrJU4GOJvSIBLnjYIrNcQEiJCQijoG0cYrHWOIMyZM0fbQ5ClkSNHphgust5169ZNPyPwEynQ45LIHuHYaF1YCALaAEJ+jho1Sv19o27CcAZrWXyC406TiUVgEHbT+PSGgfLD5GHi4ZcbDQDxxzGCIZY4+QncQX6X+JzJhy9wVFdY5UI2qAs1GV69YN1Y8xJohLjpPMOLBhO+4IIL1A84JOaRRx7RCe7Ox2DasGY+o7y6deuqd7CWLVvqS0WfYN0ESkHoE90MskDQELyH4YqUICuEOYU5o1Eg3Cp4EKTEkiFgCMQmAsEmCO5mAmixPrIOIeS9byB4EwRU/GxQ2M2T0CA4r4h8h4tmAiRhQ0BchrQIwpVXXqnrHVEfESqs1ax569ev1/Vt3rx5Wg9BnXDbDNlwdVImhMIIQuTN9bAQBGAgCAe+tAkCgmBFQBLWE83A2LFj1Wc3LBWvWwTlQIh7EgTOqNito05jx87kglwQ9YszNPdiOIJA5DL8gkMU0GA4gsBnvBCzZs3Syc2kpT78mqMd4G9YLpa9RAYjIpknQaA8/IG7uOsY7kAQ8HcO4cBXOUFNICnff/+9xkaHFNBWzgwpD1UcRAjixIuNVoH2WjIEDIHYRCDYBAG1vTP8Yz1jzUEry47eM2EzwMaMuAUk4h9wREq8A9L+/fs16iNXE9HysgZXrlxZNy0cf/LD2si6PXjwYH2GowbcGxMMCc0vNghEVSTv6NGjNRYDBAYCgT0CmttJkybpMTEkBg0sRMRpYtG6epKR2JwB0dGrsBEEJi5RvYhRjvqf3whKJhIClt01TBi2yZ1eJrAnQUCIMhk5t4IUjBkzRuONI/zRKBALnARBYMdOuQTrIIgIwtwRBL4HhPHjx6vqH8FObHQmNudoaBZcqFJeAM+EBoG6ITPEWKeN3DV2BAEtAWFTeaHQlKDxoL2QEhIvASTHqQJfe+01JSsQEXMLGh0vkLXSEMgMAsEmCOz8Ee5scBDMJISvv3XEU2Pg+sFaiSaV9crzeQgIm6P0bL/Iw2bPJdrE/5SDRsK1je+pA8PE9GI9ZAZbeyZ4CISNICAwUamjgkJ9j+0BwpudOhOQ/4kLToJxcgbmSRBgokw4ztsgBezQEcwkVGKwXm+CQNkIcUcQ0FhQD+dnS5cuVbUXRwOo9ymPUKj4Cw+EIEAqiHvOFaHMEgTqQ1XnqXoL3lBbSYaAIRApCASbIERKv6wdsYVA2AgCRwYYKXImDxHgNyp4gomQUL2z44cFs4vHfoAdPCp9DP6wQSAcKUIeG4DevXtrGeQ/9dRTU24IuCMGHIdwDYfIZqj9sXFA9YWWAoKC6h+tQ3oEgbohGG7HjwYBDQcGh7169VK7CsgKBooce6CNSE+DQD/QFnC8ABHBngEtijHq2HrJrDeGgDcCRhBsTkQDAmEjCICDSp2z9hIlSqix4bJly5QYkDjXwmAPFdQNN9yg6i529ghQbAIQwGggiC2OISBWshgfIrw54+eWAonzMGwJ8AxGHs7WEhIS9PwMmwPq2bJliwp1fmjLwoULVQsAKaE87u2yu8fIEIGOISSJMzoIB4Y/3HCA8EAIOK6AdPAdRwp8zrkaJABC4eK2Y1TJeR9EBY0I4Uo5h/OnFoyGiWVtNAQMgbQRMIJgsyMaEAgrQfAHEOdjJM9Y4+ntrr3zp1e+5/mcr3M4X8/6ypdWHHUn5CEtOAnBiMjXtaNA6/aHlX1vCBgC0YOAEYToGat4bmlEE4RYGBi0FxUrVlQHT5YMAUPAEAABIwjHr1RiEGk2V5H7ThhBiNyxsZYZAoZAjCIQbILgrgmiGeUKONe+netijmFx2kbCUJvjT4QyR6h4ScyIw7hAhgOhwjVGtL38YCPGzTI2S/yNwTl2V4cPH1avshztWopMBIwgROa4WKsMAUMghhEINkHAnotr3tgx4SgOmyaX8HvAtXFspbB/wiCbq+P8xv4JDWcwEwQAWy6OWbnKSD2QEoQNBufuKiS30LgWzpV1S5GJgBGEyBwXa5UhYAjEMAKhIAjc6FqxYoXeqvK01WI3z1Vt1PkYZWPkjcB+8MEH1amct1E0DuzIj88CvMByuwsjbYQ9Pg1wguRum0EG8CnjDK8ZMk+CwP/cMENzwVVynOIRMRJDb0cQOH7FlT0O5yxFFgJGECJrPKw1hoAhEAcIBJsgcIWbuDbEYPBOfM4NMVT5aA5w7IbRNDeruJXlnSAQCO8qVaoogeA6Nu2FHEyfPl39xeDxFeKAwB8yZIh6VnTJmyBADnBTD9kgSBOu62kHdeDqnmvn3GYzO63Im/hGECJvTKxFhoAhEOMIBJsgcIyAWh9nbcQ78Ey4V8aHCwIfWwSuX7du3VqduvmK+ojxIHYMXbt21RgKEAKEO4L/n3/+Uc0DBIFIjASggyDgkj4tgkDoaFzo44bemyBgK4H/GKLbWoo8BIwgRN6YWIsMAUMgxhEINkFwNgj8xucLTto8r1BDIDh+QNOwa9cu9R/Drh37A19XrRH4fIdfGudLBn8zBNJzQekCIQiUjat7SALHFN4EAf83xMHBX4yva+AxPg0ivntGECJ+iKyBhoAhEGsIhIIg3HXXXepJlh09DtfY8aNRwIU9u3eODjBkJOFoDjsCbjMgoCEVnsnFsCEmzebNm+WNN95Q40eOBzhO8KdBoGxsGzCMLFOmjLRo0cInQcBIES0EgaUIIGVO4iJrpoedIHDVBbUV51FMboxrmCScd2Hxml5gkMiC0lpjCBgChkBgCASbIFCe24FzpMDOnd8EV4IEIKhZX12wJLQIRFMkYXzoPM96tt7zc9Zonicf9RCEid+s1/ztrlTyPPl2796tRbF+u6BPLlgTdgeEgKaN5CXP3r17NZ+lyEIgrAQBV8VMJCYGE9lZ3jJpIA5MUNinqZ4ia9JYawwBQ+DkEAg2QTi51mTd06z53Kq47bbbsq5SqynTCISNIOCgg8kCi01LrcS1HBpYrlw5nyQBhgyZICbDySbYLUw7LY2Fd6hSX/V5hzo92TbZ84aAIRCbCMQrQUCTQWJDaCnyEQgbQSBQEd60/EUuhCSgZSBCo2cisiPfoaaqXbu2nH322am+53NCSmNgw6QkUBJRIyEbnomyOf9CRYaqrGPHjicQFogI53RNmzZNd0RhxjgeIVEuZ2uWDAFDwBDwRiBeCYLNhOhCICwEAaGdkd02mgYca7ijBojBu+++q1d2IBjpBTxavny5CusLLrjA58hgfMN9Xu7lplUOxx1Y4GL4k156/fXX9eoPiXJ93TGOrulhrTUEDIFQIGAEIRSoWpnBRiAsBAEf4NgWBGqxioBGxe92/+zoP/nkE92t+9NA+CMIQ4cO1es+nhoK6sKRCCQGYlG5cmXhmhD1QzYgJpAJNA/kgVyQD1IAQdixY4fe+yU0NXeIsQKePXu29hctRtGiRQUNCB7Itm7dqv3AINOSIWAIxAcCRhDiY5yjvZdhIQjcpc1IgA6EMVa0CGoS/yOwsT0g0EitWrXStB3wRxC2bNmi2gE0FAh5vHkRopnrQe6OMEcUzz33nDoIoTyORiAR3LRISEjQ7yAGkBZ+Q2D69++v13awscAPOvePWRQ49uCO8ZVXXql3kamX44smTZpE+1yy9hsChkCACBhBCBAoyxZWBMJCEHD7yY7d3+7fIcORAkaNlSpVSgUWQhoPX3x/3XXX+QTSH0FwD3HvF9ej9913n0yePFk6dOiQUp7nEQPkBkNGtCBoHvgbAY8G4Icffkg5Yhg8eHCK+1GIgjvi4N7vY489Jp06dVKCQPr888+lZcuWYZ0IVrkhYAi6OtH7AAAgAElEQVRkHQJGELIOa6sp8wiEhSCgcmf3HWgccO7Ikh/VvK80cuRI6dy580kRBB6eM2eOXrlctWqVtG/fPl2CQJhSjgsgCDghwY0pbkmdDYInQcCpyD333KPlkR/NhxGEzE9ae9IQiHYEjCBE+wjGR/vDQhDY8bNjT0vge0NP9C+OF5zNAlcb8dSF+p4zfIQuKnu0Cfz2TN4aBEgAkcpcwmmHA2HhwoVqWEiZRBfjiIEjBG5AOCNFp0HgKGLmzJmah+hnBDTBrgAHIMQ8f++991RLwu0KCAxHIVztwfaCMo0gxMcLZr00BHwhYATB5kU0IBAWggAwGzduVIHp6YHLF2AcLTiviu57bBCIUOY8fbF7pyzK9I5tjhEhhMR5CkP4e0YNw6AQjQZlQgSwPYCAcBTASwwxQauAcSKEhM84GsEjGXkoHzsC7BIoi5/TTz9dj0TQMuATnSMK2ka5EATq2bBhQ0pbyVu4cOFomC/WRkPAEAgCAkYQggCiFRFyBMJGEBDIaBHY/SO8ve0REKYITtTxgfhLCDlSVoEhYAgYAkFCwAhCkIC0YkKKQNgIAr2CJNAANAEQAcgCn7Hj5+YAu2p27YEaM4YUKSvcEDAEDIEgIWAEIUhAWjEhRSCsBMH1DEIASeB6IAmy4EurEFIkrHBDwBAwBLIIASMIWQS0VXNSCEQEQTipHtjDhoAhYAhEGQIZIQhsoFzkxSjrpjU3ihFw/ofSi3WULTExMTmjfcRDoCVDwBAwBAwB3whkhCC4sM2GpSGQlQhATEnpeTw2gpCVI2J1GQKGQFwgkBGCEBeAWCejEgEjCFE5bNZoQ8AQiGQEjCBE8uhY2wJFIEsIAqoMQi07I0V8GpiRYqBDZPkMAUMg2hAwghBtI2bt9YVASAmCM4LgBgNul7nmSIIo8HPKKafoj11ztMlpCBgCsYSAEYRYGs347UvICALkAO+CkAI8FablKAmPhXgqNJIQv5PQem4IxBoCRhBibUTjsz8hIwh4UURr4M/V8s6dO5VA4J7YMxH+2X2Ge+MSJUro17g1JrmrGdu2bVNPjCTcJaORCHbCVTORJSExtJXIjiTukPL3rl279JrS2rVrNaiTJUPAEIhvBIwgxPf4x0rvQ0IQcKNMLAJvoZ8WaARrQrA6LQI2C8OGDZMePXpoiGViHrRt21Yfh3gQTrpFixbqlfHGG2+UcePG6bOvvvpqSlTFYA4QERxbtWql9VE/fxMTgtDRtHPgwIHSs2dPeemll6R79+7BrNrKMgQMgShEwAhCFA6aNfkEBEJCEDIT7jlfvnwpzkIcQbj11ltlzJgx0q1bt5S7mgRPuuuuu/Tz33//XZ588kkZOnSoahj69u0r/fr1O6GTlOdp/8DfaAScJoJ7oOSB2PAb7YTn3VAIwuuvv6750XgMGTJEnn76aQ3kRKAptBo84wgCRIKyXJ027wwBQyC+EDCCEF/jHau9DQlBYIdPKORA7QoQynv27EmJfugIAscMhFn2dszUpUsXGT58uAwePFjOP/98HZvTTjtNJk+eLJ07dz5hrN544w0N80y5AwYMkHvvvVfGjh2r+cqVKyetW7eW559/XsqXL6/HFNWqVVMNhUueBIHPICivvfaatGnTRiZNmiQPPfSQtsURBNpBxEd+LBkChkD8IWAEIf7GPBZ7HBKC8OOPP0rVqlUDxsvddiD0MglBjtBt0qSJqvO90+zZs6VRo0aqzn/llVdk4sSJSiIgCYRf9k4vvviidOjQQY89tmzZIs2aNUvJAlkYMWKE/tx5552qFYBEPPPMM2kSBAgK+SEn8+bNk06dOslbb72lBCEhIUHtIC6++OKA+28ZDQFDILYQMIIQW+MZr70JCUFYtWqVlC1bNl0Xjp6Ao6JH5c9u3hEEzvYxADzjjDOkXr16qcaHXT7GiYsXL5Z27dqp7QG+FRDUvtxGrl+/Xn7++WfVUlx//fV6u2LWrFnCDYopU6bI+PHjZfTo0UoQ9u7dK88995z++NIgQGbuueceGTVq1AkEASJCXyAd+HmwZAgYAvGJgBGE+Bz3WOt1SAhCYmKiCnzO5wNJnOtz1RE7BE+CgO3BO++8Iw0bNlSigLMlbkUghLE1uO2221RrwHEDqWvXrvrb3SrwrJsdP74XMCzkeOGGG27QIxDKePvttwMiCJCDFStWCBoMtAi+NAjXXXedkg5IhNkgBDL6lscQiD0EjCDE3pjGY49CQhAA8rffflOhn14gCEcG0Ahgs+ASBn4fffSR7vYhGuzwEehz587VYwcENccLGAqizl+4cKHedEA4893IkSNVgHsmyitdurRceOGFsnLlSlmyZIkShNWrVyvZmDp1qh5n8GK/++67amfgErcU3FVKSEzLli31SMMdNbgjBo46uG1B+bSnefPm8TinrM+GQNwjYAQh7qdATAAQMoKA0GcnX7Ro0TSNFbE1QHtQpkyZFO1Beqgi/AMxfIRg+CMmR44c0WOJk014iXzsscfU/sCSIWAIGAIgYATB5kEsIBAyggA4EAR+2G3jNAmhjZDnh2MCbAIgB/6cKUUy0N9++22KrUQkt9PaZggYAlmHgBGErMPaagodAiElCDQbIoDHQX6zsydBFLBPwHeBndOHbnCtZEPAEAgPAkYQwoO71RpcBEJOEILbXCvNEDAEDIHIR8AIQuSPkbXQPwJGEPxjZDkMAUPAEMgQAkYQMgSXZY5QBIwgROjAWLMMAUMgehEwghC9Y2ct/w8BIwg2GwwBQ8AQCDICRhCCDKgVFxYEjCCEBXar1BAwBGIZASMIsTy68dM3IwjxM9bWU0PAEMgiBIwgZBHQVk1IETCCEFJ4rXBDwBCIRwSMIMTjqMden40gxN6YWo8MAUMgzAgYQQjzAFj1QUHACEJQYLRCDAFDwBD4DwEjCDYbYgEBIwixMIrWB0PAEIgoBIwgRNRwWGMyiYARhEwCZ48ZAoaAIZAWAkYQbG7EAgJGEGJhFK0PhoAhEFEIGEGIqOGwxmQSASMImQTOHjMEDAFDwDQINgdiGQEjCLE8utY3Q8AQCAsCpkEIC+xWaZARCBlBWLt2rVSpUkWb++eff0rZsmUlV65cQW5+cIvbtm2blCpVKriFepVGHVu3bpU6deqkfLNs2TKpWLGiFClS5KTq/uOPPyRPnjxSvnz5lHIItV28eHHZtWuX5M+fXw4ePChLly6Vffv2Sb169aR06dInVac9bAgYAiciYATBZkUsIBAygtCoUSOZP3++LF68WF577TUZMmSIFChQIMOYffjhh9KuXbsMP5eZB/r37y+9evXKzKMBP/Pll1/KTz/9JD179kx55v7775c777xTatWqFVA5LD5Tpkw5AZeXX35ZatSoIc2bN08pZ/jw4dK1a1d577335MILL5S9e/fK999/r99Pnz5dxo0bF1CdlskQMAQCR8AIQuBYWc7IRSCkBGHy5MkqCAcMGCBlypSRw4cPy8SJE4Vd7XnnnScNGjRQIVWsWDFZsmSJnHbaaXLs2DFZvXq1Cky+GzRokNx2223Svn173R2TyEM527dvl0svvVRq164te/bskY8++kh3yG3atNGd8aeffqr52Vlfe+21UqFChZSRmDFjhpQsWVIWLFigO+4rr7xSpk2bJldccYW2c8KECbJz505p0aKFVK1aVT777DPNw2dz586V888/X9avXy9169aVpKQkyZ49u/6eOnWqtG7dWiAC9IO2NWnSRLJly6Z1O4LwwAMPyPjx4+XGG2+Uhx56KIUgvPvuu4oPWLRq1Up27NghmzZtkuXLl2sfO3bsKJ988olABu69995UJIHPdu/eLUWLFpXKlSvLVVddJTNnztT6IWvVq1dXbQLpyJEj2p+vvvoqcmentcwQiFIEjCBE6cBZs1MhEFKCgEB+5plndFdLQmAjrJs2bSqdO3eWsWPHyhNPPCEJCQkqcHv06CF9+/aV/fv3q4DnWOLBBx/UMhDETsgi7NgFI/j4HoE5ePBgrYcjAvJ//fXXcu6550qfPn1Upc8L261bt5TO33333SqEaQsC+osvvpDbb79dxowZI5MmTRKOAiAx99xzj3zzzTfSqVMn+eCDD2TNmjVaJsK4S5cuSkpeeOEFueaaa5S4DBs2TO666y797NFHH1XBTx7IiCdBKFSokCQnJ2sZnhqE2bNnS4kSJQRtxuuvv671QbBoB5oYMDp69Ki2AfJ05plnpvSJNnGUAEHi+VGjRqlGBC1Cv3795Prrr0/RUgwcOFAKFiyo9VsyBAyB4CJgBCG4eFpp4UEgpAShfv36qu5mJ0zq3bu3CjY0AWgWbrnlFnnppZdUkCJAEWDssFetWqU75rZt2+oO21sN/uyzz+pxBeW8//77+kMZqNDZxSNYOWenXnb0aAkQ8o888kgqgoCALVy4sGoNPv74Y4E0QBBo26mnnqpagREjRsisWbPkvvvuS0UQyMeRAPYDkJpy5copqYEk0BdIAaQG4vHi/9s7DyirqrMNf9OYYWAAEem9KKJiDygiCdaABitqSNAYTZSoGI0xKmpEk9hRNEosWBJ7iS2WRI2KFQuoVOkdpA9tZpjyr2fnP7OuOAOXO+fcc+bcd6/FGr33nl2eb5+93/3tdscd1esxKN+4ceOc1+T+++93aSQKBLwm8+fPdyN70l6+fLkTCSeffLLr7CkTQoi8kkZiSJxiQFTwW+LYViDgPfnss8/ssssus5ycnHBqnlIVgRgTkECIsXEzqGiBCgQ6Q1zpjKL79Oljo0ePdp0ho+eRI0e6kfaYMWPsyiuvdKPmZAUC3oIBAwa4ETABT8A555zjOnY6PP7hTsfVj3ehJoHAiByBQF62FQgIGYRJbm6ui79Hjx42fPhwJxCYNsDrgWgZOnSoHX744da/f3/nUSAuyjdr1iybNGmSc/F7+WvQoEG1BwG3Px3/9ddfbx07dqwWCDQqrBU488wz3V8EDb+bPXu28woggogzGYGAmIA7fLcVCMRJfhApCiIgAv4TkEDwn6liTD+BQAUCUwHsYLj22mud94A1A6wdYAEjc+3jx493nfr2BAJrB/AkDBo0qHqV/7Rp0+zBBx90HfOaNWucJ4K4mK9nzp+FeMOGDUtZIOBtQNww7cH0BNMLLJSkc54+fbqxQwOBwGifTvy9996zhx9+2E2hvPrqq+57PCUIHtYNMPr3Fmh6axCGDBliV111lfNYMMqnw2a6ABHCugo8Gvfee2+NAoG1G3gH8CIQtxeY3oAHDHiePCFYthUILHBEVPE7BREQAf8JSCD4z1Qxpp9AYAKBRYdsoyPgMqcDZH0An9OR9+zZ0609YETOKJotkFOnTrV9993XbcFjHQKueqYKWBjIeoCGDRu6+JhGIB7WCTAKZq0BixP5jA6ZRYd0trj/2U5YXFzs5uZJxwuky+JDvA1fffWV6yz5bM8993QL+Lx8kgc6ZEQJAoftiKWlpbbXXnu537Ejge+Jf8mSJe5z1haQNuKIBYPkz9viSQeOgCEv/AbvBHnG5d+vXz8nQCgfiwlZaEgaHgvWb/B506ZN7dNPP3VlRiR5gfTJJ+kTL9tM8Wbw36zVwMtC+bAHcZA3BREQAf8JSCD4z1Qxpp9AYAIh/UVRirURwKPBtAjrPTStoHoiAsETkEAInrFSCJ6ABELwjENPAY8M6ym8baKhZ0gZEIGYE5BAiLmBM6R4EggZYmgVUwREIH0EJBDSx1opBUdAAiE4topZBEQgQwlIIGSo4WNWbAmEmBlUxREBEQifgARC+DZQDupOQAKh7gwVgwiIgAh8h4AEgipEHAhIIMTBiiqDCIhApAhIIETKHMpMigQkEFIEp8dEQAREoDYCEgiqG3EgkBaBwME/3JDIPQUEttxxcJJ3+VIcQKoMIiACIuARkEBQXYgDgUAFAif6cUogVxATPEGAYOC/ORWwsLAwDhxVBhEQARGoJiCBoMoQBwKBCoRly5a5o4I51pdbCxMD3gSOUOa432bNmsWBpcogAiIgAo6ABIIqQhwIBCYQuOQIT4F342JtsLjfgJscuXY5MSAsvPsL4gBaZRABEcgcAhIImWPrOJc0EIHA1AIXAtHxJxMQCVwslLgmYcSIEXb77bdbQUFBMlHoNyIgAiIQGQISCJExhTJSBwKBCAQ6fG5JTNYDwG2LRUVF3/EinHvuuTZ27NjqGxzrUEY9KgIiIAJpJSCBkFbcSiwgAoEIBK5tbt++/ffWHdRWhvLycnfFM894wRMIXKc8ZcoUd+Xx4MGDrVu3bgGhULQiIAIi4A8BCQR/OCqWcAkEIhAmTZpk3bt3T7pkTEmsWbPGOnfu/D2BwJZI/q1bt84eeOABu+yyy5KOVz8UAREQgTAISCCEQV1p+k0gEIEwbdo0a9euXdIeBBYk8kLxzLYehIkTJ9qcOXOcSODvdddd5zcDxScCIiACvhKQQPAVpyILiUAgAgFvAF4BDkNKJnBOAlsdE3c8DBs2zMaPH29jxoxxXgOmIG677TYJhGSA6jciIAKhEpBACBW/EveJQCACAXEwb948t4thR6cl8tvVq1e7XQxeYIritddesyuuuMLGjRvnDlTCy8DWyUsuucSnoisaERABEQiGgARCMFwVa3oJBCIQKAKdPi8JhyTVFry1BwiJRO9BSUnJd7Y3lpaWWn5+fnrJKDUREAERSJGABEKK4PRYpAgEJhAoJdsdmRrgtMSaTlJctWqVtWzZ8nuHJEWKkDIjAiIgAjtJQAJhJ4Hp55EkEKhAoMRsT2RNAkcr4zHwAosOEQfJrlOIJD1lSgREQARqICCBoGoRBwKBCwQgIQw468ATCHgTEAgKIiACIhBHAhIIcbRq5pUpLQIh87CqxCIgAplMQAIhk60fn7JLIMTHliqJCIhARAhIIETEEMpGnQhIINQJnx4WAREQge8TkEBQrYgDAQmEOFhRZRABEYgUAQmESJlDmUmRQOACgYWJnGOwYcMGKysrcwcnsXOhSZMm7rbHHR2klGK59JgIiIAIhEZAAiE09ErYRwKBCgS2Ni5dutRtceQgJO/6ZwTDxo0b3WFIbdq0kUjw0aCKSgREIHwCEgjh20A5qDuBwARCZWWlzZ071x2SVNtZB5yYyEFKnTp1kkiouy0VgwiIQEQISCBExBDKRp0IBCYQuHkRceB5DWrLJQcpISbwJHiBaYkXX3zRhgwZ4oQDZyh888031qtXrzoVVg+LgAiIQDoISCCkg7LSCJpAIAKBi5U4ZrmoqCip/HPkcocOHaoPT2JK4tRTT3W3N3KJE16GRx55xEaMGJFUfPqRCIiACIRJQAIhTPpK2y8CgQiEBQsWuEuacnJyksonLxOnK3JpEwGBcOeddzrPwaWXXmpMRXgCAc8ERzfjcWjfvr37/dSpU93FUN26dXNeCwUREAERCJOABEKY9JW2XwQCEQhffvmlG/knu0OBKYZ169a5tQieQLj77rutR48eTgTQ8SMQmHJ45pln7NBDD7UXXnjBRo0aZZ9//rm7BprfTZw40S666CK/2CgeERABEUiJgARCStj0UMQIBCIQJk+ebF27dq2zQBg5cqTzJJx11ln22GOP2T777OOufcZ78M4779jRRx9tt956q5199tlul8Rzzz1nF198ccQQKzsiIAKZRkACIdMsHs/yBiIQmAbYddddk55iYAoBL0KrVq2+40FAIEyYMMFNMcyaNcstUmQ9AtMRTEMMHDjQLr/8cvvxj3/sxAgXQB111FHxtJRKJQIiUG8ISCDUG1Mpo9shEIhA4JwDpgwKCwuTgr969Wpr165d9Y4HOn+mGBAIhFtuucUaNWrkphb4Dk8COx3wJowdO9ZOPPHEanGh66OTQq4fiYAIBEhAAiFAuIo6bQQCEQjkfubMma7T3tFCRXY8sNXRW3DIs3T+H374ofXr18+BmDFjhq1fv94OPPBAe/bZZ523AaFw2mmnub+sR+Cz5s2bO2+CggiIgAiESUACIUz6StsvAoEJBDr+hQsXbneqgaOXi4uLrWPHjjsUEokFRhRsKzxq+swvSIpHBERABHaGgATCztDSb6NKIDCBQIGZamCHAZ15w4YN3RoBvANsX8RrQGjduvUOD1OKKjzlSwREQARqIiCBoHoRBwKBCgQAMbJnYSH/EAYETldk1wHrCpLdChkH2CqDCIhAZhCQQMgMO8e9lIELhLgDVPlEQAREYFsCEgiqE3EgIIEQByuqDCIgApEiIIEQKXMoMykSkEBIEZweEwEREIHaCEggqG7EgYAEQhysqDKIgAhEioAEQqTMocykSEACIUVwekwEREAE5EFQHYgzAQmEOFtXZRMBEQiFgDwIoWBXoj4TkEDwGaiiEwEREAEJBNWBOBCQQIiDFVUGERCBSBGQQIiUOZSZFAlIIKQITo+JgAiIgNYgqA7EmYAEQpytq7KJgAiEQkAehFCwK1GfCUgg+AxU0YmACIiABILqQBwISCDEwYoqgwiIQKQISCBEyhzKTIoEJBBSBKfHREAEREBrEFQH4kxAAiHO1lXZREAEQiEgD0Io2JWozwQkEHwGqugyg8Bbb71lM2fOtGbNmtlRRx1lu+22W2gFLy4utrfffttOOOGE7ebhwQcftF/+8pe2ceNGmz59uh144IH2wQcfWP/+/e1vf/ub/frXv05LGR566CH7xS9+kZa0EhP54x//aNdee21arpiXQEi7eZVgAAQiKxC+/fZba968ueXm5gZQ7O1HWVVVZcuWLbO2bdumPe2VK1eG2tmkvcD1MMEvv/zSnnzySTvuuONcPaFzvueee0IryZIlS+yvf/2r/fnPf95uHs444wx74oknjDr25ptv2tChQ+2BBx5wwuCUU06xZ599Ni1lGDZsmD322GPfSWvUqFF2ww03BJr+PvvsY1999ZUEQqCUFXmcCAQmEP75z39ax44d3SiFgHK/7rrramRHw9S3b19r37599fc0Znfeead98803TiTwfbpCaWmpnXjiifavf/2rujEpKyuzxYsXW9euXQPNxm9/+1u79dZbLScnJ9B0FHnqBC644AK74oorrF27di6Sn//8504g4FF49dVXne0GDBhghx12mN1+++3Oy9CkSRP3Prz88suWnZ1tF154oVVWVjqhQd1av369jRw50mbPnm0LFiywqVOn2jXXXGO33XabUR+LiorsvPPOM4Tz3//+dysoKHC/pVPlewQCney4cePsZz/7ma1Zs8Z1wllZWa4u77///uYJBAQF7+f5559vf/rTn1w6CIRnnnnGxd2zZ0/bb7/9bMyYMcZIOD8/3y655BL3l8A7+fzzz1uDBg2cJ+KHP/yhyzM8zjzzTHvuuecMEVVeXu7K1KpVK5dOo0aN7Nhjj7Xrr7/e/vGPf9grr7zi4vj6669d2ieffLIdeeSRLi7yvGnTJissLHScrrzySrvxxhtdPJSXwQPvyooVK+zee+91ae299952+umn2y233GJNmza1Pffc033+4YcfOg54Lsj7F198YS+88IIry09+8hM7+OCDU68MtTwpD4LvSBVhCAQCEwi4LHfffXf70Y9+5IpFo0WjsHDhQuvQoYN7YefMmWPdunWziRMnWvfu3V0jygvMS/2rX/3KNWK4TxEI/I4OmtEP/7/XXnu5hnbRokWuMWzdurVriLxAI1JSUuIaVDwCLVu2NBpG/uIOJm3ibtiwofXo0cM9tnz5ctcY0RjjdqWRW7dunfuM39PAXHbZZS6drVu32i677FKdHmmQF77jtzT65Il/GzZssPnz57t4unTp4spJXug4KA8dB50L5b766qvdSK6iosJ1AHCiwaasCtEgQKcyfvx4a9GihcsQdRUB/Lvf/c51YtiMzg73/VlnnWVHHHGEDR482MaOHWvHH3+8E5m77rqrq8+IQTp2Olw6ferEZ5995jpa6ucnn3ziRvq8T3RkdMJ06Dz373//233Wpk0bu+OOO9xf6jaC5aSTTnKdaV5env3lL38xphc8gUBdu+mmm1yclOW1115zAuG0006zWbNmuTpOJ41AoD5efvnlThBRDwnkifTwWFx11VXuuR/84AdODDz99NPOqwID3h+EDuICsUQ+GDCce+65jtmLL77oeK1atcp5McgPIoQ4ETz85uyzz7Z9993XpcU/3iN+Qx7vu+8+J8Z4x0mPMiMGYIx46NOnj2t38JLw7iE+pkyZYngwfv/737t3FAH21FNP+V6xJBB8R6oIQyAQqECg86XhIPDSM7I455xz3ItNhzdo0CA3irj55ptdQ8WLzgisU6dObiREA/jOO++4kUfv3r3dyOOQQw6x//73v+6l5wWn8aKDR1jcddddbkRCoJOmEURI4E496KCD3Hc0XjTUfEf+Jk2a5Bo2OmkaVn7P/zPSoSG89NJL7Te/+Y2999579tJLL7kGh5HKG2+84dKmE2B0tnbtWjeKZHT56KOPurTIJyKHEdJ//vMfl1+EBXOhxElnQHoExACdxuOPP27vvvuuGxUhThAKjOZ2NL8cQt3J2CR/+tOfOu+Wt+6AToz6REeOzemMqK8fffSR6/jo2Dp37uzsSmdER049wWtAJ0l9e/31193Ilk6YeoAHAhGCWxwRgGhETNLR8m7QgTIKRvDyvlx88cWuzlH3eLcQ54gTOk46abwJ2xMIXv26//77XbnICyNx0qdu0uHy355AQNBQ5hEjRtjo0aOdWPKmKXhPSJP6S554b5mO4V0nMMonX7z3DBYICCraBwL5pgNHoLBegnxTRt5z8odngWkdvA78N2XjPcH7MXnyZPeO8h2hX79+7h0leFMMxxxzjPN68AyCA/Hkd5BA8Juo4guDQKACgUbGawDopOnsednxJKD8Dz/8cPcZDQwNBI3nH/7wB2vcuLEbwTMaQSQgEAg0OAgMGhYaWMTE5s2bXTw02IxMevXq5X6LYGA0QWPDgihGQIzuSZ/nGNXzj8VmjNwGDkAAmEMAABvzSURBVBzoGjs6aDrxAw44wI38aDj5y2iPBpN0cGsSD3k79dRTXWe/evVq5wHgczwaNBB8R6dAWb3PGE3REJIn4qNhpcFCNNEIMrp55JFH3Gjn4YcfdnlBpNDoKkSDAOKNUS0dN54qFv7RSQ0ZMsR5AvAm8R2eMb7zBAL1g39e/UMEUBfofKnrnifMEwj8jk4MIY1Y4D2gk6tJICAY8HwxTYfQRUgzRcZomzjwWtExU7/xEtTkQUD4MOrHa4CXgTp30UUXuedx9XvrgRDOtQkEyoEYoNPFo8aUyrYCgTrOO0M9v/vuu52XgykFniUNvDGkybvLu45I4P2grSBOhBhTDpQBW8CHduboo49273yiQEAI0PYgzrEJHgTeaYQGPD2Pod81SwLBb6KKLwwCgQqEmqYYticQcOHjOmUEtK1AQAjQkdM4eAKB+VsaNDpWAq5Ob14YgYB3gM/ojHHL0vDSSDKq5y8jczp2Rhl0yIxaaNiYmuA7pj1IC9GRKBBoVGiMWFOBmMFzQEPMHDH5xEOBZwDBwyiSUR0jKhrvCRMmuFEjQgcvCIFRIWXhexpphAGNGW5mAg0/4kchGgQQBXRe1DvqDwKVThmR8Pnnn7tRM1NLjOrxLuAxwkOFF4A5e9z3TEdQn1kHcOihhzqPF/WJ+sz8OnWCTg2BQT3kGTpEvGzUUdY20PniQaBzpANFBCM2qCvEhzcDbwWLbckH7wF1HWHC89RTb4rBmwIkDZ5B7FBGvGOUF6HgTeF9+umnTjzQ8VNGBAXvlhcHeSZPjO6pu94aB28RJHlB8DBQYKoNTxwinHVGvIPvv/++Kw/vCWIELwxcES2Iarjz/3gMEOAIBwQQHgoEAu8W3xEQZ7zPCA6+x8NAO0O85BFvSRC7NyQQovGuKhd1I5B2gUDjwLzjjBkz3EItOnHPg4AbnikJ5mgZFTA36nkQaExx8zPyYC6TBo7GFg8AHTPeABplb3Hf9gQCDRMCBNejN3LfViDQQdOIMNqgsWGUw7wnDRQNOEKG/NHo4HlgbQXTDp4HAo8EHgTSwDtCY4qw4C+u4USBQOeCR4TGnkacEQ8ChsaaRhlXtCd86mZuPe0XAWzJGgFGoYx6cZnjOaBj4C8jbj7jd976EToppqL4jn+4txGrdMQITeoYzxJ4lsDzeM5YdEfd5nv+EWfib710+Os9i8Cgk/aeRbySB9LiWb6nU6fj9p5PjJ/fIoDofHn/vJD4m8TyJeaBdD3PH3klLu/dTEyL/+ZzuBGY9kuMn88Sn+V3/B7mHgPS4jkC322bJ/gxnUe8HkPiQfjAJoj1PRIIfr1piidMAoEJBDpGOjxvASCj6OHDh1evIN5jjz1s6dKlbiRFR8uInUCHzcvMi8zvERKMzvFGeOsOpk2b5lyTNFqMphjdM1Khk/UaMkZafM5UASM71hTQYDE6Z4SFi5HGmpXOjO7IDyMWRvC49REATHeQFnOwjLQQB+SFOWMEAfOcTBkw6mOdAR09ZaKsNDy4kxkh8j1lZKGlN/pESJAWgY4CdyujGRorFmdRbty4NHa4i9lrrxAvAtRPRsuIwXQHxAEje8+Tlu70456eBELcLZwZ5QtMIGwPHx1nbecbJI4WEuNghwFuVgSAt03KEwPEh6DwRk7Jmi5xpJHMM/yesKMRByOVbfNSW7m8dPmeeBOfIz3+hXEWRDI89Ju6EcDmiNHE0XndYkz+aeooI2+8CQr+E5BA8J+pYkw/gVAEQirFZGSOV4KpBBb2sZVpZwVBKunqGREQARHYWQISCDtLTL+PIoF6IxCiCE95EgEREIGaCEggqF7EgYAEQhysqDKknQDTWqxD4S9rRxIPzfIOymLaiwW3TBHxO7boMWXErgJvUR3TZqxL4flt73NgcR1banmelftePKxZYXqCBays1yEQL/nhvAWF8AlIIIRvA+Wg7gQCEwhsLWIhlLfSuu5ZVQx+EmB6hgWX3vG5fsadCXFxHobXabP4lMWuXmALINv+5s2b5w7VYgEuO3R4JxAGbBNkASydPztfOF2ThaxsD2R3gxfYHsk+fnax8DkLVdnSx+4JhAG7D1hMy7ZKdtOw44etiwrhE5BACN8GykHdCQQmENhFwK4BrROou5GCiIERJ41YmLcQBlGudMXJFlT27+8ocFYB62U4K4PtsAS2NvKZt7sGTwD7+lk0yJkKnkcAAcC5HwR23bD7hl0+7HIhIAbYpsi2W7YwsqvGOztjR/nS98ESkEAIlq9iTw+BwAQCo6PEuxHSUxylsjMEZKOdofW/3yKs6Ni5FZDjlNkFwCmA2wbvRlAO9+E+EjpzDhsicEYHXgPO4+D8DQ7smTt3rhMJnJ3hpcPdBGyTJS5OT+S/2RaJF4Jtv5wfwkFAnJ9AYKusBMLO2zSIJyQQgqCqONNNQAIh3cQjlJ4EQmrG4PQ/TuzjBESmaLxLm7zYWG9A588hYBzsRWfOlATnZxBYd8A6BDwGnKDJQUR43LyjwL14uBAJDw8CgXM28FowbYE3Aa8BJ2/iYfC23UogpGbPIJ6SQAiCquJMNwEJhHQTj1B6Egg7bww8CMz3c+MiF4BxwqV3pXlibCwiZPHhE0884dYWJHoQOHYb0cDIH5HgLXhEOHCPQaLQ4B4Cfofg4EhgDgjjNFKECUcpczeD56mTQNh5ewb1hARCUGQVbzoJSCCkk3bE0pJASN0g3E6Ki987PrimmDgECQ8BJ2wyRUDHzk4EbinkDoPEZxES3L+AZwHBkLh4lN0MHM/Nkcw33HCDuxmVtT3cQ8A9Dd4x3BIIqdvT7yclEPwmqvjCICCBEAb1iKQpgZC6Ibgvg6vD6cjZWuhda44oYLTPAl3uMeCIb9YbsO6Ai7sQBUxJ8DneCDp1PARMM3CcNzc6MoWBZ4DjuAl0NtxNwiVKTFuw44FdDexuQDTwPDsj2BHB0eZcUKYQLgEJhHD5K3V/CNQLgVDT0cUUv7bPt/ddTccrby8efzBHMxYJhLrZxZtGYNHgtrt1vAuEEo/l3vYSIlJnKzDPegsNE+uud/lT4tZHviddnvPOUqhbKfR0EAQkEIKgqjjTTSCtAoHRFXfR07ixd5sLkhLdrIyeWM3N3K4X+H9GSjS0jMQYaeFyZb6WBpTRGIu1vMBnfMdFTInPMB/MKM47+5596zTMfEZjzm/Zz55JZ9NLIKT7dVN6mUJAAiFTLB3vcqZVIHA9My5Zbnmko+awF2/kRcfO97hXvZsLERITJ050goFOHNcqB8dwEA3bw5jPZR6WvePeaIrfcS001y0jCtg6xjYznuXGR8QEtzMiLLhxEZctd94jOhAj3JyYKUECIVMsrXKmm4AEQrqJK70gCKRNIKxcudI+/vhjd7UygVXcNblI6fAHDBjgfsMcL6u4vSujX3/9ddfxIxBOOeUU9xu2m/G9d+APXgg8CHT6BA6qYf6W/eN0/nguOInOEwmIDBaGEZhXRnhkSpBAyBRLq5zpJiCBkG7iSi8IAmkTCLwwHBN78MEHu3Jw9nxNK8ATBQJn1+Np4Dx7Aouw8CDQ6XsC4ZNPPnGLxLytXqtWrTJufuQQGwJb0lgQNmHCBOvfv7/zOnAjJN4KvAgsJvOelUAIooopThHIPAISCJln8ziWOG0CgY4bD4J3mUzPnj1dZ71tSBQIy5cvd535znoQuMzmgAMOqPYgDB482HkQ+vTp46Y48CBwoQ4CAZEiD0Icq7bKJALhEZBACI+9UvaPQNoEAlmeMmWKOwGONQjeKuzE1d989sEHH7ipADpyvAds32INAlMNHG/reRCYakhcg8AiQ56nw2cNAusOWIPAGgOmLDiJjgWI7BlneoEpCRY8Tp482V2mwxoETqnr27evf3QjHpOmGCJuIGWv3hKQQKi3plPGEwikVSBwmx2nyHmBaYDE7V3sKPAueeI7Ont2PSAOCOxiYGEjOxS8XQzcmse6Bj5jtwM37NHR89+IDzwWPEPaM2bMcHvPSZNb9vieqQZeZv6bQ2dYyJgpQQIhUyytcqabgARCuokrvSAIpFUgeAXgpDg6/2Rvekz2HITE39X2TE3nINT0WRCwoxanBELULKL8xIWABEJcLJnZ5QhFIGQ28uiUXgIhOrZQTuJFQAIhXvbM1NJIIGSq5c1MAiGDja+iB0pAAiFQvIo8TQQkENIEOorJSCBE0SrKUxwISCDEwYoqgwRCBtcBCYQMNr6KHigBCYRA8SryNBEITCB4uxGSXYiYpvIqmf8nwMJMGjHvBEqBEQER8I+ABIJ/LBVTeAQCEwhsK+RcAnYTKESPAMKNsyb4pyACIuAvAQkEf3kqtnAIBCYQwimOUhUBERCB8AlIIIRvA+Wg7gQkEOrOUDGIgAiIwHcISCCoQsSBgARCHKyoMoiACESKgARCpMyhzKRIQAIhRXB6TAREQARqIyCBoLoRBwISCHGwosogAiIQKQISCJEyhzKTIgEJhBTB6TEREAERkAdBdSDOBCQQ4mxdlU0ERCAUAvIghIJdifpMQALBZ6CKTgREQAQkEFQH4kBAAiEOVlQZREAEIkVAAiFS5lBmUiQggZAiOD0mAiIgAlqDoDoQZwISCHG2rsomAiIQCgF5EELBrkR9JiCB4DNQRScCIiACEgiqA3EgIIEQByuqDCIgApEiIIEQKXMoMykSkEBIEZweEwEREAGtQVAdiDMBCYQ4W1dlEwERCIWAPAihYFeiPhOQQPAZqKITAREQAQkE1YE4EJBAiIMVVQYREIFIEZBAiJQ5lJkUCUggpAhOj4mACIiA1iCoDsSZgARCnK2rsomACIRCQB6EULArUZ8JSCD4DFTRiYAIiIAEgupAHAhIIMTBiiqDCIhApAhIIETKHMpMigQkEFIEp8dEQAREQGsQVAfiTEACIc7WVdlEQARCISAPQijYlajPBCQQfAaq6ERABERAAkF1IA4EAhEIS5cutcrKyjjwURlEQARE4HsEWrVqZXl5ebWSkUBQpYkDgUAEQhzAqAwiIAIikCoBCYRUyem5KBGQQIiSNZQXERCBWBCQQIiFGTO+EBIIGV8FBEAERMBvAhIIfhNVfGEQkEAIg7rSFAERiDUBCYRYmzdjCieBkDGmVkFFQATSRUACIV2klU6QBCQQgqSruEVABDKSgARCRpo9doWWQIidSVUgERCBsAlIIIRtAaXvBwEJBD8oKg4REAERSCAggaDqEAcCEghxsKLKIAIiECkCEgiRMocykyIBCYQUwekxERABEaiNgASC6kYcCEggxMGKKoMIiECkCEggRMocykyKBCQQUgSnx0RABERAHgTVgTgTkECIs3VVNhEQgVAIyIMQCnYl6jMBCQSfgSo6ERABEZBAUB2IAwEJhDhYUWUQARGIFAEJhEiZQ5lJkYAEQorg9JgIiIAIaA2C6kCcCQQiECorK62kpMSqqqrizC7wsmVlZVlBQYFlZ2cHnpYSiDeBpcVldvN7i23J+rJ4FzTg0hXkZds5B7eyAV2abjcleRACNoSiTwuBQATC5s2braKiIi0FiHsiOTk5VlhYGPdiqnwBE7j7o2X2+OSVAaeSGdG3aJRnLw3fUwIhM8yd0aUMRCBs3LhR3gMfq1VRUZGPsSmqTCRw/duL7LWZazOx6IGU+cPze0sgBEJWkUaJgARClKxRS14kEOqBkSKeRQkEfw0kgeAvT8UWTQISCNG0y3dyJYFQD4wU8SxKIPhrIAkEf3kqtmgSkECIpl0kEOqBXepTFiUQ/LWWBIK/PBVbNAlIIETTLhII9cAu9SmLEgj+WksCwV+eii2aBCQQomkXCYR6YJf6lEUJBH+tJYHgL0/FFk0CEgjRtIsEQj2wS33KogSCv9aSQPCXp2KLJgEJhGjaRQKhHtilPmUxKgKhIDfLcrKzbFNZpS/4GjXIts1llZbuI9kkEHwxnyKJOIHYCIQpyzbav6etskuO6FyN/KxHv7Z7z+hlDfNyajVDcUm5vf3NGjuhd8vImkq7GCJrmnqTsSAFwhHdmtq3G7fa1ys2Ox6tGufZsP12s9vfX/o9Pkd2b2qcEPqfWet8YTdsvxb21JerrDzNCkECwRfzKZKIE4iNQNi8tcLOePAre+G8/S3LzNZs3mpXvPiN/e2MvWzu6i22ubTCWjdtYC0aNbCNpRWWlWW2eF2ptWuab9OXb7SDOzW11Zu22rL1pc5k7Zrl2y6FebZyY5mtKC6zooJc69S8IBRzSiCEgj1WiQYpEJrk59jFh7W10W8tcsyO33MXa5ibY898vcraN23gBPq3G8tsXUmFnbRXc8N38MLUNVaYl21tmzSwnKws+3bTVlu7pdwaN8ix1kV5VlJeaYvXlzlvQ4vCXMvNzrJGeTk2f12Jba2osg7N8i0/J8uG9m5hN7+7xLZWVlmbogbWOP9/aa0vCfYkVwmEWL0eKkwtBGIjECjf6Ffn2In7tbR92hbZlS/PsmEHtbG1W7bak58ttw67FNicVZvt3tN62YQ5a+25SSssNzfbLhnY2Z76fJldOKCjXfD0dOvdtrEtWldqPVs3srP7trPhj3xlPVs3tmnLN9q1g7pbj93Sf+yxBILe37oSCFIgkLeHTulul/xrnq3dUmE3HtvJSK9FYZ79uk8rm726xHq1LLTr3lpkR3Vv6gTCy9PW2qiB7d13DXKznAC4f+IKu3xAO9tQWuG8EE9/vcqWFW+1O47vYh8t3GBddymwJ79aZeWVVXby3rvarFVb7PAuTW3EC3MsPy/Lrvhhe1uwttSJhz++ucgqKoNzK0gg1LVG6vn6QCBWAuGzhcX20MdL7PaT9rBeo9+3KVcfZiOemmYXDOhoB3ZoYqNemmXD+7azhWs229w1JfarQ9vb0vVlNv6jxTZ4793ssU+W2q0n72GTFxXbhwvW23n9Oth5T061Ucd0tSe/WGGtmzSw4T9om3a7SiCkHXnsEgxaIPx8/91s/tpSm716i43s19b+8PoCO/ugls5TsGZLuY0a2MGen7Laeu5W4ATCRws22E0/7mxnPTPLsb7wkNZ210fLbcxxXeymdxZb7zaFtnerQnvki5V226DOdtazs+2QTkW2W2GetSrKs5krt9h784rdc+M+WeG8Fis3lTvRcNmAdnbH+0ttUYAXU0kgxO4VUYFqIBArgVBWXmk/GTfJxp3Ry27773y765Q9bej9k+2a47rb3m0a241vzLUj9tzV1m/eaqyRGtSrRbVA6N+9mb01fY2NPr57tUD4Zd92dtJ9k6x/9+YO3Y92b259Om//FrcgapkEQhBUMyvOoAUC0wWX9G9r81aX2Kot5fbGN+vs4n5t7K4Pl1lFldnIQ9vYu/OKrWvzfCcQvliyya45ooOd89zsaoFwz8cr7NGhPVzHT5i1eot9uWyT80ic+/ycaoHQsVm+fbZ4o328aEO1QPjZ/i1tt0a51VMLz05ZZas3lwdmZAmEwNAq4ggRiJVAgOs97y20zxdusFtO2t2aF+bZda/NsT1aNrJjeu1qFz09w8ae2tM+X7j+ewJh6AGt7JqXZ9vNJ+1hb0xf5eY0RxzWwU5+YLJbx1BZVWUFudnWpCA37eaTQEg78tglGLRAANiYwV2sIC/LfvvKfLeG4MgeTd36ggnzi+32QV3sL+8utt6tC906gzfnrLN7hnS381+YbV12KbC+HRo7D8Kdx3e1G95eaKUVVZadZe75bQVCUYMcq7AqJ0KuO6qDXfrKfOdx6Na8wF6esdaaFrAOYasFOMNgEgixe0VUoLh7ECjfknUlNv7DJXb1oG6uuBtKy+2+9xdb8ZattlfbIht6QGubsXyjW/WMV2H9lnL7YO5aO7ZXC3vk46W2dH2plVdVWYvGefab/h3t4U+W2pxvN1lBbo6dfnBr69ZCaxD0JtU/AukQCP06FVnLxnn2z6lrHCAE9fD9W1phg2y31uDVmWusfdN8O33fFvbc16utR4sC69q8wJZvKLP2TRrY2I+W24AuTWy/to3cOoO356y3hevK7IReze2xySud9wFxsaS4zO2S2Ly10gmBV2b8L73hB7S0Zg1z3SLkR7/41spwXQQUJBACAqtoI0Ugdh6EmujSTFRUVFluDvsbag4byyrc1ELjgly3XbJ3uyInGgisms7JNstm60MIQR6EEKDHLMl0CITakLEAkQ7fC/w/3oHerRtZcWmFdds13xrmZtvz/y8seE359fY8ADzPb6q20QDEzeLE4KTB/0ohgRCzF0TFqZFARgiEZGzPeQivTF1pxSUV1jAv204/oLXl52Yn82jgv5FACBxx7BMIUyDUBLdBTpYN7NbUbUtEdr86c61vhyelw5gSCOmgrDTCJiCBELYFkkhfAiEJSPrJdglETSDUd3NJINR3Cyr/yRCQQEiGUsi/kUAI2QAxSF4CwV8jSiD4y1OxRZOABEI07fKdXEkg1AMjRTyLEgj+GkgCwV+eii2aBCQQomkXCYR6YJf6lEUJBH+tJYHgL0/FFk0CEgjRtIsEQj2wS33KogSCv9aSQPCXp2KLJgEJhGjaRQKhHtilPmVRAsFfa0kg+MtTsUWTQCACYcuWLVZeHtwxp9FEGUyucnNzrWHDhsFErlgzhsD4z1bYA5+uyJjyBlnQzrvk2+On77HdJNQGBmkBxZ0uAoEIhKqqKistLTX+KqROICsry/Lz842/CiJQFwLFpeX28Off2pIALzCqS/7qy7MFedl2xr4trOcObnWVQKgvFlU+t0cgEIEg5CIgAiKQyQQkEDLZ+vEpuwRCfGypkoiACESEgARCRAyhbNSJgARCnfDpYREQARH4PgEJBNWKOBCQQIiDFVUGERCBSBGQQIiUOZSZFAlIIKQITo+JgAiIQG0EJBBUN+JAQAIhDlZUGURABCJFQAIhUuZQZlIkIIGQIjg9JgIiIALyIKgOxJmABEKcrauyiYAIhEJAHoRQsCtRnwlIIPgMVNGJgAiIgASC6kAcCEggxMGKKoMIiECkCEggRMocykyKBCQQUgSnx0RABERAaxBUB+JMQAIhztZV2URABEIhIA9CKNiVqM8EJBB8BqroREAEREACQXUgDgQkEOJgRZVBBEQgUgQkECJlDmUmRQISCCmC02MiIAIioDUIqgNxJiCBEGfrqmwiIAKhEJAHIRTsStRnAhIIPgNVdCIgAiIggaA6EAcCEghxsKLKIAIiECkCEgiRMocykyIBCYQUwekxERABEdAaBNWBOBOQQIizdVU2ERCBUAjIgxAKdiXqM4GUBELjxo19zoaiEwEREIH4ECgpKbHy8vL4FEglyUgCKQmEjCSlQouACIiACIhABhGQQMggY6uoIiACIiACIpAsAQmEZEnpdyIgAiIgAiKQQQQkEDLI2CqqCIiACIiACCRLQAIhWVL6nQiIgAiIgAhkEAEJhAwytooqAiIgAiIgAskSkEBIlpR+JwIiIAIiIAIZREACIYOMraKKgAiIgAiIQLIEJBCSJaXfiYAIiIAIiEAGEZBAyCBjq6giIAIiIAIikCwBCYRkSel3IiACIiACIpBBBCQQMsjYKqoIiIAIiIAIJEtAAiFZUvqdCIiACIiACGQQgf8DukPtTKYuYFoAAAAASUVORK5CYII=;" vertex="1" parent="1">
          <mxGeometry x="747" y="18" width="400.35" height="347.99" as="geometry" />
        </mxCell>
      </root>
    </mxGraphModel>
  </diagram>
  <diagram name="Epic Context BX" id="DSy3QqIJWJwCsPCJKM30">
    <mxGraphModel dx="946" dy="591" grid="0" gridSize="10" guides="1" tooltips="1" connect="1" arrows="1" fold="1" page="1" pageScale="1" pageWidth="1169" pageHeight="827" math="0" shadow="0">
      <root>
        <mxCell id="RMUCeAg36CDSYGvV_Tc--0" />
        <mxCell id="RMUCeAg36CDSYGvV_Tc--1" parent="RMUCeAg36CDSYGvV_Tc--0" />
        <mxCell id="RMUCeAg36CDSYGvV_Tc--2" value="&lt;h1 style=&quot;white-space: nowrap&quot;&gt;&lt;font color=&quot;#0077c8&quot; style=&quot;font-weight: normal ; font-size: 48px&quot;&gt;Epic context&lt;/font&gt;&lt;/h1&gt;&lt;h1&gt;AIP BeheerToets for Agents&lt;/h1&gt;&lt;p&gt;An agent is able on the Aegon Intermediair to simulate a proposed &#39;divorce&#39; mutation of a Aegon Mortgage Contract to see if it is possible in the (financial) conditions of the Mortgagor after the partner is removed from the contract. The &#39;stayer&#39; normally wants to keep the house after a divorce.&lt;/p&gt;" style="text;html=1;strokeColor=none;fillColor=none;spacing=5;spacingTop=-20;whiteSpace=wrap;overflow=hidden;rounded=0;" vertex="1" parent="RMUCeAg36CDSYGvV_Tc--1">
          <mxGeometry x="30" y="25" width="790" height="160" as="geometry" />
        </mxCell>
        <mxCell id="9DtAIOu2raZw1et8jN-O-0" value="&lt;p&gt;&lt;h2&gt;&lt;font color=&quot;#0077c8&quot;&gt;Handle &#39;HDN BX Mutation Request OHA&#39; Service Flow scenario:&lt;/font&gt;&lt;/h2&gt;1. Customer (Mortgagor) walks in a TP (Advisor/Intermediairy) Office and tells an Agent that he/she is going through a divorce process and one of them needs to be written &#39;off&#39; the mortgage deed (contract).&lt;br&gt;2. Agent checks if his office is indeed the &#39;managing TP&#39; of this contract (the tp number of his office should be listed on the contract as role &#39;managing tp&#39;) and retieves the &#39;dossier&#39; from his own system. It turns out that customer has an Aegon Mortgage (surprise)&lt;br&gt;3. Agent wants to see the most actual data of the Mortgage Contract and chooses to update the Mortgage&lt;br&gt;4. The Advisor software suite (or an integration with the Adviespakket like &#39;Faster Forwards Elements&#39;) sends out an Information Request message (HDN IA) to the Mortgagee company (Aegon). Aegon will respond with either the requested information in an IX message or sends an SX when the response could not be produced.&lt;br&gt;5. Agent has now updated Mortgage info and collects all necessary additional data and documents and creates his &#39;Financial Advise&#39; (Wishlist of potential Contract Mutations) in their own software (&#39;Adviespakket&#39;)&lt;br&gt;6. [optional] As the Agent has the needed financial and collateral information he/she can perform a so called &#39;ToetsVerzoek&#39; to ask the Mortgagee (Lender/Aegon) if in the future situation (after divorce) the mortgagor will be able to continue the mortgage on his/her own.&lt;br&gt;[optional] Internal Aegon HDN Service will call a [Enterprise BeheerToets OHA Wrapper Api (Thin Wrapper)] and this enhances the request with actual contract data [&#39;Contract Details API&#39;] and &#39;maps&#39; the request to an internal toets service [Enterprise Toets Api (Wrapper)]&lt;br&gt;7. [optional] System will respond with Toets Results (Uitslag) in an HDN message type [to be determined] If the result looks &#39;hopeful&#39; the TP can continue his/her proces to request an OHA. Otherwise the TP can redesign the proposal and do the Toets again or give the Mortgagor advise how to improve or change the situation (in the near future). Worst case the house needs to be sold to cover for the divorce division of goods.&lt;br&gt;8. The Agent prepares a wishlist (&#39;change recipe&#39;) of all necessary changes to the existing Loan (with/without NHG loanparts) and if needed reqyuests additional loan (maximum based on current collateral value) if needed to cover divorce costs and settlement with other party.&lt;br&gt;9. The system (or integration), now called &#39;sender&#39; maps the wishlist (&#39;change recipe&#39;), the changed current loan (omzetten/oversluiten bestaande lening) and the new/extra loan (verhogen/if applicable) to a proper HDN message type BX: MutationRequest OHA (BeheerVerzoek: MutatieVerzoek Ontslag Hoofdelijke Aansprakelijkheid) and sends it over the HDN network to the Mortgagee (Aegon).&lt;br&gt;10. Aegon software will read the incoming message (HDN BX OHA) from the queue and uses an internal service to handle the message [Enterprise Handle HDN BX Message (Java) WebService (Logic)] this logic could be a module or part of a (existing) service composition and will perform an INTAKE. NOTE: The most preferred way for me to model this INTAKE is using workflow and/or business process software, business and decison rules and flow logic in Appian. For now/mvp we can start with logic inside a service but that is not optimal/not preferablein the long run as this INTAKE process can be complicated, combines a lot of sources/apis, rules etc and must be reused (or generic) for all Mutations.... more about this later.&lt;br&gt;a. check rules: (technical)Validations &amp;amp; Business rules, safe sender etc. (-&amp;gt; TBD)&lt;br&gt;b. check authorization &amp;amp; access: is sender &#39;allowed&#39; to request mutation for this contract (ie: &#39;managing tp&#39;) - Is the contract in the portfolio? [Enterprise Check Authorization Api (Thin &#39;Contract Details / Portfolio&#39; Wrapper)]&lt;br&gt;c. check IsContractMutationServiceOHA available?: checks (set of rules) if the backoffice (automated) business process is available to handle requests and if there are no &#39;locks&#39; on the contract (like &#39;speciaal beheer&#39; or other mutations in progress) [-&amp;gt; TBD]&amp;nbsp;&lt;br&gt;d. check if the TP requested an IX for this contract recently (ie. in the last few hours before requesting either a toetsverzoek of a MutationRequest) -&amp;gt; So the TP bases his/her advise on the latest information. [Enterprise Check IX Api (Wrapper)]&lt;br&gt;11. If all checks pass and the Aegon HDN BX service is able to map and SUBMIT (&#39;synchronously&#39; so waiting for the result of its execution) the incoming Mutation Request message (HDN BX OHA) to an internal Aegon service [Enterprise Submit &#39;Mutation Request OHA&#39; Flow Api] to handle the request, we will send a proper HDN response to communicate that the request is passed to a business process for further processing (SX ontvangen/in behandeling) or if (some) checks fail a proper alternative response message will be returned with more detailed feedback on the errors (SX niet te verwerken). After the TP corrects the errors he/she can try again.&lt;br&gt;12. During the SUBMIT sequence the [Enterprise Submit &#39;Mutation Request OHA&#39; Flow Api] has to perform a few tasks after which it will return a succes or a failure to the &#39;waiting&#39; HDN BX service:&lt;br&gt;a. It first creates a PDF of the Mutation Request OHA [Enterprise Create &#39;Mutation Request OHA&#39; PDF Api (GOM Wrapper)] --&amp;gt; PDF as bytestring&lt;br&gt;b. Then it wil use this PDF and uploads it to a designated GIM/C4L S3 bucket and --&amp;gt; gets a signed S3 download url/link to the pdf file&amp;nbsp;&lt;br&gt;c. Then it uses the information of the request (&#39;MutationRequestDatastructure&#39;) and the PDF signed S3 download link to SUBMIT a request to the Aegon internal GIM API and thus sending it to C4L using the correct routing params. [Enterprise Send &#39;Mutation Request OHA&#39; to C4L Api (GIM Wrapper)]&lt;br&gt;d. If (some of) it fails in any of the steps it will return a detailed!! error to the waiting HDN BX Service otherwise a succes so the HDN module can send a SX out to let the TP know the business process has started succesfully.&lt;/p&gt;" style="text;html=1;strokeColor=none;fillColor=none;spacing=5;spacingTop=-20;whiteSpace=wrap;overflow=hidden;rounded=0;" vertex="1" parent="RMUCeAg36CDSYGvV_Tc--1">
          <mxGeometry x="22" y="201" width="761" height="745" as="geometry" />
        </mxCell>
      </root>
    </mxGraphModel>
  </diagram>
  <diagram id="n4bLaYYPYYHQxXJXHJK1" name="BEAM: Capabilities">
    <mxGraphModel dx="946" dy="591" grid="0" gridSize="10" guides="1" tooltips="1" connect="1" arrows="1" fold="1" page="1" pageScale="1" pageWidth="1169" pageHeight="827" math="0" shadow="0">
      <root>
        <mxCell id="iNT4ub1sUhXxT888dL8U-0" />
        <mxCell id="iNT4ub1sUhXxT888dL8U-1" parent="iNT4ub1sUhXxT888dL8U-0" />
        <mxCell id="ocUDhnXma7qn7Cwz_piR-0" value="" style="group" parent="iNT4ub1sUhXxT888dL8U-1" vertex="1" connectable="0">
          <mxGeometry x="30" y="185" width="1110" height="610" as="geometry" />
        </mxCell>
        <mxCell id="zFs1RbrcNEOhVqBjjlSq-1" value="&lt;div style=&quot;font-size: 14px&quot;&gt;&lt;font style=&quot;font-size: 14px&quot;&gt;&amp;nbsp; &amp;nbsp; Communication&lt;/font&gt;&lt;/div&gt;&lt;span style=&quot;font-size: 14px&quot;&gt;&lt;div&gt;&lt;font style=&quot;font-size: 14px&quot;&gt;&amp;nbsp; &amp;nbsp; channels&lt;/font&gt;&lt;/div&gt;&lt;/span&gt;" style="rounded=1;whiteSpace=wrap;html=1;strokeColor=none;fillColor=#D9D9D9;fontSize=11;verticalAlign=middle;align=left;fontColor=#999999;fontStyle=1" parent="ocUDhnXma7qn7Cwz_piR-0" vertex="1">
          <mxGeometry y="89" width="740" height="75" as="geometry" />
        </mxCell>
        <mxCell id="zFs1RbrcNEOhVqBjjlSq-0" value="&lt;div style=&quot;font-size: 14px&quot;&gt;&lt;font&gt;&amp;nbsp; &amp;nbsp;Stakeholders&lt;/font&gt;&lt;/div&gt;" style="rounded=1;whiteSpace=wrap;html=1;strokeColor=none;fillColor=#D9D9D9;fontSize=11;verticalAlign=middle;align=left;fontColor=#999999;fontStyle=1" parent="ocUDhnXma7qn7Cwz_piR-0" vertex="1">
          <mxGeometry width="1110" height="75" as="geometry" />
        </mxCell>
        <mxCell id="zFs1RbrcNEOhVqBjjlSq-2" value="&lt;div style=&quot;font-size: 14px&quot;&gt;&lt;font&gt;Data&amp;nbsp; &amp;nbsp;&lt;/font&gt;&lt;/div&gt;&lt;div style=&quot;font-size: 14px&quot;&gt;&lt;font&gt;Channels&amp;nbsp; &amp;nbsp;&lt;/font&gt;&lt;/div&gt;&lt;div style=&quot;font-size: 14px&quot;&gt;&lt;font&gt;Inbound&amp;nbsp; &amp;nbsp;&lt;/font&gt;&lt;/div&gt;" style="rounded=1;whiteSpace=wrap;html=1;strokeColor=none;fillColor=#D9D9D9;fontSize=11;verticalAlign=middle;align=right;fontColor=#999999;fontStyle=1" parent="ocUDhnXma7qn7Cwz_piR-0" vertex="1">
          <mxGeometry x="750" y="89" width="360" height="75" as="geometry" />
        </mxCell>
        <mxCell id="zFs1RbrcNEOhVqBjjlSq-3" value="&lt;div style=&quot;font-size: 14px&quot;&gt;&lt;font style=&quot;font-size: 14px&quot;&gt;&amp;nbsp; &amp;nbsp; Distribution /&lt;/font&gt;&lt;/div&gt;&lt;span style=&quot;font-size: 14px&quot;&gt;&lt;div&gt;&lt;font style=&quot;font-size: 14px&quot;&gt;&amp;nbsp; &amp;nbsp; Access&lt;/font&gt;&lt;/div&gt;&lt;/span&gt;" style="rounded=1;whiteSpace=wrap;html=1;strokeColor=none;fillColor=#D9D9D9;fontSize=11;verticalAlign=middle;align=left;fontColor=#999999;fontStyle=1" parent="ocUDhnXma7qn7Cwz_piR-0" vertex="1">
          <mxGeometry y="178" width="1110" height="75" as="geometry" />
        </mxCell>
        <mxCell id="zFs1RbrcNEOhVqBjjlSq-4" value="&lt;div style=&quot;font-size: 14px&quot;&gt;&lt;font&gt;&amp;nbsp; &amp;nbsp;Products&lt;/font&gt;&lt;/div&gt;" style="rounded=1;whiteSpace=wrap;html=1;strokeColor=none;fillColor=#D9D9D9;fontSize=11;verticalAlign=middle;align=left;fontColor=#999999;fontStyle=1" parent="ocUDhnXma7qn7Cwz_piR-0" vertex="1">
          <mxGeometry y="448" width="1110" height="75" as="geometry" />
        </mxCell>
        <mxCell id="zFs1RbrcNEOhVqBjjlSq-5" value="&lt;div style=&quot;font-size: 14px&quot;&gt;&lt;font&gt;&amp;nbsp; &amp;nbsp;Supporting&lt;/font&gt;&lt;/div&gt;&lt;div style=&quot;font-size: 14px&quot;&gt;&lt;font&gt;&amp;nbsp; &amp;nbsp;Business&lt;/font&gt;&lt;/div&gt;" style="rounded=1;whiteSpace=wrap;html=1;strokeColor=none;fillColor=#D9D9D9;fontSize=11;verticalAlign=middle;align=left;fontColor=#999999;fontStyle=1" parent="ocUDhnXma7qn7Cwz_piR-0" vertex="1">
          <mxGeometry y="535" width="1110" height="75" as="geometry" />
        </mxCell>
        <mxCell id="zFs1RbrcNEOhVqBjjlSq-6" value="&lt;div style=&quot;font-size: 14px&quot;&gt;&lt;font&gt;&amp;nbsp; &amp;nbsp;Customer&lt;/font&gt;&lt;/div&gt;&lt;div style=&quot;font-size: 14px&quot;&gt;&lt;font&gt;&amp;nbsp; &amp;nbsp;Service&lt;/font&gt;&lt;/div&gt;&lt;div style=&quot;font-size: 14px&quot;&gt;&lt;font&gt;&amp;nbsp; &amp;nbsp;Delivery&lt;/font&gt;&lt;/div&gt;" style="rounded=1;whiteSpace=wrap;html=1;strokeColor=none;fillColor=#D9D9D9;fontSize=11;verticalAlign=middle;align=left;fontColor=#999999;fontStyle=1" parent="ocUDhnXma7qn7Cwz_piR-0" vertex="1">
          <mxGeometry y="265" width="1110" height="96.5" as="geometry" />
        </mxCell>
        <mxCell id="zFs1RbrcNEOhVqBjjlSq-7" value="&lt;div style=&quot;font-size: 14px&quot;&gt;&lt;font&gt;&amp;nbsp; &amp;nbsp;Infomation&lt;/font&gt;&lt;/div&gt;&lt;div style=&quot;font-size: 14px&quot;&gt;&lt;font&gt;&amp;nbsp; &amp;nbsp;management&lt;/font&gt;&lt;/div&gt;" style="rounded=1;whiteSpace=wrap;html=1;strokeColor=none;fillColor=#D9D9D9;fontSize=11;verticalAlign=middle;align=left;fontColor=#999999;fontStyle=1" parent="ocUDhnXma7qn7Cwz_piR-0" vertex="1">
          <mxGeometry y="375" width="1110" height="60" as="geometry" />
        </mxCell>
        <mxCell id="94nX70nCfmIl-hpHcw-5-0" value="&lt;h1 style=&quot;white-space: nowrap&quot;&gt;&lt;font color=&quot;#0077c8&quot; style=&quot;font-weight: normal ; font-size: 48px&quot;&gt;Business EA Model: Target&lt;/font&gt;&lt;/h1&gt;&lt;h1&gt;Identification of capabilities in scope&lt;/h1&gt;&lt;p&gt;Lorem ipsum dolor sit amet, consectetur adipisicing elit, sed do eiusmod tempor incididunt ut labore et dolore magna aliqua.&lt;/p&gt;" style="text;html=1;strokeColor=none;fillColor=none;spacing=5;spacingTop=-20;whiteSpace=wrap;overflow=hidden;rounded=0;" parent="iNT4ub1sUhXxT888dL8U-1" vertex="1">
          <mxGeometry x="30" y="25" width="790" height="160" as="geometry" />
        </mxCell>
        <mxCell id="bDsFZaAfr9l65WHMBinO-1" value="&lt;div&gt;&lt;font color=&quot;#0077c8&quot;&gt;&lt;span style=&quot;font-size: 10px ; font-weight: 400&quot;&gt;&amp;nbsp; &amp;nbsp;Consumer&lt;/span&gt;&lt;/font&gt;&lt;/div&gt;" style="rounded=1;whiteSpace=wrap;html=1;fontSize=11;verticalAlign=top;align=left;fontStyle=1;strokeColor=none;" parent="iNT4ub1sUhXxT888dL8U-1" vertex="1">
          <mxGeometry x="160" y="187.5" width="360" height="70" as="geometry" />
        </mxCell>
        <mxCell id="bDsFZaAfr9l65WHMBinO-3" value="&lt;div&gt;&lt;font color=&quot;#0077c8&quot;&gt;&lt;span style=&quot;font-size: 10px ; font-weight: 400&quot;&gt;&amp;nbsp;Shareholder&lt;/span&gt;&lt;/font&gt;&lt;/div&gt;" style="rounded=1;whiteSpace=wrap;html=1;fontSize=11;verticalAlign=top;align=left;fontStyle=1;strokeColor=none;" parent="iNT4ub1sUhXxT888dL8U-1" vertex="1">
          <mxGeometry x="910" y="187.5" width="80" height="70" as="geometry" />
        </mxCell>
        <mxCell id="bDsFZaAfr9l65WHMBinO-4" value="&lt;div&gt;&lt;font color=&quot;#0077c8&quot;&gt;&lt;span style=&quot;font-size: 10px ; font-weight: 400&quot;&gt;&amp;nbsp;Regulator /&lt;/span&gt;&lt;/font&gt;&lt;/div&gt;&lt;div&gt;&lt;font color=&quot;#0077c8&quot;&gt;&lt;span style=&quot;font-size: 10px ; font-weight: 400&quot;&gt;&amp;nbsp;Supervisor&lt;/span&gt;&lt;/font&gt;&lt;/div&gt;" style="rounded=1;whiteSpace=wrap;html=1;fontSize=11;verticalAlign=top;align=left;fontStyle=1;strokeColor=none;" parent="iNT4ub1sUhXxT888dL8U-1" vertex="1">
          <mxGeometry x="1000" y="187.5" width="80" height="70" as="geometry" />
        </mxCell>
        <mxCell id="bDsFZaAfr9l65WHMBinO-5" value="&lt;div&gt;&lt;font color=&quot;#0077c8&quot;&gt;&lt;span style=&quot;font-size: 10px ; font-weight: 400&quot;&gt;&amp;nbsp; &amp;nbsp;Business&lt;/span&gt;&lt;/font&gt;&lt;/div&gt;" style="rounded=1;whiteSpace=wrap;html=1;fontSize=11;verticalAlign=top;align=left;fontStyle=1;strokeColor=none;" parent="iNT4ub1sUhXxT888dL8U-1" vertex="1">
          <mxGeometry x="525" y="187.5" width="377" height="70" as="geometry" />
        </mxCell>
        <mxCell id="bDsFZaAfr9l65WHMBinO-6" value="&lt;div&gt;&lt;font color=&quot;#0077c8&quot;&gt;&lt;span style=&quot;font-size: 10px ; font-weight: 400&quot;&gt;Employee&lt;/span&gt;&lt;/font&gt;&lt;/div&gt;" style="rounded=1;whiteSpace=wrap;html=1;fontSize=11;verticalAlign=top;align=center;fontStyle=1;strokeColor=#000000;" parent="iNT4ub1sUhXxT888dL8U-1" vertex="1">
          <mxGeometry x="585" y="198.25" width="70" height="48.5" as="geometry" />
        </mxCell>
        <mxCell id="bDsFZaAfr9l65WHMBinO-8" value="&lt;div&gt;&lt;font color=&quot;#0077c8&quot;&gt;&lt;span style=&quot;font-size: 10px ; font-weight: 400&quot;&gt;SMB&lt;/span&gt;&lt;/font&gt;&lt;/div&gt;" style="rounded=1;whiteSpace=wrap;html=1;fontSize=11;verticalAlign=top;align=center;fontStyle=1;strokeColor=#000000;" parent="iNT4ub1sUhXxT888dL8U-1" vertex="1">
          <mxGeometry x="663" y="198.25" width="70" height="48.5" as="geometry" />
        </mxCell>
        <mxCell id="bDsFZaAfr9l65WHMBinO-9" value="&lt;div&gt;&lt;font color=&quot;#0077c8&quot;&gt;&lt;span style=&quot;font-size: 10px ; font-weight: 400&quot;&gt;Midmarket&lt;/span&gt;&lt;/font&gt;&lt;/div&gt;" style="rounded=1;whiteSpace=wrap;html=1;fontSize=11;verticalAlign=top;align=center;fontStyle=1;strokeColor=#000000;" parent="iNT4ub1sUhXxT888dL8U-1" vertex="1">
          <mxGeometry x="742" y="198.25" width="70" height="48.5" as="geometry" />
        </mxCell>
        <mxCell id="bDsFZaAfr9l65WHMBinO-10" value="&lt;div&gt;&lt;font color=&quot;#0077c8&quot;&gt;&lt;span style=&quot;font-size: 10px ; font-weight: 400&quot;&gt;Enterprise&lt;/span&gt;&lt;/font&gt;&lt;/div&gt;" style="rounded=1;whiteSpace=wrap;html=1;fontSize=11;verticalAlign=top;align=center;fontStyle=1;strokeColor=#000000;" parent="iNT4ub1sUhXxT888dL8U-1" vertex="1">
          <mxGeometry x="820" y="198.25" width="70" height="48.5" as="geometry" />
        </mxCell>
        <mxCell id="bDsFZaAfr9l65WHMBinO-11" value="&lt;div&gt;&lt;font color=&quot;#0077c8&quot;&gt;&lt;span style=&quot;font-size: 10px ; font-weight: 400&quot;&gt;&amp;nbsp; &amp;nbsp;Digital&lt;/span&gt;&lt;/font&gt;&lt;/div&gt;" style="rounded=1;whiteSpace=wrap;html=1;fontSize=11;verticalAlign=top;align=left;fontStyle=1;strokeColor=none;" parent="iNT4ub1sUhXxT888dL8U-1" vertex="1">
          <mxGeometry x="160" y="276.5" width="360" height="70" as="geometry" />
        </mxCell>
        <mxCell id="bDsFZaAfr9l65WHMBinO-12" value="&lt;div&gt;&lt;font color=&quot;#0077c8&quot;&gt;&lt;span style=&quot;font-size: 10px ; font-weight: 400&quot;&gt;&amp;nbsp; &amp;nbsp;Direct&lt;/span&gt;&lt;/font&gt;&lt;/div&gt;" style="rounded=1;whiteSpace=wrap;html=1;fontSize=11;verticalAlign=top;align=left;fontStyle=1;strokeColor=none;" parent="iNT4ub1sUhXxT888dL8U-1" vertex="1">
          <mxGeometry x="160" y="365.5" width="360" height="70" as="geometry" />
        </mxCell>
        <mxCell id="bDsFZaAfr9l65WHMBinO-13" value="&lt;div&gt;&lt;font color=&quot;#0077c8&quot;&gt;&lt;span style=&quot;font-size: 10px ; font-weight: 400&quot;&gt;&amp;nbsp; &amp;nbsp;Traditional&lt;/span&gt;&lt;/font&gt;&lt;/div&gt;" style="rounded=1;whiteSpace=wrap;html=1;fontSize=11;verticalAlign=top;align=left;fontStyle=1;strokeColor=none;" parent="iNT4ub1sUhXxT888dL8U-1" vertex="1">
          <mxGeometry x="525" y="276.5" width="241" height="70" as="geometry" />
        </mxCell>
        <mxCell id="bDsFZaAfr9l65WHMBinO-14" value="&lt;div&gt;&lt;font color=&quot;#0077c8&quot;&gt;&lt;span style=&quot;font-size: 10px ; font-weight: 400&quot;&gt;&amp;nbsp; &amp;nbsp;Indirect&lt;/span&gt;&lt;/font&gt;&lt;/div&gt;" style="rounded=1;whiteSpace=wrap;html=1;fontSize=11;verticalAlign=top;align=left;fontStyle=1;strokeColor=none;" parent="iNT4ub1sUhXxT888dL8U-1" vertex="1">
          <mxGeometry x="525" y="365.5" width="377" height="70" as="geometry" />
        </mxCell>
        <mxCell id="bDsFZaAfr9l65WHMBinO-19" value="" style="group" parent="iNT4ub1sUhXxT888dL8U-1" vertex="1" connectable="0">
          <mxGeometry x="585" y="377" width="305" height="48.5" as="geometry" />
        </mxCell>
        <mxCell id="bDsFZaAfr9l65WHMBinO-15" value="&lt;div&gt;&lt;font color=&quot;#0077c8&quot;&gt;&lt;span style=&quot;font-size: 10px ; font-weight: 400&quot;&gt;Agency&lt;/span&gt;&lt;/font&gt;&lt;/div&gt;" style="rounded=1;whiteSpace=wrap;html=1;fontSize=11;verticalAlign=top;align=center;fontStyle=1;strokeColor=#000000;" parent="bDsFZaAfr9l65WHMBinO-19" vertex="1">
          <mxGeometry width="70" height="48.5" as="geometry" />
        </mxCell>
        <mxCell id="bDsFZaAfr9l65WHMBinO-16" value="&lt;div&gt;&lt;font color=&quot;#0077c8&quot;&gt;&lt;span style=&quot;font-size: 10px ; font-weight: 400&quot;&gt;Brokerage&lt;/span&gt;&lt;/font&gt;&lt;/div&gt;" style="rounded=1;whiteSpace=wrap;html=1;fontSize=11;verticalAlign=top;align=center;fontStyle=1;strokeColor=#000000;" parent="bDsFZaAfr9l65WHMBinO-19" vertex="1">
          <mxGeometry x="78" width="70" height="48.5" as="geometry" />
        </mxCell>
        <mxCell id="bDsFZaAfr9l65WHMBinO-17" value="&lt;div&gt;&lt;font color=&quot;#0077c8&quot;&gt;&lt;span style=&quot;font-size: 10px ; font-weight: 400&quot;&gt;Bank&lt;/span&gt;&lt;/font&gt;&lt;/div&gt;&lt;div&gt;&lt;font color=&quot;#0077c8&quot;&gt;&lt;span style=&quot;font-size: 10px ; font-weight: 400&quot;&gt;Insurance&lt;/span&gt;&lt;/font&gt;&lt;/div&gt;&lt;div&gt;&lt;font color=&quot;#0077c8&quot;&gt;&lt;span style=&quot;font-size: 10px ; font-weight: 400&quot;&gt;model&lt;/span&gt;&lt;/font&gt;&lt;/div&gt;" style="rounded=1;whiteSpace=wrap;html=1;fontSize=11;verticalAlign=top;align=center;fontStyle=1;strokeColor=#000000;" parent="bDsFZaAfr9l65WHMBinO-19" vertex="1">
          <mxGeometry x="157" width="70" height="48.5" as="geometry" />
        </mxCell>
        <mxCell id="bDsFZaAfr9l65WHMBinO-18" value="&lt;div&gt;&lt;font color=&quot;#0077c8&quot;&gt;&lt;span style=&quot;font-size: 10px ; font-weight: 400&quot;&gt;Non-&lt;/span&gt;&lt;/font&gt;&lt;/div&gt;&lt;div&gt;&lt;font color=&quot;#0077c8&quot;&gt;&lt;span style=&quot;font-size: 10px ; font-weight: 400&quot;&gt;traditional&lt;/span&gt;&lt;/font&gt;&lt;/div&gt;&lt;div&gt;&lt;font color=&quot;#0077c8&quot;&gt;&lt;span style=&quot;font-size: 10px ; font-weight: 400&quot;&gt;partnership&lt;/span&gt;&lt;/font&gt;&lt;/div&gt;" style="rounded=1;whiteSpace=wrap;html=1;fontSize=11;verticalAlign=top;align=center;fontStyle=1;strokeColor=#000000;" parent="bDsFZaAfr9l65WHMBinO-19" vertex="1">
          <mxGeometry x="235" width="70" height="48.5" as="geometry" />
        </mxCell>
        <mxCell id="bDsFZaAfr9l65WHMBinO-25" value="" style="group" parent="iNT4ub1sUhXxT888dL8U-1" vertex="1" connectable="0">
          <mxGeometry x="790" y="280" width="270" height="60" as="geometry" />
        </mxCell>
        <mxCell id="bDsFZaAfr9l65WHMBinO-21" value="&lt;div&gt;&lt;font color=&quot;#0077c8&quot;&gt;&lt;span style=&quot;font-size: 10px ; font-weight: 400&quot;&gt;Data streams&lt;/span&gt;&lt;/font&gt;&lt;/div&gt;" style="rounded=1;whiteSpace=wrap;html=1;fontSize=11;verticalAlign=top;align=center;fontStyle=1;strokeColor=#000000;" parent="bDsFZaAfr9l65WHMBinO-25" vertex="1">
          <mxGeometry width="83.25991189427313" height="60" as="geometry" />
        </mxCell>
        <mxCell id="bDsFZaAfr9l65WHMBinO-22" value="&lt;div&gt;&lt;font color=&quot;#0077c8&quot;&gt;&lt;span style=&quot;font-size: 10px ; font-weight: 400&quot;&gt;External data&lt;/span&gt;&lt;/font&gt;&lt;/div&gt;&lt;div&gt;&lt;font color=&quot;#0077c8&quot;&gt;&lt;span style=&quot;font-size: 10px ; font-weight: 400&quot;&gt;sources&lt;/span&gt;&lt;/font&gt;&lt;/div&gt;" style="rounded=1;whiteSpace=wrap;html=1;fontSize=11;verticalAlign=top;align=center;fontStyle=1;strokeColor=#000000;" parent="bDsFZaAfr9l65WHMBinO-25" vertex="1">
          <mxGeometry x="92.77533039647577" width="83.25991189427313" height="60" as="geometry" />
        </mxCell>
        <mxCell id="bDsFZaAfr9l65WHMBinO-23" value="&lt;div&gt;&lt;font color=&quot;#0077c8&quot;&gt;&lt;span style=&quot;font-size: 10px ; font-weight: 400&quot;&gt;Sensor&amp;nbsp;&lt;/span&gt;&lt;/font&gt;&lt;/div&gt;&lt;div&gt;&lt;font color=&quot;#0077c8&quot;&gt;&lt;span style=&quot;font-size: 10px ; font-weight: 400&quot;&gt;streams&lt;/span&gt;&lt;/font&gt;&lt;/div&gt;" style="rounded=1;whiteSpace=wrap;html=1;fontSize=11;verticalAlign=top;align=center;fontStyle=1;strokeColor=#000000;" parent="bDsFZaAfr9l65WHMBinO-25" vertex="1">
          <mxGeometry x="186.74008810572687" width="83.25991189427313" height="60" as="geometry" />
        </mxCell>
        <mxCell id="bDsFZaAfr9l65WHMBinO-28" value="&lt;div&gt;&lt;font color=&quot;#0077c8&quot;&gt;&lt;span style=&quot;font-size: 10px ; font-weight: 400&quot;&gt;Data feed&lt;/span&gt;&lt;/font&gt;&lt;/div&gt;" style="rounded=1;whiteSpace=wrap;html=1;fontSize=11;verticalAlign=top;align=center;fontStyle=1;strokeColor=#000000;" parent="iNT4ub1sUhXxT888dL8U-1" vertex="1">
          <mxGeometry x="930" y="370.5" width="83.25991189427313" height="60" as="geometry" />
        </mxCell>
        <mxCell id="bDsFZaAfr9l65WHMBinO-29" value="&lt;div&gt;&lt;font color=&quot;#0077c8&quot;&gt;&lt;span style=&quot;font-size: 10px ; font-weight: 400&quot;&gt;White label&lt;/span&gt;&lt;/font&gt;&lt;/div&gt;" style="rounded=1;whiteSpace=wrap;html=1;fontSize=11;verticalAlign=top;align=center;fontStyle=1;strokeColor=#000000;" parent="iNT4ub1sUhXxT888dL8U-1" vertex="1">
          <mxGeometry x="1022.7753303964757" y="370.5" width="83.25991189427313" height="60" as="geometry" />
        </mxCell>
        <mxCell id="bDsFZaAfr9l65WHMBinO-30" value="" style="group" parent="iNT4ub1sUhXxT888dL8U-1" vertex="1" connectable="0">
          <mxGeometry x="206" y="377" width="305" height="60" as="geometry" />
        </mxCell>
        <mxCell id="bDsFZaAfr9l65WHMBinO-31" value="&lt;div&gt;&lt;font color=&quot;#0077c8&quot;&gt;&lt;span style=&quot;font-size: 10px ; font-weight: 400&quot;&gt;Self&lt;/span&gt;&lt;/font&gt;&lt;/div&gt;&lt;div&gt;&lt;font color=&quot;#0077c8&quot;&gt;&lt;span style=&quot;font-size: 10px ; font-weight: 400&quot;&gt;service&lt;/span&gt;&lt;/font&gt;&lt;/div&gt;" style="rounded=1;whiteSpace=wrap;html=1;fontSize=11;verticalAlign=top;align=center;fontStyle=1;strokeColor=#000000;" parent="bDsFZaAfr9l65WHMBinO-30" vertex="1">
          <mxGeometry width="70" height="48.5" as="geometry" />
        </mxCell>
        <mxCell id="bDsFZaAfr9l65WHMBinO-32" value="&lt;div&gt;&lt;font color=&quot;#0077c8&quot;&gt;&lt;span style=&quot;font-size: 10px ; font-weight: 400&quot;&gt;Contact&lt;/span&gt;&lt;/font&gt;&lt;/div&gt;&lt;div&gt;&lt;font color=&quot;#0077c8&quot;&gt;&lt;span style=&quot;font-size: 10px ; font-weight: 400&quot;&gt;center&lt;/span&gt;&lt;/font&gt;&lt;/div&gt;" style="rounded=1;whiteSpace=wrap;html=1;fontSize=11;verticalAlign=top;align=center;fontStyle=1;strokeColor=#000000;" parent="bDsFZaAfr9l65WHMBinO-30" vertex="1">
          <mxGeometry x="78" width="70" height="48.5" as="geometry" />
        </mxCell>
        <mxCell id="bDsFZaAfr9l65WHMBinO-33" value="&lt;div&gt;&lt;font color=&quot;#0077c8&quot;&gt;&lt;span style=&quot;font-size: 10px ; font-weight: 400&quot;&gt;Shop&lt;/span&gt;&lt;/font&gt;&lt;/div&gt;" style="rounded=1;whiteSpace=wrap;html=1;fontSize=11;verticalAlign=top;align=center;fontStyle=1;strokeColor=#000000;" parent="bDsFZaAfr9l65WHMBinO-30" vertex="1">
          <mxGeometry x="157" width="70" height="48.5" as="geometry" />
        </mxCell>
        <mxCell id="bDsFZaAfr9l65WHMBinO-34" value="&lt;div&gt;&lt;font color=&quot;#0077c8&quot;&gt;&lt;span style=&quot;font-size: 10px ; font-weight: 400&quot;&gt;Direct face&lt;/span&gt;&lt;/font&gt;&lt;/div&gt;&lt;div&gt;&lt;font color=&quot;#0077c8&quot;&gt;&lt;span style=&quot;font-size: 10px ; font-weight: 400&quot;&gt;to face&lt;/span&gt;&lt;/font&gt;&lt;/div&gt;" style="rounded=1;whiteSpace=wrap;html=1;fontSize=11;verticalAlign=top;align=center;fontStyle=1;strokeColor=#000000;" parent="bDsFZaAfr9l65WHMBinO-30" vertex="1">
          <mxGeometry x="235" width="70" height="48.5" as="geometry" />
        </mxCell>
        <mxCell id="bDsFZaAfr9l65WHMBinO-35" value="&lt;div&gt;&lt;font color=&quot;#0077c8&quot;&gt;&lt;span style=&quot;font-size: 10px ; font-weight: 400&quot;&gt;Proposition /&lt;/span&gt;&lt;/font&gt;&lt;/div&gt;&lt;div&gt;&lt;font color=&quot;#0077c8&quot;&gt;&lt;span style=&quot;font-size: 10px ; font-weight: 400&quot;&gt;services&lt;/span&gt;&lt;/font&gt;&lt;/div&gt;" style="rounded=1;whiteSpace=wrap;html=1;fontSize=11;verticalAlign=top;align=center;fontStyle=1;strokeColor=#000000;" parent="iNT4ub1sUhXxT888dL8U-1" vertex="1">
          <mxGeometry x="160" y="454" width="110" height="87" as="geometry" />
        </mxCell>
        <mxCell id="bDsFZaAfr9l65WHMBinO-37" value="&lt;div&gt;&lt;font color=&quot;#0077c8&quot;&gt;&lt;span style=&quot;font-size: 10px ; font-weight: 400&quot;&gt;Party&lt;/span&gt;&lt;/font&gt;&lt;/div&gt;" style="rounded=1;whiteSpace=wrap;html=1;fontSize=11;verticalAlign=top;align=center;fontStyle=1;strokeColor=#000000;" parent="iNT4ub1sUhXxT888dL8U-1" vertex="1">
          <mxGeometry x="281" y="454" width="110" height="87" as="geometry" />
        </mxCell>
        <mxCell id="bDsFZaAfr9l65WHMBinO-38" value="&lt;div&gt;&lt;font color=&quot;#0077c8&quot;&gt;&lt;span style=&quot;font-size: 10px ; font-weight: 400&quot;&gt;Offer, acceptance&lt;/span&gt;&lt;/font&gt;&lt;/div&gt;&lt;div&gt;&lt;font color=&quot;#0077c8&quot;&gt;&lt;span style=&quot;font-size: 10px ; font-weight: 400&quot;&gt;&amp;amp; Contract&lt;/span&gt;&lt;/font&gt;&lt;/div&gt;" style="rounded=1;whiteSpace=wrap;html=1;fontSize=11;verticalAlign=top;align=center;fontStyle=1;strokeColor=#000000;" parent="iNT4ub1sUhXxT888dL8U-1" vertex="1">
          <mxGeometry x="403" y="454" width="110" height="87" as="geometry" />
        </mxCell>
        <mxCell id="bDsFZaAfr9l65WHMBinO-39" value="&lt;div&gt;&lt;font color=&quot;#0077c8&quot;&gt;&lt;span style=&quot;font-size: 10px ; font-weight: 400&quot;&gt;Commercial Pricing&lt;/span&gt;&lt;/font&gt;&lt;/div&gt;" style="rounded=1;whiteSpace=wrap;html=1;fontSize=11;verticalAlign=top;align=center;fontStyle=1;strokeColor=#000000;" parent="iNT4ub1sUhXxT888dL8U-1" vertex="1">
          <mxGeometry x="524" y="454" width="110" height="87" as="geometry" />
        </mxCell>
        <mxCell id="bDsFZaAfr9l65WHMBinO-40" value="&lt;font color=&quot;#0077c8&quot;&gt;&lt;span style=&quot;font-size: 10px ; font-weight: 400&quot;&gt;Business Process&lt;br&gt;Management&lt;br&gt;&lt;/span&gt;&lt;/font&gt;" style="rounded=1;whiteSpace=wrap;html=1;fontSize=11;verticalAlign=top;align=center;fontStyle=1;strokeColor=#000000;" parent="iNT4ub1sUhXxT888dL8U-1" vertex="1">
          <mxGeometry x="646" y="454" width="110" height="87" as="geometry" />
        </mxCell>
        <mxCell id="bDsFZaAfr9l65WHMBinO-41" value="&lt;div&gt;&lt;font color=&quot;#0077c8&quot;&gt;&lt;span style=&quot;font-size: 10px ; font-weight: 400&quot;&gt;Channel&lt;/span&gt;&lt;/font&gt;&lt;/div&gt;&lt;div&gt;&lt;font color=&quot;#0077c8&quot;&gt;&lt;span style=&quot;font-size: 10px ; font-weight: 400&quot;&gt;Management&lt;/span&gt;&lt;/font&gt;&lt;/div&gt;" style="rounded=1;whiteSpace=wrap;html=1;fontSize=11;verticalAlign=top;align=center;fontStyle=1;strokeColor=#000000;" parent="iNT4ub1sUhXxT888dL8U-1" vertex="1">
          <mxGeometry x="767" y="454" width="110" height="87" as="geometry" />
        </mxCell>
        <mxCell id="bDsFZaAfr9l65WHMBinO-42" value="&lt;div&gt;&lt;font color=&quot;#0077c8&quot;&gt;&lt;span style=&quot;font-size: 10px ; font-weight: 400&quot;&gt;Contract /&amp;nbsp;&lt;/span&gt;&lt;/font&gt;&lt;/div&gt;&lt;div&gt;&lt;font color=&quot;#0077c8&quot;&gt;&lt;span style=&quot;font-size: 10px ; font-weight: 400&quot;&gt;Interaction&lt;/span&gt;&lt;/font&gt;&lt;/div&gt;" style="rounded=1;whiteSpace=wrap;html=1;fontSize=11;verticalAlign=top;align=center;fontStyle=1;strokeColor=#000000;" parent="iNT4ub1sUhXxT888dL8U-1" vertex="1">
          <mxGeometry x="889" y="454" width="110" height="87" as="geometry" />
        </mxCell>
        <mxCell id="bDsFZaAfr9l65WHMBinO-43" value="&lt;div&gt;&lt;font color=&quot;#0077c8&quot;&gt;&lt;span style=&quot;font-size: 10px ; font-weight: 400&quot;&gt;Claims /&lt;/span&gt;&lt;/font&gt;&lt;/div&gt;&lt;div&gt;&lt;font color=&quot;#0077c8&quot;&gt;&lt;span style=&quot;font-size: 10px ; font-weight: 400&quot;&gt;Benefits&lt;/span&gt;&lt;/font&gt;&lt;/div&gt;" style="rounded=1;whiteSpace=wrap;html=1;fontSize=11;verticalAlign=top;align=center;fontStyle=1;strokeColor=#000000;" parent="iNT4ub1sUhXxT888dL8U-1" vertex="1">
          <mxGeometry x="1010" y="454" width="110" height="87" as="geometry" />
        </mxCell>
        <mxCell id="bDsFZaAfr9l65WHMBinO-44" value="&lt;div&gt;&lt;font color=&quot;#0077c8&quot;&gt;&lt;span style=&quot;font-size: 10px ; font-weight: 400&quot;&gt;Information management&lt;/span&gt;&lt;/font&gt;&lt;/div&gt;" style="rounded=1;whiteSpace=wrap;html=1;fontSize=11;verticalAlign=top;align=center;fontStyle=1;strokeColor=#000000;" parent="iNT4ub1sUhXxT888dL8U-1" vertex="1">
          <mxGeometry x="160" y="563" width="960" height="53" as="geometry" />
        </mxCell>
        <mxCell id="bDsFZaAfr9l65WHMBinO-57" value="&lt;div&gt;&lt;font color=&quot;#0077c8&quot;&gt;&lt;span style=&quot;font-size: 10px ; font-weight: 400&quot;&gt;External /&lt;/span&gt;&lt;/font&gt;&lt;/div&gt;&lt;div&gt;&lt;font color=&quot;#0077c8&quot;&gt;&lt;span style=&quot;font-size: 10px ; font-weight: 400&quot;&gt;misc. products&lt;/span&gt;&lt;/font&gt;&lt;/div&gt;&lt;div&gt;&lt;font color=&quot;#0077c8&quot;&gt;&lt;span style=&quot;font-size: 10px ; font-weight: 400&quot;&gt;&amp;amp; services&lt;/span&gt;&lt;/font&gt;&lt;/div&gt;" style="rounded=1;whiteSpace=wrap;html=1;fontSize=11;verticalAlign=top;align=center;fontStyle=1;strokeColor=#000000;" parent="iNT4ub1sUhXxT888dL8U-1" vertex="1">
          <mxGeometry x="1030" y="640.5" width="80" height="149.5" as="geometry" />
        </mxCell>
        <mxCell id="bDsFZaAfr9l65WHMBinO-54" value="&lt;div&gt;&lt;font color=&quot;#0077c8&quot;&gt;&lt;span style=&quot;font-size: 10px ; font-weight: 400&quot;&gt;Payments&lt;/span&gt;&lt;/font&gt;&lt;/div&gt;" style="rounded=1;whiteSpace=wrap;html=1;fontSize=11;verticalAlign=top;align=center;fontStyle=1;strokeColor=#000000;" parent="iNT4ub1sUhXxT888dL8U-1" vertex="1">
          <mxGeometry x="682" y="640" width="80" height="60" as="geometry" />
        </mxCell>
        <mxCell id="bDsFZaAfr9l65WHMBinO-55" value="&lt;div&gt;&lt;font color=&quot;#0077c8&quot;&gt;&lt;span style=&quot;font-size: 10px ; font-weight: 400&quot;&gt;Savings&lt;/span&gt;&lt;/font&gt;&lt;/div&gt;" style="rounded=1;whiteSpace=wrap;html=1;fontSize=11;verticalAlign=top;align=center;fontStyle=1;strokeColor=#000000;" parent="iNT4ub1sUhXxT888dL8U-1" vertex="1">
          <mxGeometry x="769" y="640" width="80" height="60" as="geometry" />
        </mxCell>
        <mxCell id="bDsFZaAfr9l65WHMBinO-56" value="&lt;div&gt;&lt;font color=&quot;#0077c8&quot;&gt;&lt;span style=&quot;font-size: 10px ; font-weight: 400&quot;&gt;Advice&lt;/span&gt;&lt;/font&gt;&lt;/div&gt;" style="rounded=1;whiteSpace=wrap;html=1;fontSize=11;verticalAlign=top;align=center;fontStyle=1;strokeColor=#000000;" parent="iNT4ub1sUhXxT888dL8U-1" vertex="1">
          <mxGeometry x="856" y="640" width="80" height="60" as="geometry" />
        </mxCell>
        <mxCell id="bDsFZaAfr9l65WHMBinO-50" value="&lt;div&gt;&lt;font color=&quot;#0077c8&quot;&gt;&lt;span style=&quot;font-size: 10px ; font-weight: 400&quot;&gt;Health&lt;/span&gt;&lt;/font&gt;&lt;/div&gt;" style="rounded=1;whiteSpace=wrap;html=1;fontSize=11;verticalAlign=top;align=center;fontStyle=1;strokeColor=#000000;" parent="iNT4ub1sUhXxT888dL8U-1" vertex="1">
          <mxGeometry x="421" y="640" width="80" height="60" as="geometry" />
        </mxCell>
        <mxCell id="bDsFZaAfr9l65WHMBinO-51" value="&lt;div&gt;&lt;font color=&quot;#0077c8&quot;&gt;&lt;span style=&quot;font-size: 10px ; font-weight: 400&quot;&gt;Financing&lt;/span&gt;&lt;/font&gt;&lt;/div&gt;" style="rounded=1;whiteSpace=wrap;html=1;fontSize=11;verticalAlign=top;align=center;fontStyle=1;strokeColor=#000000;" parent="iNT4ub1sUhXxT888dL8U-1" vertex="1">
          <mxGeometry x="508" y="640" width="80" height="60" as="geometry" />
        </mxCell>
        <mxCell id="bDsFZaAfr9l65WHMBinO-52" value="&lt;div&gt;&lt;font color=&quot;#0077c8&quot;&gt;&lt;span style=&quot;font-size: 10px ; font-weight: 400&quot;&gt;Investments&lt;/span&gt;&lt;/font&gt;&lt;/div&gt;" style="rounded=1;whiteSpace=wrap;html=1;fontSize=11;verticalAlign=top;align=center;fontStyle=1;strokeColor=#000000;" parent="iNT4ub1sUhXxT888dL8U-1" vertex="1">
          <mxGeometry x="595" y="640" width="80" height="60" as="geometry" />
        </mxCell>
        <mxCell id="bDsFZaAfr9l65WHMBinO-46" value="&lt;div&gt;&lt;font color=&quot;#0077c8&quot;&gt;&lt;span style=&quot;font-size: 10px ; font-weight: 400&quot;&gt;Pensions&lt;/span&gt;&lt;/font&gt;&lt;/div&gt;" style="rounded=1;whiteSpace=wrap;html=1;fontSize=11;verticalAlign=top;align=center;fontStyle=1;strokeColor=#000000;" parent="iNT4ub1sUhXxT888dL8U-1" vertex="1">
          <mxGeometry x="160" y="640" width="80" height="60" as="geometry" />
        </mxCell>
        <mxCell id="bDsFZaAfr9l65WHMBinO-47" value="&lt;div&gt;&lt;font color=&quot;#0077c8&quot;&gt;&lt;span style=&quot;font-size: 10px ; font-weight: 400&quot;&gt;Life&lt;/span&gt;&lt;/font&gt;&lt;/div&gt;" style="rounded=1;whiteSpace=wrap;html=1;fontSize=11;verticalAlign=top;align=center;fontStyle=1;strokeColor=#000000;" parent="iNT4ub1sUhXxT888dL8U-1" vertex="1">
          <mxGeometry x="247" y="640" width="80" height="60" as="geometry" />
        </mxCell>
        <mxCell id="bDsFZaAfr9l65WHMBinO-48" value="&lt;div&gt;&lt;font color=&quot;#0077c8&quot;&gt;&lt;span style=&quot;font-size: 10px ; font-weight: 400&quot;&gt;Non-Life&lt;/span&gt;&lt;/font&gt;&lt;/div&gt;" style="rounded=1;whiteSpace=wrap;html=1;fontSize=11;verticalAlign=top;align=center;fontStyle=1;strokeColor=#000000;" parent="iNT4ub1sUhXxT888dL8U-1" vertex="1">
          <mxGeometry x="334" y="640" width="80" height="60" as="geometry" />
        </mxCell>
        <mxCell id="bDsFZaAfr9l65WHMBinO-67" value="&lt;div&gt;&lt;font color=&quot;#0077c8&quot;&gt;&lt;span style=&quot;font-size: 10px ; font-weight: 400&quot;&gt;Loan&lt;/span&gt;&lt;/font&gt;&lt;/div&gt;&lt;div&gt;&lt;font color=&quot;#0077c8&quot;&gt;&lt;span style=&quot;font-size: 10px ; font-weight: 400&quot;&gt;Servicing&lt;/span&gt;&lt;/font&gt;&lt;/div&gt;" style="rounded=1;whiteSpace=wrap;html=1;fontSize=11;verticalAlign=top;align=center;fontStyle=1;strokeColor=#000000;" parent="iNT4ub1sUhXxT888dL8U-1" vertex="1">
          <mxGeometry x="943" y="640" width="80" height="60" as="geometry" />
        </mxCell>
        <mxCell id="bDsFZaAfr9l65WHMBinO-68" value="&lt;div&gt;&lt;font color=&quot;#0077c8&quot;&gt;&lt;span style=&quot;font-size: 10px ; font-weight: 400&quot;&gt;Legal, Risk&lt;/span&gt;&lt;/font&gt;&lt;/div&gt;&lt;div&gt;&lt;font color=&quot;#0077c8&quot;&gt;&lt;span style=&quot;font-size: 10px ; font-weight: 400&quot;&gt;&amp;amp; Compliance&lt;/span&gt;&lt;/font&gt;&lt;/div&gt;" style="rounded=1;whiteSpace=wrap;html=1;fontSize=11;verticalAlign=top;align=center;fontStyle=1;strokeColor=#000000;" parent="iNT4ub1sUhXxT888dL8U-1" vertex="1">
          <mxGeometry x="681.78" y="727.25" width="80" height="60" as="geometry" />
        </mxCell>
        <mxCell id="bDsFZaAfr9l65WHMBinO-69" value="&lt;div&gt;&lt;font color=&quot;#0077c8&quot;&gt;&lt;span style=&quot;font-size: 10px ; font-weight: 400&quot;&gt;IT&lt;/span&gt;&lt;/font&gt;&lt;/div&gt;" style="rounded=1;whiteSpace=wrap;html=1;fontSize=11;verticalAlign=top;align=center;fontStyle=1;strokeColor=#000000;" parent="iNT4ub1sUhXxT888dL8U-1" vertex="1">
          <mxGeometry x="768.78" y="727.25" width="80" height="60" as="geometry" />
        </mxCell>
        <mxCell id="bDsFZaAfr9l65WHMBinO-70" value="&lt;div&gt;&lt;font color=&quot;#0077c8&quot;&gt;&lt;span style=&quot;font-size: 10px ; font-weight: 400&quot;&gt;Security&lt;/span&gt;&lt;/font&gt;&lt;/div&gt;" style="rounded=1;whiteSpace=wrap;html=1;fontSize=11;verticalAlign=top;align=center;fontStyle=1;strokeColor=#000000;" parent="iNT4ub1sUhXxT888dL8U-1" vertex="1">
          <mxGeometry x="855.78" y="727.25" width="80" height="60" as="geometry" />
        </mxCell>
        <mxCell id="bDsFZaAfr9l65WHMBinO-71" value="&lt;div&gt;&lt;font color=&quot;#0077c8&quot;&gt;&lt;span style=&quot;font-size: 10px ; font-weight: 400&quot;&gt;Finance&lt;/span&gt;&lt;/font&gt;&lt;/div&gt;&lt;div&gt;&lt;font color=&quot;#0077c8&quot;&gt;&lt;span style=&quot;font-size: 10px ; font-weight: 400&quot;&gt;- A2R&lt;/span&gt;&lt;/font&gt;&lt;/div&gt;" style="rounded=1;whiteSpace=wrap;html=1;fontSize=11;verticalAlign=top;align=center;fontStyle=1;strokeColor=#000000;" parent="iNT4ub1sUhXxT888dL8U-1" vertex="1">
          <mxGeometry x="420.78" y="727.25" width="80" height="60" as="geometry" />
        </mxCell>
        <mxCell id="bDsFZaAfr9l65WHMBinO-72" value="&lt;div&gt;&lt;font color=&quot;#0077c8&quot;&gt;&lt;span style=&quot;font-size: 10px ; font-weight: 400&quot;&gt;Collection&lt;/span&gt;&lt;/font&gt;&lt;/div&gt;" style="rounded=1;whiteSpace=wrap;html=1;fontSize=11;verticalAlign=top;align=center;fontStyle=1;strokeColor=#000000;" parent="iNT4ub1sUhXxT888dL8U-1" vertex="1">
          <mxGeometry x="507.78" y="727.25" width="80" height="60" as="geometry" />
        </mxCell>
        <mxCell id="bDsFZaAfr9l65WHMBinO-73" value="&lt;div&gt;&lt;font color=&quot;#0077c8&quot;&gt;&lt;span style=&quot;font-size: 10px ; font-weight: 400&quot;&gt;Disbursement&lt;/span&gt;&lt;/font&gt;&lt;/div&gt;" style="rounded=1;whiteSpace=wrap;html=1;fontSize=11;verticalAlign=top;align=center;fontStyle=1;strokeColor=#000000;" parent="iNT4ub1sUhXxT888dL8U-1" vertex="1">
          <mxGeometry x="594.78" y="727.25" width="80" height="60" as="geometry" />
        </mxCell>
        <mxCell id="bDsFZaAfr9l65WHMBinO-74" value="&lt;div&gt;&lt;font color=&quot;#0077c8&quot;&gt;&lt;span style=&quot;font-size: 10px ; font-weight: 400&quot;&gt;HR&lt;/span&gt;&lt;/font&gt;&lt;/div&gt;" style="rounded=1;whiteSpace=wrap;html=1;fontSize=11;verticalAlign=top;align=center;fontStyle=1;strokeColor=#000000;" parent="iNT4ub1sUhXxT888dL8U-1" vertex="1">
          <mxGeometry x="159.78" y="727.25" width="80" height="60" as="geometry" />
        </mxCell>
        <mxCell id="bDsFZaAfr9l65WHMBinO-75" value="&lt;div&gt;&lt;font color=&quot;#0077c8&quot;&gt;&lt;span style=&quot;font-size: 10px ; font-weight: 400&quot;&gt;H2R&lt;/span&gt;&lt;/font&gt;&lt;/div&gt;" style="rounded=1;whiteSpace=wrap;html=1;fontSize=11;verticalAlign=top;align=center;fontStyle=1;strokeColor=#000000;" parent="iNT4ub1sUhXxT888dL8U-1" vertex="1">
          <mxGeometry x="246.78" y="727.25" width="80" height="60" as="geometry" />
        </mxCell>
        <mxCell id="bDsFZaAfr9l65WHMBinO-76" value="&lt;div&gt;&lt;font color=&quot;#0077c8&quot;&gt;&lt;span style=&quot;font-size: 10px ; font-weight: 400&quot;&gt;Procurement&lt;/span&gt;&lt;/font&gt;&lt;/div&gt;&lt;div&gt;&lt;font color=&quot;#0077c8&quot;&gt;&lt;span style=&quot;font-size: 10px ; font-weight: 400&quot;&gt;- PSP&lt;/span&gt;&lt;/font&gt;&lt;/div&gt;" style="rounded=1;whiteSpace=wrap;html=1;fontSize=11;verticalAlign=top;align=center;fontStyle=1;strokeColor=#000000;" parent="iNT4ub1sUhXxT888dL8U-1" vertex="1">
          <mxGeometry x="333.78" y="727.25" width="80" height="60" as="geometry" />
        </mxCell>
        <mxCell id="bDsFZaAfr9l65WHMBinO-77" value="&lt;div&gt;&lt;font color=&quot;#0077c8&quot;&gt;&lt;span style=&quot;font-size: 10px ; font-weight: 400&quot;&gt;Asset&lt;/span&gt;&lt;/font&gt;&lt;/div&gt;&lt;div&gt;&lt;font color=&quot;#0077c8&quot;&gt;&lt;span style=&quot;font-size: 10px ; font-weight: 400&quot;&gt;Management&lt;/span&gt;&lt;/font&gt;&lt;/div&gt;" style="rounded=1;whiteSpace=wrap;html=1;fontSize=11;verticalAlign=top;align=center;fontStyle=1;strokeColor=#000000;" parent="iNT4ub1sUhXxT888dL8U-1" vertex="1">
          <mxGeometry x="942.78" y="727.25" width="80" height="60" as="geometry" />
        </mxCell>
        <mxCell id="bDsFZaAfr9l65WHMBinO-81" value="&lt;div&gt;&lt;font color=&quot;#0077c8&quot;&gt;&lt;span style=&quot;font-size: 10px ; font-weight: 400&quot;&gt;Social media&lt;/span&gt;&lt;/font&gt;&lt;/div&gt;" style="rounded=1;whiteSpace=wrap;html=1;fontSize=11;verticalAlign=middle;align=center;fontStyle=1;strokeColor=#000000;" parent="iNT4ub1sUhXxT888dL8U-1" vertex="1">
          <mxGeometry x="230" y="280" width="83.25991189427313" height="30" as="geometry" />
        </mxCell>
        <mxCell id="bDsFZaAfr9l65WHMBinO-82" value="&lt;div&gt;&lt;font color=&quot;#0077c8&quot;&gt;&lt;span style=&quot;font-size: 10px ; font-weight: 400&quot;&gt;E-mail / SMS&lt;/span&gt;&lt;/font&gt;&lt;/div&gt;" style="rounded=1;whiteSpace=wrap;html=1;fontSize=11;verticalAlign=middle;align=center;fontStyle=1;strokeColor=#000000;" parent="iNT4ub1sUhXxT888dL8U-1" vertex="1">
          <mxGeometry x="323" y="280" width="83.25991189427313" height="30" as="geometry" />
        </mxCell>
        <mxCell id="bDsFZaAfr9l65WHMBinO-83" value="&lt;div&gt;&lt;font color=&quot;#0077c8&quot;&gt;&lt;span style=&quot;font-size: 10px ; font-weight: 400&quot;&gt;Web&lt;/span&gt;&lt;/font&gt;&lt;/div&gt;" style="rounded=1;whiteSpace=wrap;html=1;fontSize=11;verticalAlign=middle;align=center;fontStyle=1;strokeColor=#000000;" parent="iNT4ub1sUhXxT888dL8U-1" vertex="1">
          <mxGeometry x="415.74008810572684" y="280" width="83.25991189427313" height="30" as="geometry" />
        </mxCell>
        <mxCell id="bDsFZaAfr9l65WHMBinO-89" value="&lt;div&gt;&lt;font color=&quot;#0077c8&quot;&gt;&lt;span style=&quot;font-size: 10px ; font-weight: 400&quot;&gt;Mobile&lt;/span&gt;&lt;/font&gt;&lt;/div&gt;" style="rounded=1;whiteSpace=wrap;html=1;fontSize=11;verticalAlign=middle;align=center;fontStyle=1;strokeColor=#000000;" parent="iNT4ub1sUhXxT888dL8U-1" vertex="1">
          <mxGeometry x="230" y="313" width="83.25991189427313" height="30" as="geometry" />
        </mxCell>
        <mxCell id="bDsFZaAfr9l65WHMBinO-90" value="&lt;div&gt;&lt;font color=&quot;#0077c8&quot;&gt;&lt;span style=&quot;font-size: 10px ; font-weight: 400&quot;&gt;Chat / Video&lt;/span&gt;&lt;/font&gt;&lt;/div&gt;" style="rounded=1;whiteSpace=wrap;html=1;fontSize=11;verticalAlign=middle;align=center;fontStyle=1;strokeColor=#000000;" parent="iNT4ub1sUhXxT888dL8U-1" vertex="1">
          <mxGeometry x="322.77533039647574" y="313" width="83.25991189427313" height="30" as="geometry" />
        </mxCell>
        <mxCell id="bDsFZaAfr9l65WHMBinO-91" value="&lt;div&gt;&lt;font color=&quot;#0077c8&quot;&gt;&lt;span style=&quot;font-size: 10px ; font-weight: 400&quot;&gt;IVR/Virtual Agent&lt;/span&gt;&lt;/font&gt;&lt;/div&gt;" style="rounded=1;whiteSpace=wrap;html=1;fontSize=11;verticalAlign=middle;align=center;fontStyle=1;strokeColor=#000000;" parent="iNT4ub1sUhXxT888dL8U-1" vertex="1">
          <mxGeometry x="415.74008810572684" y="313" width="83.25991189427313" height="30" as="geometry" />
        </mxCell>
        <mxCell id="bDsFZaAfr9l65WHMBinO-92" value="&lt;div&gt;&lt;font color=&quot;#0077c8&quot;&gt;&lt;span style=&quot;font-size: 10px ; font-weight: 400&quot;&gt;Face to face&lt;/span&gt;&lt;/font&gt;&lt;/div&gt;" style="rounded=1;whiteSpace=wrap;html=1;fontSize=11;verticalAlign=middle;align=center;fontStyle=1;strokeColor=#000000;" parent="iNT4ub1sUhXxT888dL8U-1" vertex="1">
          <mxGeometry x="585.0000000000002" y="280" width="83.25991189427313" height="30" as="geometry" />
        </mxCell>
        <mxCell id="bDsFZaAfr9l65WHMBinO-93" value="&lt;div&gt;&lt;font color=&quot;#0077c8&quot;&gt;&lt;span style=&quot;font-size: 10px ; font-weight: 400&quot;&gt;Broadcast media&lt;/span&gt;&lt;/font&gt;&lt;/div&gt;" style="rounded=1;whiteSpace=wrap;html=1;fontSize=11;verticalAlign=middle;align=center;fontStyle=1;strokeColor=#000000;" parent="iNT4ub1sUhXxT888dL8U-1" vertex="1">
          <mxGeometry x="675.78" y="280" width="83.25991189427313" height="30" as="geometry" />
        </mxCell>
        <mxCell id="bDsFZaAfr9l65WHMBinO-94" value="&lt;div&gt;&lt;font color=&quot;#0077c8&quot;&gt;&lt;span style=&quot;font-size: 10px ; font-weight: 400&quot;&gt;Telephone&lt;/span&gt;&lt;/font&gt;&lt;/div&gt;" style="rounded=1;whiteSpace=wrap;html=1;fontSize=11;verticalAlign=middle;align=center;fontStyle=1;strokeColor=#000000;" parent="iNT4ub1sUhXxT888dL8U-1" vertex="1">
          <mxGeometry x="585.0000000000002" y="313" width="83.25991189427313" height="30" as="geometry" />
        </mxCell>
        <mxCell id="bDsFZaAfr9l65WHMBinO-95" value="&lt;div&gt;&lt;font color=&quot;#0077c8&quot;&gt;&lt;span style=&quot;font-size: 10px ; font-weight: 400&quot;&gt;Print media&lt;/span&gt;&lt;/font&gt;&lt;/div&gt;" style="rounded=1;whiteSpace=wrap;html=1;fontSize=11;verticalAlign=middle;align=center;fontStyle=1;strokeColor=#000000;" parent="iNT4ub1sUhXxT888dL8U-1" vertex="1">
          <mxGeometry x="675.5553303964757" y="313" width="83.25991189427313" height="30" as="geometry" />
        </mxCell>
        <mxCell id="oe2Rtb3EkTu-f4ZCMB2M-0" value="&lt;b&gt;Legend&lt;br&gt;&lt;/b&gt;&lt;br&gt;&lt;u&gt;Application:&lt;/u&gt;" style="text;html=1;fontSize=11;" parent="iNT4ub1sUhXxT888dL8U-1" vertex="1">
          <mxGeometry x="971" y="99" width="60" height="25" as="geometry" />
        </mxCell>
        <mxCell id="-IYtOvR6sZxiyzCDgmKd-1" value="" style="group" parent="iNT4ub1sUhXxT888dL8U-1" vertex="1" connectable="0">
          <mxGeometry x="971" y="129" width="180" height="30" as="geometry" />
        </mxCell>
        <mxCell id="bDsFZaAfr9l65WHMBinO-96" value="" style="rounded=1;whiteSpace=wrap;html=1;fontSize=11;verticalAlign=middle;align=center;fontStyle=1;strokeColor=#000000;fillColor=#00B050;" parent="-IYtOvR6sZxiyzCDgmKd-1" vertex="1">
          <mxGeometry width="83.25991189427313" height="30" as="geometry" />
        </mxCell>
        <mxCell id="-IYtOvR6sZxiyzCDgmKd-0" value="&lt;b&gt;&lt;font style=&quot;font-size: 14px&quot;&gt;= in scope&lt;/font&gt;&lt;/b&gt;" style="text;html=1;fontSize=11;verticalAlign=middle;" parent="-IYtOvR6sZxiyzCDgmKd-1" vertex="1">
          <mxGeometry x="86" width="94" height="25" as="geometry" />
        </mxCell>
      </root>
    </mxGraphModel>
  </diagram>
  <diagram id="0csQAXeEfs5Al4BC_swn" name="BEAM: Flow ">
    <mxGraphModel dx="946" dy="591" grid="0" gridSize="10" guides="1" tooltips="1" connect="1" arrows="1" fold="1" page="1" pageScale="1" pageWidth="1169" pageHeight="827" math="0" shadow="0">
      <root>
        <mxCell id="ilPdNpB5mTHZ3iF2T62z-0" />
        <mxCell id="ilPdNpB5mTHZ3iF2T62z-1" parent="ilPdNpB5mTHZ3iF2T62z-0" />
        <mxCell id="BWeTtsPh2sOaO-Utmv_s-11" value="&lt;div style=&quot;font-size: 14px&quot;&gt;&lt;br&gt;&lt;/div&gt;" style="rounded=1;whiteSpace=wrap;html=1;strokeColor=none;fillColor=#F7F7F7;fontSize=11;verticalAlign=middle;align=left;fontStyle=1;gradientColor=#ffffff;gradientDirection=east;" parent="ilPdNpB5mTHZ3iF2T62z-1" vertex="1">
          <mxGeometry x="1020" y="185" width="140" height="610" as="geometry" />
        </mxCell>
        <mxCell id="0VtzcNLIhAJK4v96x3nv-0" value="&lt;h1 style=&quot;white-space: nowrap&quot;&gt;&lt;font color=&quot;#0077c8&quot; style=&quot;font-weight: normal ; font-size: 48px&quot;&gt;Business EA Model: Target&lt;/font&gt;&lt;/h1&gt;&lt;h1&gt;Applications and Process Flow&lt;/h1&gt;&lt;p&gt;Lorem ipsum dolor sit amet, consectetur adipisicing elit, sed do eiusmod tempor incididunt ut labore et dolore magna aliqua.&lt;/p&gt;" style="text;html=1;strokeColor=none;fillColor=none;spacing=5;spacingTop=-20;whiteSpace=wrap;overflow=hidden;rounded=0;" parent="ilPdNpB5mTHZ3iF2T62z-1" vertex="1">
          <mxGeometry x="30" y="25" width="790" height="160" as="geometry" />
        </mxCell>
        <mxCell id="BWeTtsPh2sOaO-Utmv_s-0" value="Use as-is" style="rounded=0;whiteSpace=wrap;html=1;strokeColor=#0070C0;fillColor=#0070C0;fontSize=11;" parent="ilPdNpB5mTHZ3iF2T62z-1" vertex="1">
          <mxGeometry x="735" y="80" width="100" height="17" as="geometry" />
        </mxCell>
        <mxCell id="BWeTtsPh2sOaO-Utmv_s-1" value="Change" style="rounded=0;whiteSpace=wrap;html=1;strokeColor=#F27D00;fillColor=#F27D00;fontSize=11;" parent="ilPdNpB5mTHZ3iF2T62z-1" vertex="1">
          <mxGeometry x="735" y="101" width="100" height="17" as="geometry" />
        </mxCell>
        <mxCell id="BWeTtsPh2sOaO-Utmv_s-2" value="New for Epic" style="rounded=0;whiteSpace=wrap;html=1;strokeColor=#00B050;fillColor=#00B050;fontSize=11;" parent="ilPdNpB5mTHZ3iF2T62z-1" vertex="1">
          <mxGeometry x="735" y="122" width="100" height="17" as="geometry" />
        </mxCell>
        <mxCell id="BWeTtsPh2sOaO-Utmv_s-3" value="Not available (yet)" style="rounded=0;whiteSpace=wrap;html=1;strokeColor=#FFFF00;fillColor=#FFFF00;fontSize=11;" parent="ilPdNpB5mTHZ3iF2T62z-1" vertex="1">
          <mxGeometry x="735" y="143" width="100" height="17" as="geometry" />
        </mxCell>
        <mxCell id="BWeTtsPh2sOaO-Utmv_s-5" value="&lt;b&gt;Legend&lt;br&gt;&lt;/b&gt;&lt;br&gt;&lt;u&gt;Application:&lt;/u&gt;" style="text;html=1;fontSize=11;" parent="ilPdNpB5mTHZ3iF2T62z-1" vertex="1">
          <mxGeometry x="735" y="25" width="60" height="25" as="geometry" />
        </mxCell>
        <mxCell id="wyH8EIpHqDlalThUkThD-10" value="&lt;div style=&quot;font-size: 14px&quot;&gt;&lt;font style=&quot;font-size: 14px&quot;&gt;&amp;nbsp; &amp;nbsp; Communication&lt;/font&gt;&lt;/div&gt;&lt;span style=&quot;font-size: 14px&quot;&gt;&lt;div&gt;&lt;font style=&quot;font-size: 14px&quot;&gt;&amp;nbsp; &amp;nbsp; channels&lt;/font&gt;&lt;/div&gt;&lt;/span&gt;" style="rounded=1;whiteSpace=wrap;html=1;strokeColor=none;fillColor=#D9D9D9;fontSize=11;verticalAlign=middle;align=left;fontColor=#999999;fontStyle=1" parent="ilPdNpB5mTHZ3iF2T62z-1" vertex="1">
          <mxGeometry x="30" y="274" width="670" height="75" as="geometry" />
        </mxCell>
        <mxCell id="wyH8EIpHqDlalThUkThD-11" value="&lt;div style=&quot;font-size: 14px&quot;&gt;&lt;font&gt;&amp;nbsp; &amp;nbsp;Stakeholders&lt;/font&gt;&lt;/div&gt;" style="rounded=1;whiteSpace=wrap;html=1;strokeColor=none;fillColor=#D9D9D9;fontSize=11;verticalAlign=middle;align=left;fontColor=#999999;fontStyle=1" parent="ilPdNpB5mTHZ3iF2T62z-1" vertex="1">
          <mxGeometry x="30" y="185" width="980" height="75" as="geometry" />
        </mxCell>
        <mxCell id="wyH8EIpHqDlalThUkThD-12" value="&lt;div style=&quot;font-size: 14px&quot;&gt;&lt;font&gt;Data&amp;nbsp; &amp;nbsp;&lt;/font&gt;&lt;/div&gt;&lt;div style=&quot;font-size: 14px&quot;&gt;&lt;font&gt;Channels&amp;nbsp; &amp;nbsp;&lt;/font&gt;&lt;/div&gt;&lt;div style=&quot;font-size: 14px&quot;&gt;&lt;font&gt;Inbound&amp;nbsp; &amp;nbsp;&lt;/font&gt;&lt;/div&gt;" style="rounded=1;whiteSpace=wrap;html=1;strokeColor=none;fillColor=#D9D9D9;fontSize=11;verticalAlign=middle;align=right;fontColor=#999999;fontStyle=1" parent="ilPdNpB5mTHZ3iF2T62z-1" vertex="1">
          <mxGeometry x="710" y="274" width="300" height="75" as="geometry" />
        </mxCell>
        <mxCell id="wyH8EIpHqDlalThUkThD-13" value="&lt;div style=&quot;font-size: 14px&quot;&gt;&lt;font style=&quot;font-size: 14px&quot;&gt;&amp;nbsp; &amp;nbsp; Distribution /&lt;/font&gt;&lt;/div&gt;&lt;span style=&quot;font-size: 14px&quot;&gt;&lt;div&gt;&lt;font style=&quot;font-size: 14px&quot;&gt;&amp;nbsp; &amp;nbsp; Access&lt;/font&gt;&lt;/div&gt;&lt;/span&gt;" style="rounded=1;whiteSpace=wrap;html=1;strokeColor=none;fillColor=#D9D9D9;fontSize=11;verticalAlign=middle;align=left;fontColor=#999999;fontStyle=1" parent="ilPdNpB5mTHZ3iF2T62z-1" vertex="1">
          <mxGeometry x="30" y="363" width="980" height="75" as="geometry" />
        </mxCell>
        <mxCell id="wyH8EIpHqDlalThUkThD-14" value="&lt;div style=&quot;font-size: 14px&quot;&gt;&lt;font&gt;&amp;nbsp; &amp;nbsp;Products&lt;/font&gt;&lt;/div&gt;" style="rounded=1;whiteSpace=wrap;html=1;strokeColor=none;fillColor=#D9D9D9;fontSize=11;verticalAlign=middle;align=left;fontColor=#999999;fontStyle=1" parent="ilPdNpB5mTHZ3iF2T62z-1" vertex="1">
          <mxGeometry x="30" y="633" width="980" height="75" as="geometry" />
        </mxCell>
        <mxCell id="wyH8EIpHqDlalThUkThD-15" value="&lt;div style=&quot;font-size: 14px&quot;&gt;&lt;font&gt;&amp;nbsp; &amp;nbsp;Supporting&lt;/font&gt;&lt;/div&gt;&lt;div style=&quot;font-size: 14px&quot;&gt;&lt;font&gt;&amp;nbsp; &amp;nbsp;Business&lt;/font&gt;&lt;/div&gt;" style="rounded=1;whiteSpace=wrap;html=1;strokeColor=none;fillColor=#D9D9D9;fontSize=11;verticalAlign=middle;align=left;fontColor=#999999;fontStyle=1" parent="ilPdNpB5mTHZ3iF2T62z-1" vertex="1">
          <mxGeometry x="30" y="720" width="980" height="75" as="geometry" />
        </mxCell>
        <mxCell id="wyH8EIpHqDlalThUkThD-16" value="&lt;div style=&quot;font-size: 14px&quot;&gt;&lt;font&gt;&amp;nbsp; &amp;nbsp;Customer&lt;/font&gt;&lt;/div&gt;&lt;div style=&quot;font-size: 14px&quot;&gt;&lt;font&gt;&amp;nbsp; &amp;nbsp;Service&lt;/font&gt;&lt;/div&gt;&lt;div style=&quot;font-size: 14px&quot;&gt;&lt;font&gt;&amp;nbsp; &amp;nbsp;Delivery&lt;/font&gt;&lt;/div&gt;" style="rounded=1;whiteSpace=wrap;html=1;strokeColor=none;fillColor=#D9D9D9;fontSize=11;verticalAlign=middle;align=left;fontColor=#999999;fontStyle=1" parent="ilPdNpB5mTHZ3iF2T62z-1" vertex="1">
          <mxGeometry x="30" y="450" width="980" height="96.5" as="geometry" />
        </mxCell>
        <mxCell id="wyH8EIpHqDlalThUkThD-17" value="&lt;div style=&quot;font-size: 14px&quot;&gt;&lt;font&gt;&amp;nbsp; &amp;nbsp;Infomation&lt;/font&gt;&lt;/div&gt;&lt;div style=&quot;font-size: 14px&quot;&gt;&lt;font&gt;&amp;nbsp; &amp;nbsp;management&lt;/font&gt;&lt;/div&gt;" style="rounded=1;whiteSpace=wrap;html=1;strokeColor=none;fillColor=#D9D9D9;fontSize=11;verticalAlign=middle;align=left;fontColor=#999999;fontStyle=1" parent="ilPdNpB5mTHZ3iF2T62z-1" vertex="1">
          <mxGeometry x="30" y="560" width="980" height="60" as="geometry" />
        </mxCell>
        <mxCell id="BWeTtsPh2sOaO-Utmv_s-14" value="&lt;h1 style=&quot;font-size: 11px&quot;&gt;&lt;p style=&quot;margin-top: 0pt ; margin-bottom: 0pt ; margin-left: 0in ; direction: ltr ; unicode-bidi: embed ; word-break: normal&quot;&gt;&lt;font color=&quot;#000000&quot; style=&quot;font-weight: normal ; font-size: 11px&quot;&gt;&lt;span&gt;A&amp;nbsp;&lt;/span&gt;&lt;span style=&quot;font-family: &amp;#34;arial&amp;#34;&quot;&gt;&amp;lt;Business &lt;/span&gt;&lt;span style=&quot;font-family: &amp;#34;arial&amp;#34;&quot;&gt;process&lt;/span&gt;&lt;span style=&quot;font-family: &amp;#34;arial&amp;#34;&quot;&gt; name&amp;gt;&lt;br&gt;&lt;/span&gt;&lt;/font&gt;&lt;font color=&quot;#000000&quot; style=&quot;font-weight: normal ; font-size: 11px&quot;&gt;&lt;span style=&quot;font-family: &amp;#34;arial&amp;#34;&quot;&gt;1.&amp;nbsp;&lt;/span&gt;&lt;/font&gt;&lt;font color=&quot;#000000&quot; style=&quot;font-weight: normal ; font-size: 11px&quot;&gt;&lt;span style=&quot;font-family: &amp;#34;arial&amp;#34;&quot;&gt;&amp;lt;&lt;/span&gt;&lt;span style=&quot;font-family: &amp;#34;arial&amp;#34;&quot;&gt;Work&amp;nbsp;&lt;/span&gt;&lt;/font&gt;&lt;font color=&quot;#000000&quot; style=&quot;font-weight: normal ; font-size: 11px&quot;&gt;&lt;span style=&quot;font-family: &amp;#34;arial&amp;#34;&quot;&gt;process&lt;/span&gt;&lt;span style=&quot;font-family: &amp;#34;arial&amp;#34;&quot;&gt; name&amp;gt;&lt;br&gt;&lt;/span&gt;&lt;/font&gt;&lt;font color=&quot;#000000&quot; style=&quot;font-weight: normal ; font-size: 11px&quot;&gt;&lt;span style=&quot;font-family: &amp;#34;arial&amp;#34;&quot;&gt;2.&amp;nbsp;&lt;/span&gt;&lt;/font&gt;&lt;font color=&quot;#000000&quot; style=&quot;font-weight: normal ; font-size: 11px&quot;&gt;&lt;span style=&quot;font-family: &amp;#34;arial&amp;#34;&quot;&gt;&amp;lt;&lt;/span&gt;&lt;span style=&quot;font-family: &amp;#34;arial&amp;#34;&quot;&gt;Work&amp;nbsp;&lt;/span&gt;&lt;/font&gt;&lt;font color=&quot;#000000&quot; style=&quot;font-weight: normal ; font-size: 11px&quot;&gt;&lt;span style=&quot;font-family: &amp;#34;arial&amp;#34;&quot;&gt;process&lt;/span&gt;&lt;span style=&quot;font-family: &amp;#34;arial&amp;#34;&quot;&gt; name&amp;gt;&lt;/span&gt;&lt;/font&gt;&lt;/p&gt;&lt;br&gt;&lt;/h1&gt;" style="text;html=1;strokeColor=none;fillColor=none;spacing=5;spacingTop=-20;whiteSpace=wrap;overflow=hidden;rounded=0;fontSize=10;fontColor=#999999;align=left;" parent="ilPdNpB5mTHZ3iF2T62z-1" vertex="1">
          <mxGeometry x="854" y="127" width="153" height="44.5" as="geometry" />
        </mxCell>
        <mxCell id="jj7PqhGjt6kMos4RBOf3-6" value="" style="group" parent="ilPdNpB5mTHZ3iF2T62z-1" vertex="1" connectable="0">
          <mxGeometry x="862" y="77" width="105" height="20" as="geometry" />
        </mxCell>
        <mxCell id="jj7PqhGjt6kMos4RBOf3-7" value="" style="group" parent="jj7PqhGjt6kMos4RBOf3-6" vertex="1" connectable="0">
          <mxGeometry width="105" height="20" as="geometry" />
        </mxCell>
        <mxCell id="h-pEtlz5_aK0GE0WfZOI-1" value="" style="group" parent="jj7PqhGjt6kMos4RBOf3-7" vertex="1" connectable="0">
          <mxGeometry width="105" height="20" as="geometry" />
        </mxCell>
        <mxCell id="jj7PqhGjt6kMos4RBOf3-8" value="Process step" style="text;html=1;fontSize=11;verticalAlign=middle;" parent="h-pEtlz5_aK0GE0WfZOI-1" vertex="1">
          <mxGeometry x="24" y="2" width="80" height="20" as="geometry" />
        </mxCell>
        <mxCell id="jj7PqhGjt6kMos4RBOf3-9" value="&lt;font color=&quot;#ffffff&quot; style=&quot;font-size: 11px&quot;&gt;&lt;br style=&quot;font-size: 11px&quot;&gt;&lt;/font&gt;" style="ellipse;whiteSpace=wrap;html=1;aspect=fixed;fillColor=#000000;verticalAlign=bottom;textDirection=ltr;fontSize=11;fontStyle=1" parent="h-pEtlz5_aK0GE0WfZOI-1" vertex="1">
          <mxGeometry x="-1" y="4" width="16" height="16" as="geometry" />
        </mxCell>
        <mxCell id="BWeTtsPh2sOaO-Utmv_s-6" value="&lt;u&gt;Process:&lt;/u&gt;" style="text;html=1;fontSize=11;" parent="ilPdNpB5mTHZ3iF2T62z-1" vertex="1">
          <mxGeometry x="862" y="50" width="75" height="25" as="geometry" />
        </mxCell>
        <mxCell id="h-pEtlz5_aK0GE0WfZOI-2" value="" style="group" parent="ilPdNpB5mTHZ3iF2T62z-1" vertex="1" connectable="0">
          <mxGeometry x="862" y="101" width="105" height="20" as="geometry" />
        </mxCell>
        <mxCell id="BWeTtsPh2sOaO-Utmv_s-8" value="Process flow" style="text;html=1;fontSize=11;verticalAlign=middle;" parent="h-pEtlz5_aK0GE0WfZOI-2" vertex="1">
          <mxGeometry x="25" width="80" height="20" as="geometry" />
        </mxCell>
        <mxCell id="BWeTtsPh2sOaO-Utmv_s-7" value="" style="endArrow=classic;html=1;fontSize=11;fontColor=#999999;" parent="h-pEtlz5_aK0GE0WfZOI-2" edge="1">
          <mxGeometry width="50" height="50" relative="1" as="geometry">
            <mxPoint y="10" as="sourcePoint" />
            <mxPoint x="21" y="10" as="targetPoint" />
          </mxGeometry>
        </mxCell>
        <mxCell id="L73njV_-DQZjCLCQwibD-0" value="&lt;h4&gt;Lorem ipsum &lt;/h4&gt;dolor sit amet, consectetur adipisicing elit, sed do eiusmod tempor incididunt ut labore et dolore magna aliqua." style="text;html=1;fontSize=10;fontColor=#999999;whiteSpace=wrap;" parent="ilPdNpB5mTHZ3iF2T62z-1" vertex="1">
          <mxGeometry x="1030" y="180" width="120" height="160" as="geometry" />
        </mxCell>
      </root>
    </mxGraphModel>
  </diagram>
  <diagram id="c8ISPShpCCamQPtwjO-_" name="EIAM: Capabilities">
    <mxGraphModel dx="946" dy="591" grid="0" gridSize="10" guides="1" tooltips="1" connect="1" arrows="1" fold="1" page="1" pageScale="1" pageWidth="1169" pageHeight="827" math="0" shadow="0">
      <root>
        <mxCell id="ufdZF3ynBN-NUol6dKND-0" />
        <mxCell id="ufdZF3ynBN-NUol6dKND-1" parent="ufdZF3ynBN-NUol6dKND-0" />
        <mxCell id="rkgKwRC5I5Fk2GDeBsU8-0" value="&lt;h1 style=&quot;white-space: nowrap&quot;&gt;&lt;font color=&quot;#0077c8&quot; style=&quot;font-weight: normal ; font-size: 48px&quot;&gt;Enterprise IA Model: Target&lt;/font&gt;&lt;/h1&gt;&lt;h1&gt;Identification of capacbilities in scope for &amp;lt;subprocess&amp;gt;&lt;/h1&gt;&lt;p&gt;Lorem ipsum dolor sit amet, consectetur adipisicing elit, sed do eiusmod tempor incididunt ut labore et dolore magna aliqua.&lt;/p&gt;" style="text;html=1;strokeColor=none;fillColor=none;spacing=5;spacingTop=-20;whiteSpace=wrap;overflow=hidden;rounded=0;" parent="ufdZF3ynBN-NUol6dKND-1" vertex="1">
          <mxGeometry x="40" y="25" width="790" height="160" as="geometry" />
        </mxCell>
        <mxCell id="pC5VAd5E-h6fJ_BwJzXL-0" value="&lt;div style=&quot;font-size: 14px&quot;&gt;&lt;font style=&quot;font-size: 14px&quot; color=&quot;#ffffff&quot;&gt;&amp;nbsp; &amp;nbsp; Providers &amp;amp;&lt;/font&gt;&lt;/div&gt;&lt;span style=&quot;font-size: 14px&quot;&gt;&lt;div&gt;&lt;font style=&quot;font-size: 14px&quot; color=&quot;#ffffff&quot;&gt;&amp;nbsp; &amp;nbsp; Consumers&lt;/font&gt;&lt;/div&gt;&lt;/span&gt;" style="rounded=1;whiteSpace=wrap;html=1;strokeColor=none;fillColor=#D9D9D9;fontSize=11;verticalAlign=middle;align=left;fontColor=#333333;fontStyle=1" parent="ufdZF3ynBN-NUol6dKND-1" vertex="1">
          <mxGeometry x="30" y="184" width="1010" height="93" as="geometry" />
        </mxCell>
        <mxCell id="pC5VAd5E-h6fJ_BwJzXL-1" value="&lt;font color=&quot;#ffffff&quot;&gt;&lt;span style=&quot;font-size: 14px&quot;&gt;&amp;nbsp; &amp;nbsp;&lt;/span&gt;&lt;span style=&quot;font-size: 14px&quot;&gt;Digital&lt;/span&gt;&lt;span style=&quot;font-size: 14px&quot;&gt;&lt;br&gt;&lt;/span&gt;&lt;/font&gt;&lt;div style=&quot;white-space: normal ; font-size: 14px&quot;&gt;&lt;font color=&quot;#ffffff&quot;&gt;&amp;nbsp; &amp;nbsp;Aegon&lt;/font&gt;&lt;/div&gt;&lt;div style=&quot;white-space: normal ; font-size: 14px&quot;&gt;&lt;font color=&quot;#ffffff&quot;&gt;&amp;nbsp; &amp;nbsp;Solution&lt;/font&gt;&lt;/div&gt;&lt;div style=&quot;white-space: normal ; font-size: 14px&quot;&gt;&lt;font color=&quot;#ffffff&quot;&gt;&amp;nbsp; &amp;nbsp;Platform&lt;/font&gt;&lt;/div&gt;" style="rounded=0;whiteSpace=wrap;html=1;strokeColor=none;fillColor=#D9D9D9;fontSize=11;fontColor=#333333;align=left;fontStyle=1" parent="ufdZF3ynBN-NUol6dKND-1" vertex="1">
          <mxGeometry x="30" y="297" width="1010" height="380" as="geometry" />
        </mxCell>
        <mxCell id="pC5VAd5E-h6fJ_BwJzXL-2" value="&lt;div&gt;&lt;span style=&quot;font-size: 14px ; color: rgb(255 , 255 , 255)&quot;&gt;&lt;b&gt;&amp;nbsp; &amp;nbsp;Enterprise&amp;nbsp;&lt;/b&gt;&lt;/span&gt;&lt;/div&gt;&lt;font color=&quot;#ffffff&quot; style=&quot;font-size: 14px&quot;&gt;&lt;div&gt;&lt;span&gt;&lt;b&gt;&amp;nbsp; &amp;nbsp;Applications&lt;/b&gt;&lt;/span&gt;&lt;/div&gt;&lt;/font&gt;" style="rounded=1;whiteSpace=wrap;html=1;strokeColor=none;fillColor=#D9D9D9;fontSize=11;fontColor=#333333;align=left;" parent="ufdZF3ynBN-NUol6dKND-1" vertex="1">
          <mxGeometry x="30" y="700" width="1010" height="93" as="geometry" />
        </mxCell>
        <mxCell id="pC5VAd5E-h6fJ_BwJzXL-3" value="&lt;font style=&quot;font-size: 14px&quot; color=&quot;#ffffff&quot;&gt;Control&lt;br&gt;Environment&lt;/font&gt;" style="rounded=1;whiteSpace=wrap;html=1;strokeColor=none;fillColor=#D9D9D9;fontSize=11;fontColor=#333333;verticalAlign=top;fontStyle=1" parent="ufdZF3ynBN-NUol6dKND-1" vertex="1">
          <mxGeometry x="1050" y="184" width="105" height="609" as="geometry" />
        </mxCell>
        <mxCell id="r_cIrkbNac9-b-DUPakR-1" value="&lt;div&gt;&lt;font color=&quot;#0077c8&quot;&gt;&lt;span style=&quot;font-size: 10px ; font-weight: 400&quot;&gt;Composition&lt;/span&gt;&lt;/font&gt;&lt;/div&gt;&lt;div&gt;&lt;font color=&quot;#0077c8&quot;&gt;&lt;span style=&quot;font-size: 10px ; font-weight: 400&quot;&gt;&lt;br&gt;&lt;/span&gt;&lt;/font&gt;&lt;/div&gt;" style="rounded=1;whiteSpace=wrap;html=1;fontSize=11;verticalAlign=bottom;align=center;fontStyle=1;strokeColor=#000000;" parent="ufdZF3ynBN-NUol6dKND-1" vertex="1">
          <mxGeometry x="129" y="426" width="88.51" height="85" as="geometry" />
        </mxCell>
        <mxCell id="r_cIrkbNac9-b-DUPakR-2" value="&lt;div&gt;&lt;font color=&quot;#0077c8&quot;&gt;&lt;span style=&quot;font-size: 10px ; font-weight: 400&quot;&gt;Querying&lt;/span&gt;&lt;/font&gt;&lt;/div&gt;&lt;div&gt;&lt;font color=&quot;#0077c8&quot;&gt;&lt;span style=&quot;font-size: 10px ; font-weight: 400&quot;&gt;&lt;br&gt;&lt;/span&gt;&lt;/font&gt;&lt;/div&gt;" style="rounded=1;whiteSpace=wrap;html=1;fontSize=11;verticalAlign=bottom;align=center;fontStyle=1;strokeColor=#000000;" parent="ufdZF3ynBN-NUol6dKND-1" vertex="1">
          <mxGeometry x="221" y="426" width="88.51" height="85" as="geometry" />
        </mxCell>
        <mxCell id="r_cIrkbNac9-b-DUPakR-3" value="&lt;div&gt;&lt;font color=&quot;#0077c8&quot;&gt;&lt;span style=&quot;font-size: 10px ; font-weight: 400&quot;&gt;Processess&lt;/span&gt;&lt;/font&gt;&lt;/div&gt;&lt;div&gt;&lt;font color=&quot;#0077c8&quot;&gt;&lt;span style=&quot;font-size: 10px ; font-weight: 400&quot;&gt;&lt;br&gt;&lt;/span&gt;&lt;/font&gt;&lt;/div&gt;" style="rounded=1;whiteSpace=wrap;html=1;fontSize=11;verticalAlign=bottom;align=center;fontStyle=1;strokeColor=#000000;" parent="ufdZF3ynBN-NUol6dKND-1" vertex="1">
          <mxGeometry x="313" y="426" width="88.51" height="85" as="geometry" />
        </mxCell>
        <mxCell id="r_cIrkbNac9-b-DUPakR-4" value="&lt;div&gt;&lt;font color=&quot;#0077c8&quot;&gt;&lt;span style=&quot;font-size: 10px ; font-weight: 400&quot;&gt;Information&lt;/span&gt;&lt;/font&gt;&lt;/div&gt;&lt;div&gt;&lt;font color=&quot;#0077c8&quot;&gt;&lt;span style=&quot;font-size: 10px ; font-weight: 400&quot;&gt;&lt;br&gt;&lt;/span&gt;&lt;/font&gt;&lt;/div&gt;" style="rounded=1;whiteSpace=wrap;html=1;fontSize=11;verticalAlign=bottom;align=center;fontStyle=1;strokeColor=#000000;" parent="ufdZF3ynBN-NUol6dKND-1" vertex="1">
          <mxGeometry x="405" y="426" width="88.51" height="85" as="geometry" />
        </mxCell>
        <mxCell id="r_cIrkbNac9-b-DUPakR-5" value="&lt;div&gt;&lt;font color=&quot;#0077c8&quot;&gt;&lt;span style=&quot;font-size: 10px ; font-weight: 400&quot;&gt;Logic &amp;amp;&lt;/span&gt;&lt;/font&gt;&lt;/div&gt;&lt;div&gt;&lt;font color=&quot;#0077c8&quot;&gt;&lt;span style=&quot;font-size: 10px ; font-weight: 400&quot;&gt;Cognition&lt;/span&gt;&lt;/font&gt;&lt;/div&gt;" style="rounded=1;whiteSpace=wrap;html=1;fontSize=11;verticalAlign=bottom;align=center;fontStyle=1;strokeColor=#000000;" parent="ufdZF3ynBN-NUol6dKND-1" vertex="1">
          <mxGeometry x="497.51" y="426" width="88.51" height="85" as="geometry" />
        </mxCell>
        <mxCell id="r_cIrkbNac9-b-DUPakR-6" value="&lt;div&gt;&lt;font color=&quot;#0077c8&quot;&gt;&lt;span style=&quot;font-size: 10px ; font-weight: 400&quot;&gt;Information&lt;/span&gt;&lt;/font&gt;&lt;/div&gt;&lt;div&gt;&lt;font color=&quot;#0077c8&quot;&gt;&lt;span style=&quot;font-size: 10px ; font-weight: 400&quot;&gt;Portal&lt;/span&gt;&lt;/font&gt;&lt;/div&gt;" style="rounded=1;whiteSpace=wrap;html=1;fontSize=11;verticalAlign=bottom;align=center;fontStyle=1;strokeColor=#000000;" parent="ufdZF3ynBN-NUol6dKND-1" vertex="1">
          <mxGeometry x="662" y="426" width="88.51" height="85" as="geometry" />
        </mxCell>
        <mxCell id="r_cIrkbNac9-b-DUPakR-7" value="&lt;div&gt;&lt;font color=&quot;#0077c8&quot;&gt;&lt;span style=&quot;font-size: 10px ; font-weight: 400&quot;&gt;Analytics&lt;/span&gt;&lt;/font&gt;&lt;/div&gt;&lt;div&gt;&lt;font color=&quot;#0077c8&quot;&gt;&lt;span style=&quot;font-size: 10px ; font-weight: 400&quot;&gt;workbench&lt;/span&gt;&lt;/font&gt;&lt;/div&gt;" style="rounded=1;whiteSpace=wrap;html=1;fontSize=11;verticalAlign=bottom;align=center;fontStyle=1;strokeColor=#000000;" parent="ufdZF3ynBN-NUol6dKND-1" vertex="1">
          <mxGeometry x="754" y="426" width="88.51" height="85" as="geometry" />
        </mxCell>
        <mxCell id="r_cIrkbNac9-b-DUPakR-8" value="&lt;div&gt;&lt;font color=&quot;#0077c8&quot;&gt;&lt;span style=&quot;font-size: 10px ; font-weight: 400&quot;&gt;Data science&lt;/span&gt;&lt;/font&gt;&lt;/div&gt;&lt;div&gt;&lt;font color=&quot;#0077c8&quot;&gt;&lt;span style=&quot;font-size: 10px ; font-weight: 400&quot;&gt;lab&lt;/span&gt;&lt;/font&gt;&lt;/div&gt;" style="rounded=1;whiteSpace=wrap;html=1;fontSize=11;verticalAlign=bottom;align=center;fontStyle=1;strokeColor=#000000;" parent="ufdZF3ynBN-NUol6dKND-1" vertex="1">
          <mxGeometry x="846" y="426" width="88.51" height="85" as="geometry" />
        </mxCell>
        <mxCell id="r_cIrkbNac9-b-DUPakR-9" value="&lt;div&gt;&lt;font color=&quot;#0077c8&quot;&gt;&lt;span style=&quot;font-size: 10px ; font-weight: 400&quot;&gt;Models&lt;/span&gt;&lt;/font&gt;&lt;/div&gt;&lt;div&gt;&lt;font color=&quot;#0077c8&quot;&gt;&lt;span style=&quot;font-size: 10px ; font-weight: 400&quot;&gt;&lt;br&gt;&lt;/span&gt;&lt;/font&gt;&lt;/div&gt;" style="rounded=1;whiteSpace=wrap;html=1;fontSize=11;verticalAlign=bottom;align=center;fontStyle=1;strokeColor=#000000;" parent="ufdZF3ynBN-NUol6dKND-1" vertex="1">
          <mxGeometry x="938" y="426" width="88.51" height="85" as="geometry" />
        </mxCell>
        <mxCell id="4ShUtIffEOuXAq0w5-hw-0" value="&lt;div&gt;&lt;font color=&quot;#0077c8&quot;&gt;&lt;span style=&quot;font-size: 10px ; font-weight: 400&quot;&gt;Logging&lt;/span&gt;&lt;/font&gt;&lt;/div&gt;&lt;div&gt;&lt;font color=&quot;#0077c8&quot;&gt;&lt;span style=&quot;font-size: 10px ; font-weight: 400&quot;&gt;&lt;br&gt;&lt;/span&gt;&lt;/font&gt;&lt;/div&gt;" style="rounded=1;whiteSpace=wrap;html=1;fontSize=11;verticalAlign=bottom;align=center;fontStyle=1;strokeColor=#000000;" parent="ufdZF3ynBN-NUol6dKND-1" vertex="1">
          <mxGeometry x="1059" y="261" width="88.51" height="85" as="geometry" />
        </mxCell>
        <mxCell id="4ShUtIffEOuXAq0w5-hw-1" value="&lt;div&gt;&lt;font color=&quot;#0077c8&quot;&gt;&lt;span style=&quot;font-size: 10px ; font-weight: 400&quot;&gt;Monitoring&lt;/span&gt;&lt;/font&gt;&lt;/div&gt;&lt;div&gt;&lt;font color=&quot;#0077c8&quot;&gt;&lt;span style=&quot;font-size: 10px ; font-weight: 400&quot;&gt;&lt;br&gt;&lt;/span&gt;&lt;/font&gt;&lt;/div&gt;" style="rounded=1;whiteSpace=wrap;html=1;fontSize=11;verticalAlign=bottom;align=center;fontStyle=1;strokeColor=#000000;" parent="ufdZF3ynBN-NUol6dKND-1" vertex="1">
          <mxGeometry x="1059" y="361" width="88.51" height="85" as="geometry" />
        </mxCell>
        <mxCell id="4ShUtIffEOuXAq0w5-hw-2" value="&lt;div&gt;&lt;font color=&quot;#0077c8&quot;&gt;&lt;span style=&quot;font-size: 10px ; font-weight: 400&quot;&gt;Data&lt;/span&gt;&lt;/font&gt;&lt;/div&gt;&lt;div&gt;&lt;font color=&quot;#0077c8&quot;&gt;&lt;span style=&quot;font-size: 10px ; font-weight: 400&quot;&gt;control&lt;/span&gt;&lt;/font&gt;&lt;/div&gt;&lt;div&gt;&lt;font color=&quot;#0077c8&quot;&gt;&lt;span style=&quot;font-size: 10px ; font-weight: 400&quot;&gt;&lt;br&gt;&lt;/span&gt;&lt;/font&gt;&lt;/div&gt;" style="rounded=1;whiteSpace=wrap;html=1;fontSize=11;verticalAlign=bottom;align=center;fontStyle=1;strokeColor=#000000;" parent="ufdZF3ynBN-NUol6dKND-1" vertex="1">
          <mxGeometry x="1059" y="461" width="88.51" height="85" as="geometry" />
        </mxCell>
        <mxCell id="4ShUtIffEOuXAq0w5-hw-3" value="&lt;div&gt;&lt;font color=&quot;#0077c8&quot;&gt;&lt;span style=&quot;font-size: 10px ; font-weight: 400&quot;&gt;Code&lt;/span&gt;&lt;/font&gt;&lt;/div&gt;&lt;div&gt;&lt;font color=&quot;#0077c8&quot;&gt;&lt;span style=&quot;font-size: 10px ; font-weight: 400&quot;&gt;control&lt;/span&gt;&lt;/font&gt;&lt;/div&gt;&lt;div&gt;&lt;font color=&quot;#0077c8&quot;&gt;&lt;span style=&quot;font-size: 10px ; font-weight: 400&quot;&gt;&lt;br&gt;&lt;/span&gt;&lt;/font&gt;&lt;/div&gt;" style="rounded=1;whiteSpace=wrap;html=1;fontSize=11;verticalAlign=bottom;align=center;fontStyle=1;strokeColor=#000000;" parent="ufdZF3ynBN-NUol6dKND-1" vertex="1">
          <mxGeometry x="1059" y="561" width="88.51" height="85" as="geometry" />
        </mxCell>
        <mxCell id="4ShUtIffEOuXAq0w5-hw-4" value="&lt;div&gt;&lt;font color=&quot;#0077c8&quot;&gt;&lt;span style=&quot;font-size: 10px ; font-weight: 400&quot;&gt;E2E run&lt;/span&gt;&lt;/font&gt;&lt;/div&gt;&lt;div&gt;&lt;font color=&quot;#0077c8&quot;&gt;&lt;span style=&quot;font-size: 10px ; font-weight: 400&quot;&gt;control&lt;/span&gt;&lt;/font&gt;&lt;/div&gt;&lt;div&gt;&lt;font color=&quot;#0077c8&quot;&gt;&lt;span style=&quot;font-size: 10px ; font-weight: 400&quot;&gt;&lt;br&gt;&lt;/span&gt;&lt;/font&gt;&lt;/div&gt;" style="rounded=1;whiteSpace=wrap;html=1;fontSize=11;verticalAlign=bottom;align=center;fontStyle=1;strokeColor=#000000;" parent="ufdZF3ynBN-NUol6dKND-1" vertex="1">
          <mxGeometry x="1059" y="661" width="88.51" height="85" as="geometry" />
        </mxCell>
        <mxCell id="4ShUtIffEOuXAq0w5-hw-5" value="&lt;div&gt;&lt;font color=&quot;#0077c8&quot;&gt;&lt;span style=&quot;font-size: 10px ; font-weight: 400&quot;&gt;Transactions&lt;/span&gt;&lt;/font&gt;&lt;/div&gt;&lt;div&gt;&lt;font color=&quot;#0077c8&quot;&gt;&lt;span style=&quot;font-size: 10px ; font-weight: 400&quot;&gt;&lt;br&gt;&lt;/span&gt;&lt;/font&gt;&lt;/div&gt;" style="rounded=1;whiteSpace=wrap;html=1;fontSize=11;verticalAlign=bottom;align=center;fontStyle=1;strokeColor=#000000;" parent="ufdZF3ynBN-NUol6dKND-1" vertex="1">
          <mxGeometry x="121" y="706" width="88.51" height="85" as="geometry" />
        </mxCell>
        <mxCell id="4ShUtIffEOuXAq0w5-hw-6" value="&lt;div&gt;&lt;font color=&quot;#0077c8&quot;&gt;&lt;span style=&quot;font-size: 10px ; font-weight: 400&quot;&gt;Wrappers&lt;/span&gt;&lt;/font&gt;&lt;/div&gt;&lt;div&gt;&lt;font color=&quot;#0077c8&quot;&gt;&lt;span style=&quot;font-size: 10px ; font-weight: 400&quot;&gt;&lt;br&gt;&lt;/span&gt;&lt;/font&gt;&lt;/div&gt;" style="rounded=1;whiteSpace=wrap;html=1;fontSize=11;verticalAlign=bottom;align=center;fontStyle=1;strokeColor=#000000;" parent="ufdZF3ynBN-NUol6dKND-1" vertex="1">
          <mxGeometry x="221" y="706" width="88.51" height="85" as="geometry" />
        </mxCell>
        <mxCell id="4ShUtIffEOuXAq0w5-hw-7" value="&lt;div&gt;&lt;font color=&quot;#0077c8&quot;&gt;&lt;span style=&quot;font-size: 10px ; font-weight: 400&quot;&gt;Proxies&lt;/span&gt;&lt;/font&gt;&lt;/div&gt;&lt;div&gt;&lt;font color=&quot;#0077c8&quot;&gt;&lt;span style=&quot;font-size: 10px ; font-weight: 400&quot;&gt;&lt;br&gt;&lt;/span&gt;&lt;/font&gt;&lt;/div&gt;" style="rounded=1;whiteSpace=wrap;html=1;fontSize=11;verticalAlign=bottom;align=center;fontStyle=1;strokeColor=#000000;" parent="ufdZF3ynBN-NUol6dKND-1" vertex="1">
          <mxGeometry x="699" y="706" width="88.51" height="85" as="geometry" />
        </mxCell>
        <mxCell id="4ShUtIffEOuXAq0w5-hw-8" value="&lt;div&gt;&lt;font color=&quot;#0077c8&quot;&gt;&lt;span style=&quot;font-size: 10px ; font-weight: 400&quot;&gt;Enterprise applications&lt;/span&gt;&lt;/font&gt;&lt;/div&gt;&lt;div&gt;&lt;font color=&quot;#0077c8&quot;&gt;&lt;span style=&quot;font-size: 10px ; font-weight: 400&quot;&gt;&lt;br&gt;&lt;/span&gt;&lt;/font&gt;&lt;/div&gt;" style="rounded=1;whiteSpace=wrap;html=1;fontSize=11;verticalAlign=bottom;align=center;fontStyle=1;strokeColor=#000000;" parent="ufdZF3ynBN-NUol6dKND-1" vertex="1">
          <mxGeometry x="326.9999999999999" y="706" width="350" height="85" as="geometry" />
        </mxCell>
        <mxCell id="4ShUtIffEOuXAq0w5-hw-9" value="&lt;div&gt;&lt;font color=&quot;#0077c8&quot;&gt;&lt;span style=&quot;font-size: 10px ; font-weight: 400&quot;&gt;Archives&lt;/span&gt;&lt;/font&gt;&lt;/div&gt;&lt;div&gt;&lt;font color=&quot;#0077c8&quot;&gt;&lt;span style=&quot;font-size: 10px ; font-weight: 400&quot;&gt;&lt;br&gt;&lt;/span&gt;&lt;/font&gt;&lt;/div&gt;" style="rounded=1;whiteSpace=wrap;html=1;fontSize=11;verticalAlign=bottom;align=center;fontStyle=1;strokeColor=#000000;" parent="ufdZF3ynBN-NUol6dKND-1" vertex="1">
          <mxGeometry x="819" y="706" width="207.51" height="85" as="geometry" />
        </mxCell>
        <mxCell id="4ShUtIffEOuXAq0w5-hw-10" value="&lt;div&gt;&lt;font color=&quot;#0077c8&quot;&gt;&lt;span style=&quot;font-size: 10px ; font-weight: 400&quot;&gt;Data lake&lt;/span&gt;&lt;/font&gt;&lt;/div&gt;&lt;div&gt;&lt;font color=&quot;#0077c8&quot;&gt;&lt;span style=&quot;font-size: 10px ; font-weight: 400&quot;&gt;&lt;br&gt;&lt;/span&gt;&lt;/font&gt;&lt;/div&gt;" style="rounded=1;whiteSpace=wrap;html=1;fontSize=11;verticalAlign=bottom;align=center;fontStyle=1;strokeColor=#000000;" parent="ufdZF3ynBN-NUol6dKND-1" vertex="1">
          <mxGeometry x="326.9999999999999" y="564" width="430" height="85" as="geometry" />
        </mxCell>
        <mxCell id="4ShUtIffEOuXAq0w5-hw-11" value="&lt;div&gt;&lt;font color=&quot;#0077c8&quot;&gt;&lt;span style=&quot;font-size: 10px ; font-weight: 400&quot;&gt;Event/Stream processing&lt;/span&gt;&lt;/font&gt;&lt;/div&gt;&lt;div&gt;&lt;font color=&quot;#0077c8&quot;&gt;&lt;span style=&quot;font-size: 10px ; font-weight: 400&quot;&gt;&lt;br&gt;&lt;/span&gt;&lt;/font&gt;&lt;/div&gt;" style="rounded=1;whiteSpace=wrap;html=1;fontSize=11;verticalAlign=bottom;align=center;fontStyle=1;strokeColor=#000000;" parent="ufdZF3ynBN-NUol6dKND-1" vertex="1">
          <mxGeometry x="769" y="564" width="257.51" height="85" as="geometry" />
        </mxCell>
        <mxCell id="4ShUtIffEOuXAq0w5-hw-12" value="&lt;div&gt;&lt;font color=&quot;#0077c8&quot; size=&quot;1&quot;&gt;&lt;span style=&quot;font-size: 14px&quot;&gt;Publication pipelines&lt;/span&gt;&lt;/font&gt;&lt;/div&gt;" style="rounded=1;whiteSpace=wrap;html=1;fontSize=11;verticalAlign=middle;align=center;fontStyle=0;strokeColor=#000000;" parent="ufdZF3ynBN-NUol6dKND-1" vertex="1">
          <mxGeometry x="327" y="522" width="700" height="30" as="geometry" />
        </mxCell>
        <mxCell id="4ShUtIffEOuXAq0w5-hw-15" value="&lt;div&gt;&lt;font color=&quot;#0077c8&quot; size=&quot;1&quot;&gt;&lt;span style=&quot;font-size: 14px&quot;&gt;Ingestion pipelines&lt;/span&gt;&lt;/font&gt;&lt;/div&gt;" style="rounded=1;whiteSpace=wrap;html=1;fontSize=11;verticalAlign=middle;align=center;fontStyle=0;strokeColor=#000000;" parent="ufdZF3ynBN-NUol6dKND-1" vertex="1">
          <mxGeometry x="326.9999999999999" y="661" width="700" height="30" as="geometry" />
        </mxCell>
        <mxCell id="4ShUtIffEOuXAq0w5-hw-16" value="&lt;div&gt;&lt;font color=&quot;#0077c8&quot; size=&quot;1&quot;&gt;&lt;span style=&quot;font-size: 14px&quot;&gt;Private API Gateway&lt;/span&gt;&lt;/font&gt;&lt;/div&gt;" style="rounded=1;whiteSpace=wrap;html=1;fontSize=11;verticalAlign=middle;align=center;fontStyle=0;strokeColor=#000000;" parent="ufdZF3ynBN-NUol6dKND-1" vertex="1">
          <mxGeometry x="129" y="393" width="460" height="30" as="geometry" />
        </mxCell>
        <mxCell id="4ShUtIffEOuXAq0w5-hw-17" value="&lt;div&gt;&lt;font color=&quot;#0077c8&quot; size=&quot;1&quot;&gt;&lt;span style=&quot;font-size: 14px&quot;&gt;Public API Gateway&lt;/span&gt;&lt;/font&gt;&lt;/div&gt;" style="rounded=1;whiteSpace=wrap;html=1;fontSize=11;verticalAlign=middle;align=center;fontStyle=0;strokeColor=#000000;" parent="ufdZF3ynBN-NUol6dKND-1" vertex="1">
          <mxGeometry x="126.01999999999998" y="300" width="460" height="30" as="geometry" />
        </mxCell>
        <mxCell id="4ShUtIffEOuXAq0w5-hw-18" value="&lt;div&gt;&lt;font color=&quot;#0077c8&quot; size=&quot;1&quot;&gt;&lt;span style=&quot;font-size: 14px&quot;&gt;Storage Gateway&lt;/span&gt;&lt;/font&gt;&lt;/div&gt;" style="rounded=1;whiteSpace=wrap;html=1;fontSize=11;verticalAlign=middle;align=center;fontStyle=0;strokeColor=#000000;" parent="ufdZF3ynBN-NUol6dKND-1" vertex="1">
          <mxGeometry x="759" y="301" width="200" height="30" as="geometry" />
        </mxCell>
        <mxCell id="4ShUtIffEOuXAq0w5-hw-19" value="&lt;div&gt;&lt;font color=&quot;#0077c8&quot; size=&quot;1&quot;&gt;&lt;span style=&quot;font-size: 14px&quot;&gt;Aegon Public APIs&lt;/span&gt;&lt;/font&gt;&lt;/div&gt;" style="rounded=1;whiteSpace=wrap;html=1;fontSize=11;verticalAlign=middle;align=center;fontStyle=0;strokeColor=#000000;" parent="ufdZF3ynBN-NUol6dKND-1" vertex="1">
          <mxGeometry x="169" y="260" width="160" height="37" as="geometry" />
        </mxCell>
        <mxCell id="4ShUtIffEOuXAq0w5-hw-20" value="&lt;div&gt;&lt;font color=&quot;#0077c8&quot; size=&quot;1&quot;&gt;&lt;span style=&quot;font-size: 14px&quot;&gt;Aegon Private APIs&lt;/span&gt;&lt;/font&gt;&lt;/div&gt;" style="rounded=1;whiteSpace=wrap;html=1;fontSize=11;verticalAlign=middle;align=center;fontStyle=0;strokeColor=#000000;" parent="ufdZF3ynBN-NUol6dKND-1" vertex="1">
          <mxGeometry x="389" y="260" width="160" height="37" as="geometry" />
        </mxCell>
        <mxCell id="4ShUtIffEOuXAq0w5-hw-21" value="&lt;div&gt;&lt;font color=&quot;#0077c8&quot;&gt;&lt;span style=&quot;font-size: 10px ; font-weight: 400&quot;&gt;3rd party&lt;/span&gt;&lt;/font&gt;&lt;/div&gt;&lt;div&gt;&lt;font color=&quot;#0077c8&quot;&gt;&lt;span style=&quot;font-size: 10px ; font-weight: 400&quot;&gt;API consumers&lt;/span&gt;&lt;/font&gt;&lt;/div&gt;" style="rounded=0;whiteSpace=wrap;html=1;fontSize=11;verticalAlign=middle;align=center;fontStyle=1;strokeColor=#000000;" parent="ufdZF3ynBN-NUol6dKND-1" vertex="1">
          <mxGeometry x="169" y="192" width="110" height="45" as="geometry" />
        </mxCell>
        <mxCell id="4ShUtIffEOuXAq0w5-hw-23" value="&lt;div&gt;&lt;font color=&quot;#0077c8&quot;&gt;&lt;span style=&quot;font-size: 10px ; font-weight: 400&quot;&gt;Aegon apps&lt;/span&gt;&lt;/font&gt;&lt;/div&gt;" style="rounded=0;whiteSpace=wrap;html=1;fontSize=11;verticalAlign=middle;align=center;fontStyle=1;strokeColor=#000000;" parent="ufdZF3ynBN-NUol6dKND-1" vertex="1">
          <mxGeometry x="307.51" y="192" width="110" height="45" as="geometry" />
        </mxCell>
        <mxCell id="4ShUtIffEOuXAq0w5-hw-24" value="&lt;div&gt;&lt;font color=&quot;#0077c8&quot;&gt;&lt;span style=&quot;font-size: 10px ; font-weight: 400&quot;&gt;External services /&amp;nbsp;&lt;/span&gt;&lt;/font&gt;&lt;/div&gt;&lt;div&gt;&lt;font color=&quot;#0077c8&quot;&gt;&lt;span style=&quot;font-size: 10px ; font-weight: 400&quot;&gt;API providers&lt;/span&gt;&lt;/font&gt;&lt;/div&gt;" style="rounded=0;whiteSpace=wrap;html=1;fontSize=11;verticalAlign=middle;align=center;fontStyle=1;strokeColor=#000000;" parent="ufdZF3ynBN-NUol6dKND-1" vertex="1">
          <mxGeometry x="439" y="192" width="110" height="45" as="geometry" />
        </mxCell>
        <mxCell id="4ShUtIffEOuXAq0w5-hw-25" value="&lt;div&gt;&lt;font color=&quot;#0077c8&quot;&gt;&lt;span style=&quot;font-size: 10px ; font-weight: 400&quot;&gt;External data providers /&lt;/span&gt;&lt;/font&gt;&lt;/div&gt;&lt;div&gt;&lt;font color=&quot;#0077c8&quot;&gt;&lt;span style=&quot;font-size: 10px ; font-weight: 400&quot;&gt;external data consumers&lt;/span&gt;&lt;/font&gt;&lt;/div&gt;" style="rounded=0;whiteSpace=wrap;html=1;fontSize=11;verticalAlign=middle;align=center;fontStyle=1;strokeColor=#000000;" parent="ufdZF3ynBN-NUol6dKND-1" vertex="1">
          <mxGeometry x="769" y="192.00000000000006" width="200" height="45" as="geometry" />
        </mxCell>
        <mxCell id="4ShUtIffEOuXAq0w5-hw-26" value="&lt;div&gt;&lt;font color=&quot;#0077c8&quot;&gt;&lt;span style=&quot;font-size: 10px ; font-weight: 400&quot;&gt;Monitoring&lt;/span&gt;&lt;/font&gt;&lt;/div&gt;" style="rounded=1;whiteSpace=wrap;html=1;fontSize=11;verticalAlign=middle;align=center;fontStyle=1;strokeColor=#000000;" parent="ufdZF3ynBN-NUol6dKND-1" vertex="1">
          <mxGeometry x="324" y="331" width="70" height="60" as="geometry" />
        </mxCell>
        <mxCell id="PYsgd1pBDjP4G5eZL-Gk-0" value="&lt;b&gt;Legend&lt;br&gt;&lt;/b&gt;&lt;br&gt;&lt;u&gt;Application:&lt;/u&gt;" style="text;html=1;fontSize=11;" parent="ufdZF3ynBN-NUol6dKND-1" vertex="1">
          <mxGeometry x="859" y="100" width="60" height="25" as="geometry" />
        </mxCell>
        <mxCell id="PYsgd1pBDjP4G5eZL-Gk-1" value="" style="group" parent="ufdZF3ynBN-NUol6dKND-1" vertex="1" connectable="0">
          <mxGeometry x="859" y="130" width="180" height="30" as="geometry" />
        </mxCell>
        <mxCell id="PYsgd1pBDjP4G5eZL-Gk-2" value="" style="rounded=1;whiteSpace=wrap;html=1;fontSize=11;verticalAlign=middle;align=center;fontStyle=1;strokeColor=#000000;fillColor=#00B050;" parent="PYsgd1pBDjP4G5eZL-Gk-1" vertex="1">
          <mxGeometry width="83.25991189427313" height="30" as="geometry" />
        </mxCell>
        <mxCell id="PYsgd1pBDjP4G5eZL-Gk-3" value="&lt;b&gt;&lt;font style=&quot;font-size: 14px&quot;&gt;= in scope&lt;/font&gt;&lt;/b&gt;" style="text;html=1;fontSize=11;verticalAlign=middle;" parent="PYsgd1pBDjP4G5eZL-Gk-1" vertex="1">
          <mxGeometry x="86" width="94" height="25" as="geometry" />
        </mxCell>
      </root>
    </mxGraphModel>
  </diagram>
  <diagram id="Y9cOvqj_NRgNA3cC-ght" name="EIAM: Flow">
    <mxGraphModel dx="946" dy="591" grid="0" gridSize="5" guides="1" tooltips="1" connect="1" arrows="1" fold="1" page="1" pageScale="1" pageWidth="1169" pageHeight="827" math="0" shadow="0">
      <root>
        <mxCell id="560NTrD_in3vfmv8XTu--0" />
        <mxCell id="560NTrD_in3vfmv8XTu--1" parent="560NTrD_in3vfmv8XTu--0" />
        <mxCell id="65DxNwR92WsACYpHL7NR-0" value="&lt;h1 style=&quot;white-space: nowrap&quot;&gt;&lt;font color=&quot;#0077c8&quot; style=&quot;font-weight: normal ; font-size: 48px&quot;&gt;Enterprise IA Model: Target&lt;/font&gt;&lt;/h1&gt;&lt;h1&gt;Information flows for &amp;lt;subprocess&amp;gt;&lt;/h1&gt;&lt;div&gt;Lorem ipsum dolor sit amet, consectetur adipisicing elit, sed do eiusmod tempor incididunt ut labore et dolore magna aliqua.&lt;br&gt;&lt;/div&gt;" style="text;html=1;strokeColor=none;fillColor=none;spacing=5;spacingTop=-20;whiteSpace=wrap;overflow=hidden;rounded=0;" parent="560NTrD_in3vfmv8XTu--1" vertex="1">
          <mxGeometry x="30" y="25" width="790" height="150" as="geometry" />
        </mxCell>
        <mxCell id="_yGhbM18hKooRvxDjNCO-0" value="&lt;div style=&quot;font-size: 14px&quot;&gt;&lt;font style=&quot;font-size: 14px&quot; color=&quot;#ffffff&quot;&gt;&amp;nbsp; &amp;nbsp; Providers &amp;amp;&lt;/font&gt;&lt;/div&gt;&lt;span style=&quot;font-size: 14px&quot;&gt;&lt;div&gt;&lt;font style=&quot;font-size: 14px&quot; color=&quot;#ffffff&quot;&gt;&amp;nbsp; &amp;nbsp; Consumers&lt;/font&gt;&lt;/div&gt;&lt;/span&gt;" style="rounded=1;whiteSpace=wrap;html=1;strokeColor=none;fillColor=#D9D9D9;fontSize=11;verticalAlign=middle;align=left;fontColor=#333333;fontStyle=1" parent="560NTrD_in3vfmv8XTu--1" vertex="1">
          <mxGeometry x="30" y="184" width="860" height="93" as="geometry" />
        </mxCell>
        <mxCell id="_yGhbM18hKooRvxDjNCO-1" value="&lt;font color=&quot;#ffffff&quot;&gt;&lt;span style=&quot;font-size: 14px&quot;&gt;&amp;nbsp; &amp;nbsp;&lt;/span&gt;&lt;span style=&quot;font-size: 14px&quot;&gt;Digital&lt;/span&gt;&lt;span style=&quot;font-size: 14px&quot;&gt;&lt;br&gt;&lt;/span&gt;&lt;/font&gt;&lt;div style=&quot;white-space: normal ; font-size: 14px&quot;&gt;&lt;font color=&quot;#ffffff&quot;&gt;&amp;nbsp; &amp;nbsp;Aegon&lt;/font&gt;&lt;/div&gt;&lt;div style=&quot;white-space: normal ; font-size: 14px&quot;&gt;&lt;font color=&quot;#ffffff&quot;&gt;&amp;nbsp; &amp;nbsp;Solution&lt;/font&gt;&lt;/div&gt;&lt;div style=&quot;white-space: normal ; font-size: 14px&quot;&gt;&lt;font color=&quot;#ffffff&quot;&gt;&amp;nbsp; &amp;nbsp;Platform&lt;/font&gt;&lt;/div&gt;" style="rounded=0;whiteSpace=wrap;html=1;strokeColor=none;fillColor=#D9D9D9;fontSize=11;fontColor=#333333;align=left;fontStyle=1" parent="560NTrD_in3vfmv8XTu--1" vertex="1">
          <mxGeometry x="30" y="297" width="860" height="380" as="geometry" />
        </mxCell>
        <mxCell id="_yGhbM18hKooRvxDjNCO-3" value="&lt;div&gt;&lt;span style=&quot;font-size: 14px ; color: rgb(255 , 255 , 255)&quot;&gt;&lt;b&gt;&amp;nbsp; &amp;nbsp;Enterprise&amp;nbsp;&lt;/b&gt;&lt;/span&gt;&lt;/div&gt;&lt;font color=&quot;#ffffff&quot; style=&quot;font-size: 14px&quot;&gt;&lt;div&gt;&lt;span&gt;&lt;b&gt;&amp;nbsp; &amp;nbsp;Applications&lt;/b&gt;&lt;/span&gt;&lt;/div&gt;&lt;/font&gt;" style="rounded=1;whiteSpace=wrap;html=1;strokeColor=none;fillColor=#D9D9D9;fontSize=11;fontColor=#333333;align=left;" parent="560NTrD_in3vfmv8XTu--1" vertex="1">
          <mxGeometry x="30" y="700" width="860" height="93" as="geometry" />
        </mxCell>
        <mxCell id="_yGhbM18hKooRvxDjNCO-4" value="&lt;font style=&quot;font-size: 14px&quot; color=&quot;#ffffff&quot;&gt;Control&lt;br&gt;Environment&lt;/font&gt;" style="rounded=1;whiteSpace=wrap;html=1;strokeColor=none;fillColor=#D9D9D9;fontSize=11;fontColor=#333333;verticalAlign=top;fontStyle=1" parent="560NTrD_in3vfmv8XTu--1" vertex="1">
          <mxGeometry x="905" y="184" width="105" height="609" as="geometry" />
        </mxCell>
        <mxCell id="un64oXjUli6YGoPkw1SZ-0" value="&lt;div style=&quot;font-size: 14px&quot;&gt;&lt;br&gt;&lt;/div&gt;" style="rounded=1;whiteSpace=wrap;html=1;strokeColor=none;fillColor=#F7F7F7;fontSize=11;verticalAlign=middle;align=left;fontStyle=1;gradientColor=#ffffff;gradientDirection=east;" parent="560NTrD_in3vfmv8XTu--1" vertex="1">
          <mxGeometry x="1020" y="185" width="140" height="610" as="geometry" />
        </mxCell>
        <mxCell id="un64oXjUli6YGoPkw1SZ-1" value="" style="group" parent="560NTrD_in3vfmv8XTu--1" vertex="1" connectable="0">
          <mxGeometry x="910" y="49" width="100" height="20" as="geometry" />
        </mxCell>
        <mxCell id="un64oXjUli6YGoPkw1SZ-10" value="&lt;u&gt;Process:&lt;/u&gt;" style="text;html=1;fontSize=11;" parent="560NTrD_in3vfmv8XTu--1" vertex="1">
          <mxGeometry x="910" y="22" width="75" height="25" as="geometry" />
        </mxCell>
        <mxCell id="65DxNwR92WsACYpHL7NR-5" value="&lt;font color=&quot;#ffffff&quot; style=&quot;font-size: 11px&quot;&gt;1&lt;br style=&quot;font-size: 11px&quot;&gt;&lt;/font&gt;" style="ellipse;whiteSpace=wrap;html=1;aspect=fixed;fillColor=#000000;verticalAlign=bottom;textDirection=ltr;fontSize=11;fontStyle=1" parent="560NTrD_in3vfmv8XTu--1" vertex="1">
          <mxGeometry x="910" y="49" width="16" height="16" as="geometry" />
        </mxCell>
        <mxCell id="65DxNwR92WsACYpHL7NR-1" value="&lt;p&gt;API/service:&lt;br&gt;Resource:&lt;br&gt;Method:&lt;br&gt;Pattern:&lt;br&gt;Impl. option:&lt;/p&gt;" style="text;html=1;verticalAlign=middle;" parent="560NTrD_in3vfmv8XTu--1" vertex="1">
          <mxGeometry x="930" y="49" width="80" height="70" as="geometry" />
        </mxCell>
        <mxCell id="65DxNwR92WsACYpHL7NR-23" value="" style="group" parent="560NTrD_in3vfmv8XTu--1" vertex="1" connectable="0">
          <mxGeometry x="910" y="123" width="100" height="20" as="geometry" />
        </mxCell>
        <mxCell id="65DxNwR92WsACYpHL7NR-16" value="" style="group" parent="65DxNwR92WsACYpHL7NR-23" vertex="1" connectable="0">
          <mxGeometry width="100" height="20" as="geometry" />
        </mxCell>
        <mxCell id="65DxNwR92WsACYpHL7NR-7" value="API-Provider" style="text;html=1;fontSize=11;verticalAlign=middle;" parent="65DxNwR92WsACYpHL7NR-16" vertex="1">
          <mxGeometry x="20" width="80" height="20" as="geometry" />
        </mxCell>
        <mxCell id="65DxNwR92WsACYpHL7NR-8" value="&lt;font color=&quot;#ffffff&quot; style=&quot;font-size: 11px&quot;&gt;&lt;br style=&quot;font-size: 11px&quot;&gt;&lt;/font&gt;" style="ellipse;whiteSpace=wrap;html=1;aspect=fixed;fillColor=#000000;verticalAlign=bottom;textDirection=ltr;fontSize=11;fontStyle=1" parent="65DxNwR92WsACYpHL7NR-16" vertex="1">
          <mxGeometry y="2" width="16" height="16" as="geometry" />
        </mxCell>
        <mxCell id="65DxNwR92WsACYpHL7NR-24" value="" style="group" parent="560NTrD_in3vfmv8XTu--1" vertex="1" connectable="0">
          <mxGeometry x="910" y="143.5" width="100" height="17" as="geometry" />
        </mxCell>
        <mxCell id="65DxNwR92WsACYpHL7NR-17" value="" style="group" parent="65DxNwR92WsACYpHL7NR-24" vertex="1" connectable="0">
          <mxGeometry width="100" height="17" as="geometry" />
        </mxCell>
        <mxCell id="65DxNwR92WsACYpHL7NR-6" value="&lt;font color=&quot;#ffffff&quot; style=&quot;font-size: 11px&quot;&gt;&lt;br style=&quot;font-size: 11px&quot;&gt;&lt;/font&gt;" style="ellipse;whiteSpace=wrap;html=1;aspect=fixed;fillColor=#7030A0;verticalAlign=bottom;textDirection=ltr;fontSize=11;fontStyle=1;strokeColor=#7030A0;" parent="65DxNwR92WsACYpHL7NR-17" vertex="1">
          <mxGeometry y="0.5" width="16" height="16" as="geometry" />
        </mxCell>
        <mxCell id="65DxNwR92WsACYpHL7NR-9" value="API-Consumer" style="text;html=1;fontSize=11;verticalAlign=middle;" parent="65DxNwR92WsACYpHL7NR-17" vertex="1">
          <mxGeometry x="20" width="80" height="17" as="geometry" />
        </mxCell>
        <mxCell id="jvLWyeEGiNy2ZDv-mXRa-0" value="Use as-is" style="rounded=0;whiteSpace=wrap;html=1;strokeColor=#0070C0;fillColor=#0070C0;fontSize=11;" parent="560NTrD_in3vfmv8XTu--1" vertex="1">
          <mxGeometry x="780" y="80" width="100" height="17" as="geometry" />
        </mxCell>
        <mxCell id="jvLWyeEGiNy2ZDv-mXRa-1" value="Change" style="rounded=0;whiteSpace=wrap;html=1;strokeColor=#F27D00;fillColor=#F27D00;fontSize=11;" parent="560NTrD_in3vfmv8XTu--1" vertex="1">
          <mxGeometry x="780" y="101" width="100" height="17" as="geometry" />
        </mxCell>
        <mxCell id="jvLWyeEGiNy2ZDv-mXRa-2" value="New for Epic" style="rounded=0;whiteSpace=wrap;html=1;strokeColor=#00B050;fillColor=#00B050;fontSize=11;" parent="560NTrD_in3vfmv8XTu--1" vertex="1">
          <mxGeometry x="780" y="122" width="100" height="17" as="geometry" />
        </mxCell>
        <mxCell id="jvLWyeEGiNy2ZDv-mXRa-3" value="Not available (yet)" style="rounded=0;whiteSpace=wrap;html=1;strokeColor=#FFFF00;fillColor=#FFFF00;fontSize=11;" parent="560NTrD_in3vfmv8XTu--1" vertex="1">
          <mxGeometry x="780" y="143" width="100" height="17" as="geometry" />
        </mxCell>
        <mxCell id="jvLWyeEGiNy2ZDv-mXRa-4" value="&lt;b&gt;Legend&lt;br&gt;&lt;/b&gt;&lt;br&gt;&lt;u&gt;Application:&lt;/u&gt;" style="text;html=1;fontSize=11;" parent="560NTrD_in3vfmv8XTu--1" vertex="1">
          <mxGeometry x="780" y="20" width="60" height="25" as="geometry" />
        </mxCell>
        <mxCell id="_oEh22DON9OofUJiMbrp-0" value="&lt;h4&gt;Lorem ipsum &lt;/h4&gt;dolor sit amet, consectetur adipisicing elit, sed do eiusmod tempor incididunt ut labore et dolore magna aliqua." style="text;html=1;fontSize=10;fontColor=#999999;whiteSpace=wrap;" parent="560NTrD_in3vfmv8XTu--1" vertex="1">
          <mxGeometry x="1030" y="180" width="120" height="160" as="geometry" />
        </mxCell>
      </root>
    </mxGraphModel>
  </diagram>
</mxfile>
